<svg width="70" height="70" viewBox="0 0 70 70" fill="none" xmlns="http://www.w3.org/2000/svg">
<g clip-path="url(#clip0)">
<path d="M49.7163 35.8568C49.5956 35.4445 49.2856 35.1077 48.8737 34.9571C48.7906 34.9267 48.1167 34.6883 47.0699 34.5351C51.5417 29.7769 50.0653 24.2178 49.7163 23.1321C49.5956 22.7196 49.2856 22.3829 48.8737 22.2322C48.6817 22.162 45.3347 20.9818 41.5214 22.3089C41.7367 21.4256 41.8626 20.4545 41.8626 19.3889C41.8626 12.5711 36.6997 9.57454 35.6636 9.04257C35.2867 8.83612 34.8291 8.81725 34.4315 9.0021C34.1752 9.12118 28.1522 12.0036 28.1522 19.3889C28.1522 20.4567 28.2786 21.4298 28.4948 22.3145C24.6747 20.9785 21.3187 22.1618 21.1265 22.2322C20.7145 22.3829 20.4046 22.7196 20.2839 23.1321C19.9348 24.2178 18.4584 29.7769 22.9302 34.5351C21.8835 34.6883 21.2096 34.9267 21.1265 34.9571C20.7145 35.1077 20.4045 35.4446 20.2837 35.8569C19.9275 36.9653 18.3954 42.7354 23.2164 47.5564C26.0062 50.3463 29.1026 51.0118 31.4225 51.0118C32.2814 51.0118 33.0321 50.9203 33.6231 50.8118V59.7577C33.6231 60.5127 34.2352 61.1249 34.9903 61.1249C35.7454 61.1249 36.3575 60.5127 36.3575 59.7577V50.8084C36.9513 50.9183 37.7094 51.0117 38.5775 51.0117C40.8972 51.0117 43.9941 50.3458 46.7837 47.5562C51.6046 42.7351 50.0726 36.9652 49.7163 35.8568ZM33.6231 46.5499C33.5928 47.1704 33.5057 47.692 33.4224 48.067C31.961 48.3917 28.3046 48.7775 25.15 45.6228C22.0428 42.5158 22.3684 38.92 22.7124 37.351C23.6313 37.1513 25.4244 36.9287 27.4095 37.5729C27.5402 37.6218 27.6705 37.6681 27.8001 37.7111C28.8515 38.1098 29.9431 38.7606 30.9776 39.795C32.949 41.7663 33.5377 43.9333 33.6231 45.6377V46.5499ZM33.6231 33.8253C33.5928 34.4459 33.5057 34.9674 33.4224 35.3423C32.5169 35.5437 30.7688 35.7673 28.8196 35.1589C28.6221 35.0827 28.4256 35.0134 28.2305 34.9506C27.2109 34.5479 26.155 33.9031 25.1498 32.8981C22.0428 29.791 22.3684 26.1953 22.7124 24.6265C24.1724 24.309 27.8391 23.9319 30.9776 27.0704C30.9976 27.0904 31.0156 27.1105 31.0352 27.1303C31.1551 27.2649 31.2754 27.3935 31.3956 27.5171C33.0319 29.3643 33.5441 31.3366 33.6231 32.9131V33.8253ZM35.0096 26.9656C34.5811 26.6908 33.9637 26.2378 33.3366 25.5831C33.2726 25.5129 33.2079 25.4428 33.1415 25.3729C31.9992 24.1041 30.8864 22.1576 30.8864 19.3889C30.8864 14.9323 33.7384 12.6199 35.0004 11.8149C36.352 12.6798 39.1281 14.9922 39.1281 19.3889C39.1281 22.0016 38.1477 23.8763 37.0824 25.1434C36.8609 25.3651 36.6536 25.5891 36.4582 25.8141C35.9116 26.3456 35.3882 26.7244 35.0096 26.9656ZM36.366 33.3822C36.364 31.7771 36.7793 29.6531 38.4792 27.6583C38.6806 27.4582 38.8831 27.2428 39.0838 27.0114C42.2211 23.9255 45.8348 24.3024 47.2871 24.6237C47.6312 26.1912 47.959 29.7892 44.85 32.8981C43.8468 33.9015 42.793 34.5457 41.7751 34.9487C41.5767 35.0124 41.377 35.0828 41.176 35.1604C39.2271 35.7678 37.4801 35.5434 36.5782 35.3427C36.477 34.8871 36.3698 34.2178 36.3658 33.4171C36.3658 33.4054 36.366 33.3938 36.366 33.3822ZM44.85 45.6228C41.6949 48.7781 38.0383 48.3916 36.5803 48.0681C36.2625 46.6137 35.8782 42.9392 39.0224 39.795C40.0284 38.789 41.0851 38.1441 42.1056 37.7413C42.3002 37.6787 42.4962 37.6098 42.6932 37.5338C44.6381 36.9268 46.3823 37.1483 47.2871 37.3483C47.6312 38.9159 47.959 42.5139 44.85 45.6228Z" fill="#9ACC10"/>
<path d="M42.2948 0.76166C39.9116 0.256348 37.4572 0 35 0C25.6512 0 16.8619 3.64055 10.2513 10.2513C3.64068 16.8619 0 25.6512 0 35C0 42.79 2.6209 50.3941 7.39594 56.5169C6.85877 57.3479 6.56961 58.3159 6.56961 59.329C6.56961 60.7167 7.11006 62.0212 8.09129 63.0026C9.07252 63.9838 10.3772 64.5243 11.7649 64.5243C13.1526 64.5243 14.4573 63.9838 15.4386 63.0026C16.4199 62.0212 16.9602 60.7167 16.9602 59.329C16.9602 57.9413 16.4198 56.6367 15.4386 55.6553C14.4573 54.674 13.1526 54.1335 11.7649 54.1335C10.9424 54.1335 10.1496 54.3248 9.43551 54.6838C5.10809 49.0663 2.73438 42.1177 2.73438 35C2.73438 17.2087 17.2087 2.73438 35 2.73438C37.2671 2.73438 39.5304 2.97062 41.7275 3.43656C42.4666 3.59311 43.1919 3.12129 43.3486 2.38273C43.5053 1.64404 43.0335 0.91834 42.2948 0.76166ZM10.0248 57.5887C10.5045 57.1088 11.1346 56.869 11.7649 56.869C12.3952 56.869 13.0253 57.1089 13.5051 57.5887C13.9699 58.0534 14.2259 58.6715 14.2259 59.3288C14.2259 59.9862 13.9699 60.6041 13.5051 61.069C12.5456 62.0287 10.9843 62.0285 10.0248 61.069C9.55992 60.6043 9.30398 59.9862 9.30398 59.3288C9.30398 58.6715 9.55992 58.0535 10.0248 57.5887Z" fill="#9ACC10"/>
<path d="M62.6041 13.4831C63.1412 12.6521 63.4304 11.6841 63.4304 10.671C63.4304 9.28333 62.89 7.97862 61.9087 6.99739C60.9275 6.01602 59.6228 5.47571 58.2351 5.47571C56.8474 5.47571 55.5427 6.01616 54.5615 6.99739C53.5802 7.97862 53.0398 9.28333 53.0398 10.671C53.0398 12.0587 53.5802 13.3634 54.5615 14.3447C55.5427 15.326 56.8474 15.8663 58.2351 15.8663C59.0577 15.8663 59.8504 15.6751 60.5646 15.316C64.8919 20.9337 67.2656 27.8823 67.2656 35C67.2656 52.7913 52.7914 67.2656 35 67.2656C33.0861 67.2656 31.1685 67.0969 29.3005 66.764C28.5575 66.6318 27.847 67.1266 27.7147 67.8702C27.5822 68.6135 28.0774 69.3235 28.8207 69.456C30.8468 69.8169 32.9257 70 35 70C44.3488 70 53.1381 66.3593 59.7488 59.7488C66.3596 53.1383 70 44.3488 70 35C70 27.21 67.3791 19.6059 62.6041 13.4831ZM59.9754 12.4112C59.5107 12.876 58.8926 13.132 58.2352 13.132C57.5779 13.132 56.9598 12.8762 56.4951 12.4112C55.5354 11.4517 55.5354 9.89049 56.4951 8.93087C56.9598 8.46602 57.5779 8.21008 58.2352 8.21008C58.8926 8.21008 59.5105 8.46602 59.9754 8.93087C60.4402 9.39557 60.6962 10.0137 60.6962 10.671C60.6962 11.3284 60.4402 11.9463 59.9754 12.4112Z" fill="#9ACC10"/>
<path d="M22.9871 64.9554L22.4708 66.2214L22.9833 64.9539C22.2829 64.6712 21.4863 65.009 21.2033 65.709C20.9203 66.409 21.2584 67.2059 21.9584 67.4891L22.0007 67.5058C22.1619 67.5674 22.3278 67.5967 22.4911 67.5967C23.0418 67.5967 23.5623 67.2634 23.7706 66.7196C24.0408 66.0143 23.6923 65.2254 22.9871 64.9554Z" fill="#9ACC10"/>
<path d="M48.1009 2.53515L48.0766 2.52544C47.3756 2.2449 46.5799 2.58601 46.2994 3.2871C46.0189 3.9882 46.36 4.78363 47.0611 5.06418L47.0766 5.07047C47.2445 5.13828 47.4178 5.17027 47.5884 5.17027C48.1292 5.17027 48.6414 4.8472 48.8564 4.31496C49.1393 3.61482 48.8011 2.81802 48.1009 2.53515Z" fill="#9ACC10"/>
</g>
<defs>
<clipPath id="clip0">
<rect width="70" height="70" fill="white"/>
</clipPath>
</defs>
</svg>
