<svg width="68" height="68" viewBox="0 0 68 68" fill="none" xmlns="http://www.w3.org/2000/svg">
<path d="M24.622 65.7329C24.3751 65.4859 24.0325 65.3438 23.683 65.3438C23.3337 65.3438 22.9911 65.4859 22.7442 65.7329C22.4972 65.9799 22.3549 66.3226 22.3549 66.6719C22.3549 67.0212 22.497 67.3638 22.7442 67.6109C22.9911 67.8579 23.3337 68 23.683 68C24.0325 68 24.3751 67.8579 24.622 67.6109C24.8691 67.3638 25.0112 67.0212 25.0112 66.6719C25.0112 66.3226 24.8692 65.9799 24.622 65.7329Z" fill="#9ACC10"/>
<path d="M47.1381 55.1398C46.4047 55.1398 45.81 55.7344 45.81 56.4679C45.81 58.9393 43.7993 60.95 41.3279 60.95C40.5946 60.95 39.9998 61.5446 39.9998 62.2782C39.9998 63.0117 40.5946 63.6063 41.3279 63.6063C45.264 63.6063 48.4662 60.4041 48.4662 56.4679C48.4662 55.7344 47.8715 55.1398 47.1381 55.1398Z" fill="#9ACC10"/>
<path d="M56.8438 0C50.6923 0 45.6875 5.00464 45.6875 11.1562V27.0938C45.6875 32.7957 49.9882 37.5092 55.5156 38.1682V49.8047H50.7353C48.6438 46.8604 45.2065 44.9356 41.3279 44.9356C40.3124 44.9356 39.3272 45.0682 38.3884 45.3158L33.9586 34H39.3596C39.6716 34 39.946 34.1992 40.0426 34.4961C40.141 34.7987 40.0209 35.0294 39.9406 35.1399C39.8604 35.2506 39.678 35.436 39.3596 35.436H38.002C37.2686 35.436 36.6739 36.0306 36.6739 36.7641C36.6739 37.4976 37.2686 38.0922 38.002 38.0922H39.3596C40.4524 38.0922 41.4475 37.5851 42.0897 36.701C42.7319 35.817 42.9064 34.7139 42.5687 33.6749C42.1154 32.2806 40.8259 31.3438 39.3595 31.3438H32.0122C31.5731 31.3438 31.1627 31.5606 30.9152 31.9232C30.6676 32.2858 30.6154 32.7473 30.7754 33.156L33.2698 39.5275H22.2321L21.2326 37.2412L20.855 36.2789C20.6555 35.7704 20.1651 35.436 19.6187 35.436H13.8437C12.7273 35.436 11.6851 35.9866 11.0562 36.9091C10.4272 37.8316 10.2952 39.0029 10.7031 40.0423C11.2136 41.3431 12.4464 42.1838 13.8437 42.1838H18.2454L16.1091 45.8839C14.7051 45.2745 13.1575 44.9356 11.532 44.9356C5.17331 44.9358 0 50.1091 0 56.4679C0 60.0339 1.62709 63.2267 4.17775 65.3438H1.32812C0.594734 65.3438 0 65.9384 0 66.6719C0 67.4054 0.594734 68 1.32812 68H11.5321C17.4417 68 22.3266 63.5315 22.9873 57.796H28.1885C28.6366 57.796 29.0546 57.57 29.2999 57.195C29.5453 56.82 29.5849 56.3465 29.4055 55.936L23.3935 42.1839H34.3097L35.9161 46.2872C32.2777 48.229 29.7957 52.0638 29.7957 56.4679C29.7957 60.0339 31.4228 63.2267 33.9734 65.3438H29.2613C28.5279 65.3438 27.9331 65.9384 27.9331 66.6719C27.9331 67.4054 28.5279 68 29.2613 68H41.3278C47.6866 68 52.8599 62.8267 52.8599 56.4679C52.8599 55.0595 52.6057 53.7096 52.1415 52.4611H61.6691C62.4025 52.4611 62.9972 51.8665 62.9972 51.1329C62.9972 50.3994 62.4025 49.8048 61.6691 49.8048H58.1719V38.1683C63.6993 37.5093 68 32.7958 68 27.0939V11.1562C68 5.00464 62.9952 0 56.8438 0ZM13.8437 39.5277C13.5465 39.5277 13.2843 39.3488 13.1757 39.0721C13.0552 38.7649 13.171 38.5227 13.2508 38.4057C13.3307 38.2886 13.5137 38.0924 13.8437 38.0924H18.7131L19.2764 39.5277H13.8437ZM11.5321 65.3438C6.63784 65.3438 2.65625 61.362 2.65625 56.4679C2.65625 51.5738 6.63784 47.592 11.5321 47.592C12.674 47.592 13.7651 47.8112 14.7687 48.2058L10.382 55.8038C10.1447 56.2148 10.1447 56.721 10.382 57.132C10.6192 57.5429 11.0577 57.796 11.5321 57.796H15.8133C15.2459 59.621 13.5413 60.95 11.5321 60.95C10.7987 60.95 10.204 61.5446 10.204 62.2782C10.204 63.0117 10.7987 63.6063 11.5321 63.6063C15.0143 63.6063 17.9203 61.0995 18.5447 57.796H20.3084C19.6654 62.0624 15.975 65.3438 11.5321 65.3438ZM13.8324 55.1398L17.0673 49.5369C18.7738 50.9025 19.9681 52.8825 20.3084 55.1398H13.8324ZM26.1584 55.1398H22.9873C22.6144 51.9029 20.8966 49.0696 18.4077 47.2152L20.8469 42.9903L26.1584 55.1398ZM41.3279 65.3438C36.4337 65.3438 32.4519 61.362 32.4519 56.4679C32.4519 53.1884 34.2413 50.3207 36.8936 48.784L40.0912 56.9521C40.2962 57.4761 40.7975 57.7964 41.3282 57.7964C41.4892 57.7964 41.6529 57.7669 41.812 57.7046C42.4951 57.4372 42.832 56.6668 42.5645 55.9837L39.366 47.8132C39.9977 47.67 40.6536 47.5919 41.3279 47.5919C46.2222 47.5919 50.2038 51.5736 50.2038 56.4678C50.2038 61.3619 46.2221 65.3438 41.3279 65.3438ZM65.3438 27.0938C65.3438 31.3289 62.2301 34.8497 58.1719 35.4894V29.9665L61.7109 26.1881C62.2123 25.6527 62.1848 24.8123 61.6494 24.3109C61.1143 23.8096 60.2738 23.8371 59.7721 24.3723L58.1719 26.0807V21.8078L61.7109 18.0294C62.2123 17.4941 62.1848 16.6536 61.6494 16.1521C61.1143 15.6508 60.2738 15.6783 59.7721 16.2135L58.1719 17.9221V15.6055C58.1719 14.8719 57.5771 14.2773 56.8438 14.2773C56.1104 14.2773 55.5156 14.8719 55.5156 15.6055V21.5858L54.1483 20.126C53.6468 19.5906 52.8064 19.5633 52.271 20.0646C51.7356 20.566 51.7082 21.4066 52.2095 21.9418L55.5156 25.4714V35.4892C51.4574 34.8496 48.3438 31.3287 48.3438 27.0936V11.1562C48.3438 6.4693 52.1568 2.65625 56.8438 2.65625C61.5307 2.65625 65.3438 6.4693 65.3438 11.1562V27.0938Z" fill="#9ACC10"/>
<path d="M66.6718 49.8047H66.6544C65.921 49.8047 65.3263 50.3993 65.3263 51.1328C65.3263 51.8663 65.921 52.4609 66.6544 52.4609H66.6718C67.4052 52.4609 68 51.8663 68 51.1328C68 50.3993 67.4052 49.8047 66.6718 49.8047Z" fill="#9ACC10"/>
<path d="M31.72 18.4167H29.5164C30.0393 17.3545 30.3206 16.1763 30.3206 14.9722C30.3206 10.6711 26.8214 7.172 22.5204 7.172C19.3174 7.172 16.5136 9.12527 15.3259 11.958C14.5641 11.5916 13.7221 11.3949 12.8606 11.3949C9.72387 11.3948 7.17188 13.9468 7.17188 17.0835C7.17188 18.3517 7.58134 19.5525 8.35577 20.5562C8.60731 20.882 8.99552 21.0729 9.40724 21.0729H31.72C32.4534 21.0729 33.0481 20.4783 33.0481 19.7448C33.0481 19.0113 32.4534 18.4167 31.72 18.4167ZM26.3395 18.4166H10.136C9.93345 18.0051 9.82812 17.553 9.82812 17.0835C9.82812 15.4114 11.1885 14.051 12.8606 14.051C13.7177 14.051 14.539 14.4166 15.1138 15.0543C15.4619 15.4404 16.003 15.5879 16.4989 15.4317C16.9947 15.2757 17.3539 14.8448 17.4182 14.329C17.7375 11.7631 19.9309 9.82811 22.5202 9.82811C25.3566 9.82811 27.6642 12.1357 27.6642 14.9721C27.6642 16.2457 27.1865 17.4761 26.3395 18.4166Z" fill="#9ACC10"/>
</svg>
