<svg width="71" height="71" viewBox="0 0 71 71" fill="none" xmlns="http://www.w3.org/2000/svg">
<g clip-path="url(#clip0)">
<path d="M35.5 57.4286C34.913 57.4286 34.3751 57.044 34.1868 56.4875C33.9986 55.9317 34.189 55.2987 34.656 54.942C35.1045 54.5997 35.7281 54.5661 36.2125 54.8537C36.7089 55.1485 36.9741 55.7479 36.8591 56.3136C36.729 56.9531 36.1541 57.4286 35.5 57.4286Z" fill="#9ACC10"/>
<path d="M26.9757 47.7232C26.3349 47.7232 25.7018 47.5215 25.1602 47.128C24.273 46.4833 23.7997 45.446 23.8945 44.3535L24.581 36.4443L19.3767 30.4491C18.6577 29.6209 18.4309 28.5037 18.7698 27.4606C19.1087 26.4175 19.9489 25.6469 21.0175 25.3995L28.7516 23.6083L32.8452 16.8061C33.4109 15.8664 34.4032 15.3053 35.5001 15.3053C36.597 15.3053 37.5892 15.8664 38.155 16.806L42.2486 23.6083L49.9827 25.3995C51.0513 25.647 51.8915 26.4175 52.2305 27.4606C52.5694 28.5037 52.3425 29.621 51.6235 30.4492L46.4193 36.4443L47.1057 44.3535C47.2006 45.446 46.7273 46.4833 45.84 47.128C44.9528 47.7727 43.8201 47.9023 42.8101 47.4743L35.5 44.3776L28.1899 47.4745C27.7966 47.6411 27.3845 47.7232 26.9757 47.7232ZM35.5 18.0787C35.4162 18.0787 35.2999 18.1061 35.2215 18.2363L30.8251 25.5418C30.6315 25.8635 30.3156 26.093 29.9496 26.1777L21.6431 28.1015C21.4952 28.1358 21.4332 28.238 21.4074 28.3177C21.3814 28.3974 21.3715 28.5166 21.4711 28.6311L27.0605 35.0701C27.3067 35.3536 27.4273 35.7249 27.3949 36.099L26.6577 44.5935C26.6445 44.7448 26.7226 44.8353 26.7904 44.8846C26.8584 44.9339 26.9687 44.98 27.1081 44.9209L34.9592 41.5946C35.3047 41.4481 35.6954 41.4481 36.0409 41.5946L43.8918 44.9206C44.0319 44.98 44.1419 44.9337 44.2097 44.8843C44.2775 44.8351 44.3556 44.7445 44.3424 44.5932L43.6052 36.0987C43.5729 35.7246 43.6934 35.3534 43.9395 35.0698L49.529 28.631C49.6286 28.5163 49.6186 28.3972 49.5926 28.3174C49.5667 28.2377 49.5049 28.1355 49.357 28.1012L41.0505 26.1774C40.6845 26.0927 40.3687 25.8632 40.175 25.5415L35.7786 18.236C35.7002 18.1061 35.5839 18.0787 35.5 18.0787Z" fill="#9ACC10"/>
<path d="M70.3338 34.9602C70.1282 34.8351 65.2513 31.9171 61.3728 33.6862C61.037 33.8394 60.7227 34.0214 60.429 34.2259C60.4606 33.6311 60.4704 33.0333 60.4577 32.4338C60.6968 32.446 60.9625 32.4539 61.2489 32.4539C63.2105 32.4539 66.1334 32.0804 67.9832 30.1234C70.9111 27.0259 69.7271 21.4671 69.6753 21.2319C69.5528 20.677 69.1041 20.2526 68.543 20.1617C68.3055 20.1231 62.689 19.2532 59.7608 22.351C59.2941 22.8447 58.9319 23.4009 58.6529 23.988C58.2834 23.5709 57.6818 23.4019 57.1281 23.6092C56.411 23.8779 56.0474 24.6771 56.3162 25.3943C60.4823 36.5148 54.85 48.9454 43.7591 53.1312C42.3283 53.4889 41.304 53.9736 41.2097 54.0191C40.6976 54.2656 40.3876 54.7998 40.428 55.3668C40.445 55.607 40.8882 61.273 44.5756 63.4116C45.6954 64.0612 46.9486 64.2893 48.1577 64.2893C50.9295 64.2893 53.4669 63.0893 53.618 63.0167C54.13 62.7701 54.4399 62.236 54.3996 61.6691C54.3825 61.4289 53.9395 55.7627 50.252 53.6242C50.0213 53.4903 49.785 53.3744 49.5445 53.2747C50.1123 52.9 50.6611 52.5034 51.1899 52.0864C52.1947 53.7508 54.1622 56.308 56.9969 56.8474C57.3762 56.9197 57.7538 56.9524 58.1279 56.9524C61.8845 56.9521 65.2436 53.6351 65.3983 53.4802C65.7999 53.0779 65.9154 52.4714 65.6897 51.9497C65.594 51.7288 63.2993 46.5291 59.1118 45.7325C58.3426 45.5862 57.5782 45.6014 56.8419 45.725C57.3303 44.9297 57.7726 44.1074 58.1667 43.2627C59.3185 43.8059 61.2626 44.5482 63.2857 44.5482C64.2199 44.5482 65.1715 44.3897 66.069 43.9804C69.9471 42.2112 70.9402 36.6152 70.9806 36.3778C71.0757 35.8172 70.8194 35.2554 70.3338 34.9602ZM61.7762 24.2564C63.0437 22.9153 65.5337 22.7275 67.1096 22.8042C67.2586 24.2112 67.311 26.797 65.9676 28.2182C64.6982 29.5613 62.2021 29.7473 60.6272 29.67C60.4611 28.1008 60.507 25.599 61.7762 24.2564ZM51.4997 60.8875C50.0105 61.4095 47.565 61.9392 45.9668 61.0125C44.3707 60.0867 43.616 57.7057 43.3288 56.1551C44.664 55.6868 47.1683 55.0418 48.8606 56.0232C50.4591 56.9503 51.2136 59.337 51.4997 60.8875ZM58.5932 48.4568C60.4086 48.8023 61.911 50.8044 62.6944 52.1725C61.5997 53.0481 59.7956 54.1794 58.134 54.1793C57.9249 54.1793 57.7179 54.1614 57.515 54.1227C55.7024 53.7778 54.2016 51.7811 53.4172 50.4131C54.5219 49.5292 56.6706 48.091 58.5932 48.4568ZM64.9177 41.4568C63.2384 42.2225 60.8603 41.4599 59.4298 40.7967C59.8207 39.4369 60.7444 37.0212 62.524 36.2095C64.203 35.4434 66.5812 36.2063 68.0119 36.8695C67.6208 38.2294 66.6971 40.645 64.9177 41.4568Z" fill="#9ACC10"/>
<path d="M29.7907 54.0191C29.6966 53.9738 28.6719 53.489 27.2408 53.1311C16.1503 48.9451 10.5181 36.5147 14.6842 25.3944C14.953 24.6772 14.5892 23.878 13.8723 23.6092C13.3187 23.4019 12.717 23.571 12.3475 23.9881C12.0685 23.401 11.7063 22.8447 11.2396 22.3512C8.31143 19.2536 2.6948 20.1233 2.45726 20.1619C1.89619 20.2528 1.44745 20.677 1.325 21.2321C1.27314 21.4673 0.0891567 27.026 3.01707 30.1236C4.8671 32.0807 7.78974 32.4542 9.7514 32.4542C10.0376 32.4542 10.3034 32.4462 10.5425 32.434C10.5299 33.0335 10.5396 33.6312 10.5712 34.2261C10.2774 34.0214 9.96329 33.8395 9.62742 33.6864C5.74988 31.9172 0.872098 34.8353 0.666448 34.9604C0.180819 35.2556 -0.0755854 35.8175 0.0198208 36.3779C0.0601743 36.6151 1.05334 42.2111 4.93144 43.9804C5.8292 44.3901 6.78021 44.5483 7.71472 44.5483C9.73753 44.5483 11.6818 43.806 12.8337 43.2628C13.2279 44.1074 13.6703 44.9298 14.1587 45.725C13.4223 45.6015 12.658 45.5862 11.8886 45.7325C7.70127 46.5292 5.40653 51.7288 5.31071 51.9497C5.08495 52.4714 5.20046 53.078 5.60206 53.4803C5.75668 53.6353 9.11545 56.9525 12.8725 56.9525C13.2463 56.9525 13.6245 56.9196 14.0035 56.8475C16.8384 56.3082 18.8057 53.7508 19.8105 52.0865C20.3393 52.5035 20.888 52.9001 21.4559 53.2748C21.2154 53.3745 20.979 53.4904 20.7482 53.6242C17.0608 55.7627 16.6177 61.4289 16.6007 61.6691C16.5603 62.236 16.8701 62.7702 17.3822 63.0167C17.5334 63.0895 20.0705 64.2893 22.8426 64.2893C24.0514 64.2893 25.305 64.0611 26.4246 63.4117C30.112 61.2731 30.5552 55.6071 30.5723 55.3669C30.6126 54.7997 30.3028 54.2656 29.7907 54.0191ZM6.08242 41.4569C4.40116 40.6899 3.4177 38.3881 2.98185 36.8728C4.41295 36.2083 6.79519 35.4425 8.47631 36.2095C10.1576 36.9765 11.141 39.2783 11.5769 40.7936C10.1458 41.4583 7.76354 42.2239 6.08242 41.4569ZM10.3731 29.67C8.79844 29.7471 6.3018 29.561 5.03253 28.2184C3.76313 26.8754 3.71751 24.3728 3.88336 22.8048C5.4595 22.7276 7.95462 22.9138 9.22403 24.2564C10.4934 25.5995 10.5391 28.1021 10.3731 29.67ZM13.4851 54.1229C13.282 54.1616 13.0755 54.1795 12.8661 54.1795C11.2043 54.1793 9.39931 53.0476 8.30574 52.173C9.08993 50.8036 10.592 48.8023 12.407 48.457C14.2226 48.1117 16.3551 49.422 17.5864 50.407C16.8022 51.7763 15.2999 53.7774 13.4851 54.1229ZM25.0333 61.0125C23.4371 61.9381 20.9959 61.4109 19.5071 60.8901C19.7638 59.4986 20.4477 57.0043 22.1395 56.0232C23.3464 55.3234 25.0364 55.4541 26.4325 55.7846C26.4651 55.7937 26.4977 55.8015 26.5304 55.8082C26.9438 55.9097 27.3292 56.0278 27.6659 56.1455C27.4093 57.5371 26.7251 60.0313 25.0333 61.0125Z" fill="#9ACC10"/>
<path d="M50.9202 18.4323C50.5648 18.4323 50.2096 18.2965 49.9388 18.0251C49.3977 17.4831 49.3985 16.605 49.9406 16.064L51.763 14.2451C52.3051 13.7041 53.183 13.7048 53.7241 14.2469C54.2652 14.7889 54.2644 15.667 53.7223 16.208L51.8999 18.0269C51.6291 18.2972 51.2746 18.4323 50.9202 18.4323Z" fill="#9ACC10"/>
<path d="M20.08 18.4322C19.7254 18.4322 19.3711 18.2971 19.1004 18.027L17.278 16.208C16.7359 15.6671 16.7351 14.789 17.2762 14.2469C17.817 13.7049 18.6952 13.704 19.2373 14.2451L21.0597 16.0641C21.6017 16.605 21.6026 17.4831 21.0615 18.0252C20.7907 18.2964 20.4352 18.4322 20.08 18.4322Z" fill="#9ACC10"/>
<path d="M35.5 12.0568C34.7342 12.0568 34.1133 11.4359 34.1133 10.67V8.09754C34.1133 7.33165 34.7342 6.71082 35.5 6.71082C36.2657 6.71082 36.8867 7.33165 36.8867 8.09754V10.67C36.8867 11.4359 36.2659 12.0568 35.5 12.0568Z" fill="#9ACC10"/>
</g>
<defs>
<clipPath id="clip0">
<rect width="71" height="71" fill="white"/>
</clipPath>
</defs>
</svg>
