<svg width="58" height="58" viewBox="0 0 58 58" fill="none" xmlns="http://www.w3.org/2000/svg">
<path d="M17.504 16.5088H12.0665C11.4408 16.5088 10.9337 17.0159 10.9337 17.6416V23.9854C10.9337 24.611 11.4408 25.1182 12.0665 25.1182H17.504C18.1297 25.1182 18.6368 24.611 18.6368 23.9854V17.6416C18.6368 17.0159 18.1297 16.5088 17.504 16.5088ZM16.3712 22.8525H13.1993V18.7744H16.3712V22.8525Z" fill="#9ACC10"/>
<path d="M17.504 29.1963H12.0665C11.4408 29.1963 10.9337 29.7034 10.9337 30.3291V36.6729C10.9337 37.2985 11.4408 37.8057 12.0665 37.8057H17.504C18.1297 37.8057 18.6368 37.2985 18.6368 36.6729V30.3291C18.6368 29.7034 18.1297 29.1963 17.504 29.1963ZM16.3712 35.54H13.1993V31.4619H16.3712V35.54Z" fill="#9ACC10"/>
<path d="M17.504 41.8838H12.0665C11.4408 41.8838 10.9337 42.3909 10.9337 43.0166V49.3603C10.9337 49.986 11.4408 50.4932 12.0665 50.4932H17.504C18.1297 50.4932 18.6368 49.986 18.6368 49.3603V43.0166C18.6368 42.3909 18.1297 41.8838 17.504 41.8838ZM16.3712 48.2275H13.1993V44.1494H16.3712V48.2275Z" fill="#9ACC10"/>
<path d="M47.068 41.8838H41.6305C41.0049 41.8838 40.4977 42.3909 40.4977 43.0166V49.3603C40.4977 49.986 41.0049 50.4932 41.6305 50.4932H47.068C47.6937 50.4932 48.2008 49.986 48.2008 49.3603V43.0166C48.2008 42.3909 47.6937 41.8838 47.068 41.8838ZM45.9352 48.2275H42.7633V44.1494H45.9352V48.2275Z" fill="#9ACC10"/>
<path d="M27.3587 16.5088H21.9212C21.2955 16.5088 20.7884 17.0159 20.7884 17.6416V23.9854C20.7884 24.611 21.2955 25.1182 21.9212 25.1182H27.3587C27.9843 25.1182 28.4915 24.611 28.4915 23.9854V17.6416C28.4915 17.0159 27.9843 16.5088 27.3587 16.5088ZM26.2259 22.8525H23.054V18.7744H26.2259V22.8525Z" fill="#9ACC10"/>
<path d="M37.2132 16.5088H31.7757C31.1501 16.5088 30.6429 17.0159 30.6429 17.6416V23.9854C30.6429 24.611 31.1501 25.1182 31.7757 25.1182H37.2132C37.8389 25.1182 38.346 24.611 38.346 23.9854V17.6416C38.346 17.0159 37.8389 16.5088 37.2132 16.5088ZM36.0804 22.8525H32.9085V18.7744H36.0804V22.8525Z" fill="#9ACC10"/>
<path d="M27.3587 29.1963H21.9212C21.2955 29.1963 20.7884 29.7034 20.7884 30.3291V36.6729C20.7884 37.2985 21.2955 37.8057 21.9212 37.8057H27.3587C27.9843 37.8057 28.4915 37.2985 28.4915 36.6729V30.3291C28.4915 29.7034 27.9843 29.1963 27.3587 29.1963ZM26.2259 35.54H23.054V31.4619H26.2259V35.54Z" fill="#9ACC10"/>
<path d="M37.2132 29.1963H31.7757C31.1501 29.1963 30.6429 29.7034 30.6429 30.3291V36.6729C30.6429 37.2985 31.1501 37.8057 31.7757 37.8057H37.2132C37.8389 37.8057 38.346 37.2985 38.346 36.6729V30.3291C38.346 29.7034 37.8389 29.1963 37.2132 29.1963ZM36.0804 35.54H32.9085V31.4619H36.0804V35.54Z" fill="#9ACC10"/>
<path d="M47.068 16.5088H41.6305C41.0049 16.5088 40.4977 17.0159 40.4977 17.6416V23.9854C40.4977 24.611 41.0049 25.1182 41.6305 25.1182H47.068C47.6937 25.1182 48.2008 24.611 48.2008 23.9854V17.6416C48.2008 17.0159 47.6937 16.5088 47.068 16.5088ZM45.9352 22.8525H42.7633V18.7744H45.9352V22.8525Z" fill="#9ACC10"/>
<path d="M47.068 29.1963H41.6305C41.0049 29.1963 40.4977 29.7034 40.4977 30.3291V36.6729C40.4977 37.2985 41.0049 37.8057 41.6305 37.8057H47.068C47.6937 37.8057 48.2008 37.2985 48.2008 36.6729V30.3291C48.2008 29.7034 47.6937 29.1963 47.068 29.1963ZM45.9352 35.54H42.7633V31.4619H45.9352V35.54Z" fill="#9ACC10"/>
<path d="M56.8672 55.7344H52.6179V11.7884C52.6179 11.1627 52.1107 10.6556 51.4851 10.6556H45.1977V6.57031C45.1977 5.94466 44.6906 5.4375 44.0649 5.4375H37.8359V1.13281C37.8359 0.50716 37.3288 0 36.7031 0H21.2969C20.6712 0 20.1641 0.50716 20.1641 1.13281V5.4375H13.9352C13.3095 5.4375 12.8024 5.94466 12.8024 6.57031V10.6556H6.51492C5.88927 10.6556 5.38211 11.1627 5.38211 11.7884V55.7344H1.13281C0.50716 55.7344 0 56.2415 0 56.8672C0 57.4928 0.50716 58 1.13281 58H56.8672C57.4928 58 58 57.4928 58 56.8672C58 56.2415 57.4928 55.7344 56.8672 55.7344ZM22.4297 2.26562H35.5703V5.4375H22.4297V2.26562ZM33.7578 55.7344H25.9198L33.7578 47.8963V55.7344ZM33.7578 44.6993C33.7326 44.7205 33.7076 44.7424 33.6838 44.7661L24.2422 54.2078V49.4067L31.5084 42.1406H33.7578V44.6993ZM24.2422 46.2025V42.1406H28.3041L24.2422 46.2025ZM50.3523 55.7344H42.7648H36.0234V42.1406H36.4199C37.0456 42.1406 37.5527 41.6335 37.5527 41.0078C37.5527 40.3822 37.0456 39.875 36.4199 39.875H21.5801C20.9544 39.875 20.4473 40.3822 20.4473 41.0078C20.4473 41.6335 20.9544 42.1406 21.5801 42.1406H21.9766V55.7344H7.64773V12.9212H20.2227C20.8484 12.9212 21.3556 12.414 21.3556 11.7884C21.3556 11.1627 20.8484 10.6556 20.2227 10.6556H15.068V7.70312H42.9321V10.6556H29.1726C28.547 10.6556 28.0398 11.1627 28.0398 11.7884C28.0398 12.414 28.547 12.9212 29.1726 12.9212H50.3523V55.7344Z" fill="#9ACC10"/>
<path d="M25.4407 10.9871C25.23 10.7764 24.9377 10.6552 24.6398 10.6552C24.3419 10.6552 24.0496 10.7764 23.8389 10.9871C23.6282 11.1978 23.507 11.49 23.507 11.788C23.507 12.0859 23.6282 12.3782 23.8389 12.5889C24.0496 12.8007 24.3419 12.9208 24.6398 12.9208C24.9377 12.9208 25.23 12.8007 25.4407 12.5889C25.6514 12.3782 25.7726 12.0859 25.7726 11.788C25.7726 11.49 25.6514 11.1978 25.4407 10.9871Z" fill="#9ACC10"/>
</svg>
