<svg width="68" height="74" viewBox="0 0 68 74" fill="none" xmlns="http://www.w3.org/2000/svg">
<path d="M66.6419 16.2469C62.4559 15.3584 58.4855 14.1899 54.8415 12.7738C54.0978 12.4847 53.2601 12.8534 52.9709 13.5975C52.6818 14.3415 53.0507 15.1791 53.7946 15.4681C57.2484 16.8102 60.9779 17.9372 64.8966 18.8234V36.4775C64.8966 39.9484 63.0817 44.568 59.901 49.5149V46.773C59.901 41.3255 56.9494 38.6343 54.1205 37.0984C54.9728 35.7006 55.4642 34.0602 55.4642 32.307C55.4642 27.2156 51.3203 23.0735 46.2268 23.0735C41.1355 23.0735 36.9935 27.2156 36.9935 32.307C36.9935 34.0582 37.4835 35.6969 38.3335 37.0935C36.7273 37.9572 35.1158 39.1675 34.0007 41.0418C32.887 39.1691 31.2757 37.9588 29.6691 37.0948C30.52 35.6979 31.0105 34.0586 31.0105 32.307C31.0105 27.2156 26.8666 23.0735 21.7732 23.0735C16.6818 23.0735 12.5398 27.2156 12.5398 32.307C12.5398 34.0596 13.0308 35.6996 13.8821 37.0971C11.0543 38.6323 8.10302 41.3232 8.10302 46.773V49.5211C4.91972 44.5721 3.10325 39.95 3.10325 36.4775V18.8228C19.6541 15.0728 28.0077 8.18491 32.5424 4.44588C33.0722 4.00897 33.559 3.6076 34.0019 3.25769C34.4447 3.60804 34.9321 4.01012 35.4624 4.44776C37.1537 5.84365 39.2588 7.58091 42.069 9.44276C42.7346 9.88358 43.6314 9.70147 44.0722 9.0362C44.513 8.37078 44.3309 7.47396 43.6657 7.03314C40.9817 5.25497 38.9415 3.57133 37.3022 2.21851C36.3706 1.44961 35.5657 0.785487 34.8412 0.268788C34.3392 -0.0895054 33.665 -0.0893608 33.1629 0.268788C32.4386 0.785342 31.6346 1.44831 30.7037 2.21591C25.944 6.14037 17.978 12.7086 1.35717 16.2473C0.689866 16.3894 0.212769 16.9788 0.212769 17.661V36.4779C0.212769 39.803 1.4845 43.7704 3.99226 48.2699C6.20402 52.2379 9.27719 56.4114 12.8795 60.339C18.9369 66.9429 27.6669 74 34.0022 74C40.3354 74 49.064 66.9429 55.1209 60.3386C56.716 58.5993 58.2068 56.8119 59.5654 55.0153C59.5985 54.9756 62.7978 50.4398 64.0076 48.2695C66.5156 43.7699 67.7871 39.8024 67.7871 36.4775V17.6607C67.7872 16.978 67.3097 16.3886 66.6419 16.2469ZM46.2268 25.9641C49.7264 25.9641 52.5736 28.8095 52.5736 32.307C52.5736 35.8045 49.7264 38.6499 46.2268 38.6499C42.7295 38.6499 39.8841 35.8045 39.8841 32.307C39.8841 28.8095 42.7294 25.9641 46.2268 25.9641ZM34.0022 45.3546C36.4129 45.3546 38.3742 47.316 38.3742 49.7268C38.3742 52.1399 36.4129 54.1031 34.0022 54.1031C31.5912 54.1031 29.6299 52.1399 29.6299 49.7268C29.6299 47.316 31.5912 45.3546 34.0022 45.3546ZM21.7732 25.9641C25.2728 25.9641 28.1199 28.8095 28.1199 32.307C28.1199 35.8045 25.2728 38.6499 21.7732 38.6499C18.2759 38.6499 15.4305 35.8045 15.4305 32.307C15.4305 28.8095 18.2759 25.9641 21.7732 25.9641ZM23.4251 60.5304V66.1317C20.6814 64.0566 17.7941 61.4202 15.0099 58.3848C13.5571 56.8007 12.2151 55.2018 10.9938 53.6128V46.773C10.9938 42.506 13.2147 40.6085 15.8127 39.3508C17.4225 40.7151 19.5028 41.5404 21.7732 41.5404C24.0441 41.5404 26.1248 40.7156 27.735 39.3519C29.2758 40.0997 30.7858 41.1291 31.6894 42.8438C28.8155 43.812 26.7393 46.5306 26.7393 49.7269C26.7393 50.9703 27.0535 52.1416 27.6059 53.1661C25.5082 54.3855 23.4251 56.477 23.4251 60.5304ZM41.6883 68.1412C38.6944 70.0344 36.0067 71.1093 34.0022 71.1093C31.9974 71.1093 29.3097 70.0349 26.3157 68.1424V60.5304C26.3157 57.6578 27.7604 56.3112 29.4999 55.4228C30.7385 56.4052 32.3025 56.9938 34.0022 56.9938C35.7016 56.9938 37.2652 56.4052 38.5039 55.4232C40.2434 56.3131 41.6885 57.6604 41.6885 60.5304V68.1412H41.6883ZM57.0102 53.6077C55.7879 55.1983 54.4448 56.7991 52.9905 58.3848C50.2076 61.4194 47.3216 64.055 44.5791 66.1298V60.5304C44.5791 56.4796 42.4955 54.3875 40.3978 53.1669C40.9505 52.1422 41.2649 50.9708 41.2649 49.7269C41.2649 46.5298 39.1875 43.8106 36.3125 42.8429C37.218 41.1273 38.7272 40.0983 40.2667 39.351C41.8764 40.7151 43.9566 41.5404 46.2268 41.5404C48.4978 41.5404 50.5787 40.7154 52.189 39.3516C54.7883 40.6101 57.0102 42.508 57.0102 46.773V53.6077Z" fill="#9ACC10"/>
</svg>
