<svg width="63" height="62" viewBox="0 0 63 62" fill="none" xmlns="http://www.w3.org/2000/svg">
<g clip-path="url(#clip0)">
<path d="M48.882 21.9492C48.882 12.5168 41.0843 4.84302 31.4999 4.84302C21.9154 4.84302 14.1178 12.5168 14.1178 21.9492C14.1178 31.3816 21.9154 39.0553 31.4999 39.0553C41.0843 39.0553 48.882 31.3814 48.882 21.9492ZM46.421 21.9492C46.421 27.7099 43.0323 32.7055 38.1141 35.1092V8.7891C43.0324 11.1929 46.421 16.1885 46.421 21.9492ZM16.5788 21.9492C16.5788 16.1885 19.9675 11.1929 24.8856 8.78922V16.5005C24.8856 17.1693 25.4365 17.7114 26.1161 17.7114C26.7957 17.7114 27.3465 17.1693 27.3465 16.5005V7.84433C28.6656 7.4676 30.0591 7.26489 31.4999 7.26489C32.9406 7.26489 34.3341 7.4676 35.6532 7.84433V36.0538C34.3341 36.4306 32.9407 36.6333 31.4999 36.6333C30.059 36.6333 28.6655 36.4306 27.3465 36.0538V27.3988C27.3465 26.73 26.7957 26.1878 26.1161 26.1878C25.4365 26.1878 24.8856 26.73 24.8856 27.3988V35.1091C19.9675 32.7054 16.5788 27.7098 16.5788 21.9492Z" fill="#9ACC10"/>
<path d="M41.2574 49.0722C42.6365 47.6039 43.9633 46.0249 45.1351 44.4793C50.9196 36.8497 54.2372 28.8548 54.2372 22.5448C54.2372 16.6356 51.743 10.8013 47.3944 6.53797C43.0917 2.31967 37.4788 0 31.5889 0C31.533 0 31.4762 0 31.4201 0C25.5214 0 19.9079 2.31991 15.6053 6.53809C11.2567 10.8014 8.76252 16.6357 8.76252 22.5449C8.76252 28.8549 12.0801 36.8497 17.8647 44.4794C19.0366 46.0251 20.3634 47.6041 21.7425 49.0724C18.9486 50.4543 17.3767 52.3958 17.3767 54.5334C17.3767 56.69 18.9615 58.6467 21.8392 60.0429C24.4403 61.3049 27.8711 62 31.4999 62C35.1286 62 38.5595 61.3049 41.1605 60.0429C44.0382 58.6467 45.6231 56.6899 45.6231 54.5334C45.6231 52.3973 44.0508 50.4543 41.2574 49.0722ZM11.2236 22.5449C11.2236 17.2749 13.4538 12.066 17.3422 8.25387C21.1802 4.49113 26.177 2.42188 31.4297 2.42188H31.5793C36.8225 2.42188 41.8198 4.49137 45.6576 8.25387C49.5462 12.066 51.7763 17.275 51.7763 22.5449C51.7763 28.3441 48.6367 35.8109 43.1627 43.031C37.8401 50.0516 33.0568 53.3222 31.5 53.3222C29.9432 53.3222 25.1599 50.0514 19.8371 43.031C14.3631 35.8109 11.2236 28.3439 11.2236 22.5449ZM31.5 59.578C24.6273 59.578 19.8377 56.9193 19.8377 54.5332C19.8377 53.2444 21.251 51.8812 23.5611 50.911C26.4784 53.7018 29.43 55.7441 31.5 55.7441C33.57 55.7441 36.5216 53.7017 39.439 50.9107C41.7797 51.8893 43.1621 53.2254 43.1621 54.5331C43.1621 56.9193 38.3726 59.578 31.5 59.578Z" fill="#9ACC10"/>
<path d="M26.1161 23.161C26.7957 23.161 27.3465 22.6189 27.3465 21.9501V21.9492C27.3465 21.2804 26.7957 20.7388 26.1161 20.7388C25.4365 20.7388 24.8856 21.2813 24.8856 21.9501C24.8856 22.6189 25.4365 23.161 26.1161 23.161Z" fill="#9ACC10"/>
</g>
<defs>
<clipPath id="clip0">
<rect width="63" height="62" fill="white"/>
</clipPath>
</defs>
</svg>
