<svg width="68" height="68" viewBox="0 0 68 68" fill="none" xmlns="http://www.w3.org/2000/svg">
<path d="M56.4513 11.8766C54.3158 9.74113 51.6198 8.3377 48.6548 7.81787C45.7577 7.31026 42.8134 7.67536 40.1399 8.87399C39.4705 9.17415 39.1713 9.96 39.4715 10.6292C39.7714 11.2985 40.5571 11.5976 41.2267 11.2978C45.7235 9.28146 51.0871 10.2689 54.573 13.7549C56.8307 16.0125 58.074 19.0142 58.074 22.2069C58.074 25.3997 56.8306 28.4014 54.5729 30.6591C49.9124 35.3196 42.3292 35.3195 37.6687 30.6591C34.1869 27.1773 33.1933 22.0048 35.1375 17.4816C35.4272 16.8078 35.1157 16.0267 34.4419 15.7371C33.7676 15.447 32.9868 15.7589 32.6972 16.4327C31.5561 19.0874 31.229 21.9983 31.7513 24.8504C32.2863 27.7719 33.683 30.43 35.7904 32.5375C38.6385 35.3855 42.3797 36.8096 46.1209 36.8096C49.8621 36.8096 53.6031 35.3856 56.4511 32.5375C59.2106 29.7781 60.7302 26.1093 60.7302 22.207C60.7302 18.3047 59.2106 14.6361 56.4513 11.8766Z" fill="#9ACC10"/>
<path d="M37.7267 11.8297C37.211 11.3083 36.3702 11.3036 35.8485 11.8192L35.7923 11.8751C35.2728 12.3928 35.2712 13.2336 35.7889 13.7533C36.0484 14.0138 36.389 14.1441 36.7297 14.1441C37.0686 14.1441 37.4077 14.015 37.667 13.7568L37.7162 13.7079C38.2378 13.1922 38.2424 12.3512 37.7267 11.8297Z" fill="#9ACC10"/>
<path d="M46.1209 0C34.0566 0 24.2416 9.81498 24.2416 21.8793C24.2416 25.4413 25.1178 28.9778 26.7754 32.1064C27.1189 32.7545 27.9225 33.0015 28.5708 32.6582C29.2189 32.3147 29.4659 31.511 29.1226 30.8628C27.6672 28.1159 26.898 25.0095 26.898 21.8793C26.8979 11.2796 35.5212 2.65625 46.1209 2.65625C56.7205 2.65625 65.3438 11.2796 65.3438 21.8793C65.3438 26.3379 63.7827 30.6831 60.9479 34.1142C60.9064 34.1646 60.869 34.2173 60.8361 34.272L48.899 49.5651C48.1109 49.2725 47.2592 49.1121 46.3706 49.1121H45.0556C45.0529 49.1121 45.0503 49.1121 45.0475 49.1121H43.0793L39.2938 40.1949C38.3363 37.9395 36.1344 36.4821 33.6842 36.4821H18.1885C15.7383 36.4821 13.5365 37.9395 12.5789 40.1949L8.79338 49.1121H7.28556C3.26825 49.1119 0 52.3803 0 56.3976V63.1893C0 63.5419 0.14025 63.88 0.389805 64.1292C0.638828 64.3778 0.976438 64.5174 1.32812 64.5174C1.32879 64.5174 1.32959 64.5174 1.33025 64.5174L7.77923 64.5073C8.35749 66.5214 10.2151 68 12.4128 68C14.6106 68 16.4682 66.5213 17.0465 64.5069H38.2813C38.8597 66.5213 40.7174 68 42.9152 68C45.1126 68 46.9698 66.5219 47.5486 64.5082L52.3256 64.5173C52.3264 64.5173 52.3273 64.5173 52.3281 64.5173C52.6798 64.5173 53.0173 64.3777 53.2663 64.1292C53.5159 63.88 53.6562 63.5419 53.6562 63.1891V56.3975C53.6562 54.2283 52.7023 52.2787 51.1931 50.9429L63.0308 35.7772C63.0566 35.7441 63.0806 35.7102 63.1028 35.6753C66.262 31.79 68 26.8976 68 21.8793C68 9.81498 58.185 0 46.1209 0ZM50.3005 53.9547H47.5786L46.8892 51.7981C48.3279 51.9592 49.5688 52.7821 50.3005 53.9547ZM27.2645 39.1382H33.6842C35.0665 39.1382 36.3085 39.9604 36.8487 41.2327L40.1937 49.1119H27.2645V39.1382ZM2.65625 56.3976C2.65625 55.9487 2.72173 55.5152 2.84139 55.1044H4.5807C5.15512 55.1044 5.62248 55.5718 5.62248 56.1462C5.62248 56.7206 5.15512 57.188 4.5807 57.188H2.65625V56.3976ZM12.4128 65.3438C11.2189 65.3438 10.2477 64.3725 10.2477 63.1788C10.2477 61.9851 11.2189 61.0138 12.4128 61.0138C13.6066 61.0138 14.5778 61.9851 14.5778 63.1788C14.5778 64.3725 13.6066 65.3438 12.4128 65.3438ZM24.6083 61.8505H17.0466C16.4684 59.8361 14.6107 58.3574 12.4129 58.3574C10.215 58.3574 8.35723 59.8363 7.77909 61.8508L2.65625 61.859V59.8441H4.5807C6.61977 59.8441 8.27873 58.1852 8.27873 56.1461C8.27873 54.1996 6.76666 52.6007 4.85576 52.4593C5.56259 52.0216 6.39492 51.7681 7.2857 51.7681H24.6083V61.8505ZM24.6083 49.1119H11.679L15.024 41.2327C15.564 39.9604 16.8062 39.1382 18.1885 39.1382H24.6083V49.1119ZM42.9152 65.3438C41.7213 65.3438 40.7502 64.3725 40.7502 63.1788C40.7502 61.9851 41.7215 61.0138 42.9152 61.0138C44.1089 61.0138 45.0803 61.9851 45.0803 63.1788C45.0803 64.3725 44.109 65.3438 42.9152 65.3438ZM51 61.8583L47.5494 61.852C46.9715 59.8368 45.1135 58.3574 42.9152 58.3574C40.7174 58.3574 38.8597 59.8361 38.2815 61.8505H27.2645V51.7681H42.2004H44.0911L45.3438 55.6871C45.5198 56.2373 46.0312 56.6108 46.6088 56.6108H51V61.8583Z" fill="#9ACC10"/>
<path d="M47.2174 14.5186H43.3845C42.651 14.5186 42.0564 15.1132 42.0564 15.8467V19.6795V23.5125V29.0063C42.0564 29.7398 42.651 30.3344 43.3845 30.3344C44.118 30.3344 44.7126 29.7398 44.7126 29.0063V24.8406H47.2174C50.0631 24.8406 52.3784 22.5253 52.3784 19.6795C52.3784 16.8337 50.0631 14.5186 47.2174 14.5186ZM47.2174 22.1844H44.7126V19.6795V17.1748H47.2174C48.5985 17.1748 49.7222 18.2984 49.7222 19.6795C49.7222 21.0606 48.5986 22.1844 47.2174 22.1844Z" fill="#9ACC10"/>
<path d="M20.6929 54.8103C19.9593 54.8103 19.3647 55.4049 19.3647 56.1384V56.1541C19.3647 56.8876 19.9593 57.4822 20.6929 57.4822C21.4264 57.4822 22.021 56.8876 22.021 56.1541V56.1384C22.021 55.4049 21.4264 54.8103 20.6929 54.8103Z" fill="#9ACC10"/>
</svg>
