<svg width="64" height="64" viewBox="0 0 64 64" fill="none" xmlns="http://www.w3.org/2000/svg">
<path d="M62.75 13.6478H58.875C58.7144 13.6478 58.5614 13.6792 58.4202 13.7344C56.9484 6.39692 50.4554 0.852295 42.691 0.852295C34.9573 0.852295 28.4842 6.3533 26.9789 13.6478H1.25C0.55975 13.6478 0 14.2074 0 14.8978V61.8978C0 62.5881 0.55975 63.1478 1.25 63.1478H62.75C63.4403 63.1478 64 62.5881 64 61.8978V14.8978C64 14.2074 63.4403 13.6478 62.75 13.6478ZM42.691 3.3523C50.1584 3.3523 56.2336 9.42755 56.2336 16.8949C56.2336 20.0362 55.1339 23.0973 53.1371 25.5143C53.1021 25.5567 53.0703 25.601 53.0415 25.6468L42.6912 38.9068L32.2313 25.4997C32.2175 25.4807 32.203 25.462 32.1881 25.4437C30.2279 23.0384 29.1484 20.0024 29.1484 16.8948C29.1485 9.42742 35.2236 3.3523 42.691 3.3523ZM61.5 60.6479H56.2821V60.6478L36.2941 51.1409C35.6706 50.8441 34.9249 51.1093 34.6285 51.7328C34.332 52.3562 34.597 53.1019 35.2204 53.3984L50.4619 60.6477H4.59737L19.3804 45.8645L26.0767 49.0494C26.7001 49.3462 27.4459 49.0809 27.7424 48.4576C28.0389 47.8342 27.7739 47.0884 27.1505 46.7919L19.6574 43.2279C19.1795 43.0003 18.6106 43.0988 18.2366 43.4728L2.5 59.2096V54.2543C2.51925 54.2373 2.53875 54.2211 2.55713 54.2027L16.3839 40.3759C16.6182 40.1414 16.75 39.8236 16.75 39.4921V31.3258C16.75 30.6354 16.1903 30.0758 15.5 30.0758C14.8097 30.0758 14.25 30.6354 14.25 31.3258V38.9743L2.5 50.7243V16.1478H14.25V22.0845C14.25 22.7749 14.8097 23.3345 15.5 23.3345C16.1903 23.3345 16.75 22.7749 16.75 22.0845V16.1478H20.25V38.8439C20.25 39.3253 20.5264 39.7638 20.9608 39.9715L61.5 59.3602V60.6479ZM61.5001 56.5889L22.75 38.0563V16.1478H26.6664C26.655 16.3955 26.6484 16.6444 26.6484 16.8949C26.6485 20.561 27.9169 24.1433 30.2214 26.9875C30.2251 26.9925 30.229 26.9974 30.2327 27.0024L41.7055 41.7077C41.9425 42.0113 42.306 42.1888 42.691 42.1888C42.691 42.1888 42.691 42.1888 42.6911 42.1888C43.0761 42.1888 43.4396 42.0114 43.6765 41.7079L55.0947 27.0797C55.1152 27.0535 55.1345 27.0266 55.1526 26.9991C57.4629 24.1522 58.7337 20.5694 58.7337 16.8949C58.7337 16.6407 58.7271 16.3879 58.7154 16.1364C58.7677 16.1432 58.8209 16.1478 58.8751 16.1478H61.5001V56.5889Z" fill="#9ACC10"/>
<path d="M32.265 49.3047C32.0325 49.0722 31.71 48.9385 31.3813 48.9385C31.0525 48.9385 30.73 49.0721 30.4975 49.3047C30.2652 49.5371 30.1313 49.8596 30.1313 50.1885C30.1313 50.5172 30.265 50.8397 30.4975 51.0721C30.73 51.3046 31.0525 51.4385 31.3813 51.4385C31.71 51.4385 32.0325 51.3047 32.265 51.0721C32.4974 50.8397 32.6313 50.5172 32.6313 50.1885C32.6313 49.8596 32.4975 49.5371 32.265 49.3047Z" fill="#9ACC10"/>
<path d="M16.3836 25.3047C16.1513 25.0722 15.8288 24.9385 15.5 24.9385C15.1712 24.9385 14.8488 25.0722 14.6163 25.3047C14.3838 25.5372 14.25 25.8597 14.25 26.1885C14.25 26.5185 14.3836 26.8397 14.6163 27.0722C14.8488 27.3047 15.1712 27.4385 15.5 27.4385C15.8288 27.4385 16.1513 27.3047 16.3836 27.0722C16.6161 26.8397 16.75 26.5185 16.75 26.1885C16.75 25.8597 16.6163 25.5372 16.3836 25.3047Z" fill="#9ACC10"/>
<path d="M49.941 23.8138V8.77051C49.941 8.08013 49.3813 7.52051 48.691 7.52051H36.691C36.0008 7.52051 35.441 8.08013 35.441 8.77051V23.8139C34.904 23.9541 34.5071 24.441 34.5071 25.022C34.5073 25.7123 35.0669 26.2719 35.7573 26.2719H49.625C50.3153 26.2719 50.875 25.7123 50.875 25.0219C50.875 24.4409 50.478 23.954 49.941 23.8138ZM43.4515 23.7719H41.9306V21.7719H43.4515V23.7719ZM47.441 23.7719H45.9515V20.5219C45.9515 19.8315 45.3918 19.2719 44.7015 19.2719H40.6806C39.9904 19.2719 39.4306 19.8315 39.4306 20.5219V23.7719H37.941V10.0205H47.441V23.7719Z" fill="#9ACC10"/>
<path d="M41.5649 11.951C41.3325 11.7185 41.01 11.5847 40.6799 11.5847C40.3511 11.5847 40.0286 11.7185 39.7962 11.951C39.5637 12.1835 39.4299 12.506 39.4299 12.8347C39.4299 13.1635 39.5636 13.486 39.7962 13.7185C40.0286 13.951 40.3512 14.0847 40.6799 14.0847C41.01 14.0847 41.3311 13.951 41.5649 13.7185C41.7974 13.486 41.9299 13.1635 41.9299 12.8347C41.9299 12.506 41.7974 12.1835 41.5649 11.951Z" fill="#9ACC10"/>
<path d="M45.5849 11.951C45.3522 11.7185 45.03 11.5847 44.7011 11.5847C44.3724 11.5847 44.0499 11.7185 43.8175 11.951C43.585 12.1835 43.4511 12.506 43.4511 12.8347C43.4511 13.1635 43.5849 13.486 43.8175 13.7185C44.0499 13.951 44.3724 14.0847 44.7011 14.0847C45.03 14.0847 45.3524 13.951 45.5849 13.7185C45.8174 13.486 45.9511 13.1635 45.9511 12.8347C45.9511 12.5047 45.8175 12.1835 45.5849 11.951Z" fill="#9ACC10"/>
<path d="M41.5649 15.7947C41.3311 15.5622 41.01 15.4285 40.6799 15.4285C40.3511 15.4285 40.0286 15.5622 39.7962 15.7947C39.5637 16.0272 39.4299 16.3497 39.4299 16.6785C39.4299 17.0072 39.5636 17.3297 39.7962 17.5622C40.0286 17.7947 40.3512 17.9285 40.6799 17.9285C41.01 17.9285 41.3311 17.7947 41.5649 17.5622C41.7974 17.3297 41.9299 17.0072 41.9299 16.6785C41.9299 16.3497 41.7974 16.0272 41.5649 15.7947Z" fill="#9ACC10"/>
<path d="M45.5849 15.7947C45.3522 15.5622 45.0311 15.4285 44.7011 15.4285C44.3724 15.4285 44.0499 15.5622 43.8175 15.7947C43.585 16.0272 43.4511 16.3497 43.4511 16.6785C43.4511 17.0072 43.5849 17.3297 43.8175 17.5622C44.0499 17.7947 44.3724 17.9285 44.7011 17.9285C45.03 17.9285 45.3524 17.7947 45.5849 17.5622C45.8174 17.3297 45.9511 17.0072 45.9511 16.6785C45.9511 16.3485 45.8175 16.0272 45.5849 15.7947Z" fill="#9ACC10"/>
</svg>
