<svg width="36" height="35" viewBox="0 0 36 35" fill="none" xmlns="http://www.w3.org/2000/svg">
<path d="M35.5 17.5C35.5 26.8757 27.6784 34.5 18 34.5C8.32165 34.5 0.5 26.8757 0.5 17.5C0.5 8.12434 8.32165 0.5 18 0.5C27.6784 0.5 35.5 8.12434 35.5 17.5Z" stroke="#E6E6EC"/>
<path d="M16 14C16.8213 14.8676 18.6154 16.4596 19.4871 17.2085C19.5365 17.2509 20.081 17.7399 19.9897 17.7941C19.8196 17.8951 19.6372 17.9615 19.4717 18.0778C18.6822 18.6327 17.9506 19.4749 17.2117 20.1641C16.9407 20.4168 16.7024 20.7463 16.4193 20.9647C16.2494 21.0958 16.1526 21.3868 16 21.5" stroke="#1E2330" stroke-linecap="round"/>
</svg>
