<svg width="46" height="33" viewBox="0 0 46 33" fill="none" xmlns="http://www.w3.org/2000/svg">
<path d="M10.8031 1C15.8761 2.66944 20.9035 4.35713 26.0957 5.65029C31.731 7.05376 37.9875 7.85369 43.1247 10.6936C45.7704 12.1561 41.7052 13.3679 40.3199 14.0339C34.9285 16.626 29.3564 18.7025 24.0423 21.4842C20.396 23.3929 16.5689 26.0579 12.556 27.1825C11.2535 27.5475 10.0846 28.2022 9 29" stroke="white" stroke-width="2" stroke-linecap="round"/>
<path d="M3.50303 5C14.4765 10.7063 27.1812 11.4603 39.3003 11.5676C39.5037 11.5694 44.5436 11.0588 44.942 11.7703C45.3218 12.4485 43.7258 13.3657 43.3329 13.5338C29.2159 19.5745 15.2751 26.3354 1 32" stroke="white" stroke-width="2" stroke-linecap="round"/>
</svg>
