<svg width="46" height="33" viewBox="0 0 46 33" fill="none" xmlns="http://www.w3.org/2000/svg">
<path d="M35.1969 1C30.1239 2.66944 25.0965 4.35713 19.9043 5.65029C14.269 7.05376 8.01248 7.85369 2.87528 10.6936C0.229579 12.1561 4.29477 13.3679 5.68005 14.0339C11.0715 16.626 16.6436 18.7025 21.9577 21.4842C25.604 23.3929 29.4311 26.0579 33.444 27.1825C34.7465 27.5475 35.9154 28.2022 37 29" stroke="white" stroke-width="2" stroke-linecap="round"/>
<path d="M42.497 5C31.5235 10.7063 18.8188 11.4603 6.69971 11.5676C6.49626 11.5694 1.45641 11.0588 1.05797 11.7703C0.678154 12.4485 2.27421 13.3657 2.66706 13.5338C16.7841 19.5745 30.7249 26.3354 45 32" stroke="white" stroke-width="2" stroke-linecap="round"/>
</svg>
