<svg width="36" height="35" viewBox="0 0 36 35" fill="none" xmlns="http://www.w3.org/2000/svg">
<path d="M0.5 17.5C0.5 26.8757 8.32165 34.5 18 34.5C27.6784 34.5 35.5 26.8757 35.5 17.5C35.5 8.12434 27.6784 0.5 18 0.5C8.32165 0.5 0.5 8.12434 0.5 17.5Z" stroke="#E6E6EC"/>
<path d="M20 14C19.1787 14.8676 17.3846 16.4596 16.5129 17.2085C16.4635 17.2509 15.919 17.7399 16.0103 17.7941C16.1804 17.8951 16.3628 17.9615 16.5283 18.0778C17.3178 18.6327 18.0494 19.4749 18.7883 20.1641C19.0593 20.4168 19.2976 20.7463 19.5807 20.9647C19.7506 21.0958 19.8474 21.3868 20 21.5" stroke="#1E2330" stroke-linecap="round"/>
</svg>
