<svg width="24" height="34" viewBox="0 0 24 34" fill="none" xmlns="http://www.w3.org/2000/svg">
<path d="M1.18518 25.99C2.35997 22.42 3.54761 18.8823 4.45761 15.2284C5.44523 11.2629 6.00815 6.86016 8.00658 3.2451C9.03579 1.38331 9.88852 4.244 10.3572 5.21883C12.1812 9.01278 13.6425 12.9339 15.6 16.6735C16.9431 19.2394 18.8185 21.9325 19.6099 24.7564C19.8667 25.673 20.3275 26.4956 20.8889 27.2588" stroke="white" stroke-width="2" stroke-linecap="round"/>
<path d="M4 31.1273C8.01551 23.4052 8.54617 14.4649 8.62162 5.93662C8.62289 5.79345 8.26359 2.24689 8.76426 1.96651C9.24154 1.69923 9.88696 2.82238 10.0053 3.09883C14.2561 13.033 19.0138 22.8432 23 32.8887" stroke="white" stroke-width="2" stroke-linecap="round"/>
</svg>
