<svg width="51" height="60" viewBox="0 0 51 60" fill="none" xmlns="http://www.w3.org/2000/svg">
<g opacity="0.31" filter="url(#filter0_f)">
<path fill-rule="evenodd" clip-rule="evenodd" d="M15.4469 6.15062C17.8241 6.95811 22.8315 10.151 24.6868 16.8294C26.5703 23.6095 26.266 27.84 25.8785 29.1078L12.0169 24.87C10.8118 18.4554 12.0199 11.756 15.4469 6.15062Z" fill="#9ACC10"/>
<path fill-rule="evenodd" clip-rule="evenodd" d="M44.8839 45.3596C44.5951 41.9781 42.1276 34.5519 34.5674 31.8989C32.8791 31.3064 31.0704 30.7403 29.2367 30.1663C20.8064 27.5277 11.8469 24.7233 11.6194 18.4316C11.6154 18.4332 11.6114 18.4349 11.6075 18.4365C11.2554 24.4758 12.9614 30.6668 16.8849 35.8786C23.5803 44.7724 34.8021 48.2489 44.93 45.5157C44.9146 45.4621 44.8992 45.4101 44.8839 45.3596Z" fill="url(#paint0_linear)"/>
</g>
<defs>
<filter id="filter0_f" x="0.262939" y="0.856445" width="50.5878" height="58.6489" filterUnits="userSpaceOnUse" color-interpolation-filters="sRGB">
<feFlood flood-opacity="0" result="BackgroundImageFix"/>
<feBlend mode="normal" in="SourceGraphic" in2="BackgroundImageFix" result="shape"/>
<feGaussianBlur stdDeviation="2" result="effect1_foregroundBlur"/>
</filter>
<linearGradient id="paint0_linear" x1="19.1276" y1="38.8577" x2="34.318" y2="27.4221" gradientUnits="userSpaceOnUse">
<stop stop-color="#C1F531"/>
<stop offset="0.505208" stop-color="#ACD930"/>
<stop offset="0.807292" stop-color="#97C41B"/>
<stop offset="1" stop-color="#7BA30C"/>
</linearGradient>
</defs>
</svg>
