<svg width="11" height="13" viewBox="0 0 11 13" fill="none" xmlns="http://www.w3.org/2000/svg">
<path d="M9.80055 2.26842C8.84823 0.817256 7.27613 0.000976562 5.50753 0.000976562C3.75404 0.000976562 2.18195 0.817256 1.19939 2.26842C0.21683 3.68935 -0.00991404 5.5033 0.594737 7.09051C0.761016 7.51377 1.01799 7.95214 1.35055 8.34516L5.17497 12.8498C5.26567 12.9405 5.35637 13.001 5.49241 13.001C5.62846 13.001 5.71916 12.9405 5.80985 12.8498L9.64939 8.34516C9.98195 7.95214 10.254 7.52888 10.4052 7.09051C11.0099 5.5033 10.7831 3.68935 9.80055 2.26842ZM5.50753 7.61958C4.20753 7.61958 3.13427 6.54633 3.13427 5.24633C3.13427 3.94633 4.20753 2.87307 5.50753 2.87307C6.80753 2.87307 7.88078 3.94633 7.88078 5.24633C7.88078 6.54633 6.82264 7.61958 5.50753 7.61958Z" fill="#FBFBFE"/>
</svg>
