<svg width="700" height="440" viewBox="0 0 700 440" fill="none" xmlns="http://www.w3.org/2000/svg">
<mask id="mask0" mask-type="alpha" maskUnits="userSpaceOnUse" x="0" y="0" width="700" height="440">
<rect width="700" height="440" rx="6" fill="#FBFBFE"/>
</mask>
<g mask="url(#mask0)">
<circle opacity="0.1" cx="639.5" cy="62.5" r="159.5" fill="#9ACC10"/>
</g>
<path fill-rule="evenodd" clip-rule="evenodd" d="M656.855 82.3501C652.347 85.4212 640.262 89.941 626.245 84.4344C612.015 78.8441 605.069 72.7879 603.375 70.4586L628.844 51.9355C641.553 58.2259 651.603 69.0771 656.855 82.3501Z" fill="#9ACC10"/>
<path fill-rule="evenodd" clip-rule="evenodd" d="M550 124.65C554.508 121.579 566.593 117.059 580.61 122.566C594.84 128.156 601.785 134.212 603.479 136.541L578.01 155.064C565.301 148.774 555.251 137.923 550 124.65Z" fill="#9ACC10"/>
<path fill-rule="evenodd" clip-rule="evenodd" d="M550.331 82.2099C556.577 86.1274 572.692 91.5483 587.176 81.8923C590.41 79.7359 593.757 77.3363 597.149 74.9034C612.745 63.7185 629.32 51.8314 640.538 59.658C640.541 59.6488 640.543 59.6397 640.545 59.6305C630.523 51.1283 617.548 46 603.375 46C579.189 46 558.491 60.9354 550.001 82.0864C550.113 82.1295 550.223 82.1707 550.331 82.2099Z" fill="url(#paint0_linear)"/>
<g clip-path="url(#clip0)">
<path d="M631.116 86.1334C628.858 87.3021 627.922 89.5527 628.255 92.1991C628.355 92.9934 627.936 94.2372 627.308 94.6641C623.376 97.3355 619.363 99.9039 615.278 102.353C613.734 103.279 612.976 102.764 612.74 101.002C612.659 100.401 612.699 99.7818 612.714 99.1713C612.802 95.8734 613.056 92.5706 612.944 89.2796C612.905 88.1375 613.118 87.1674 613.542 86.3114C615.871 85.0089 618.324 84.0246 620.926 83.3512C622.864 85.0003 625.443 85.3237 627.671 84.0766C630.114 82.7084 631.112 79.8465 630.049 77.2521C629.084 74.8928 626.412 73.5212 623.726 74.0069C620.843 74.5275 619.124 76.6872 619.145 79.6481C619.148 80.145 619.012 80.6431 618.887 81.1406C616.529 81.8473 614.274 82.8084 612.134 84.0142C611.365 84.1545 610.72 84.1183 610.118 83.8848C609.183 82.931 608.247 81.9773 607.313 81.0235C609.352 77.6612 609.283 75.2093 607.088 73.1609C605.208 71.4061 602.306 71.1251 600.07 72.4819C597.797 73.8603 596.863 76.6311 597.843 79.0877C598.913 81.7691 600.69 82.5375 605.344 82.1181C606.737 83.5388 608.13 84.9601 609.523 86.3809C610.4 87.943 611.036 89.6062 611.13 91.4732C611.183 92.5015 611.193 93.5334 611.178 94.5656C607.291 91.9752 603.385 89.4078 599.534 86.7676C595.201 83.7967 590.986 79.9482 590.354 74.6264C591.237 74.424 592.079 74.0458 592.821 73.4471C593.456 72.9349 593.939 72.3683 594.284 71.7702C594.767 71.3429 595.098 70.7311 595.132 69.9293C595.278 66.4784 593.098 63.8093 589.909 62.5174C587.261 61.4449 584.355 62.5163 582.34 64.2842C582.234 64.3504 582.152 64.4323 582.083 64.5222C581.737 64.8501 581.416 65.1955 581.136 65.5557C580.717 66.0951 580.647 66.7718 580.807 67.4102C580.172 71.1375 584.147 74.4585 588.154 74.7779C588.725 79.4783 591.563 83.1763 595.234 86.2423C600.025 90.2445 605.661 93.4648 610.865 96.9407C610.942 96.9927 611.019 97.0312 611.095 97.0611C611.028 98.3699 610.933 99.6781 610.828 100.982C610.592 103.925 609.985 106.761 608.914 109.444C608.104 108.871 607.486 108.081 607.116 107.166C608.925 105.886 609.253 103.551 608.348 101.673C607.442 99.7941 604.775 99.1027 602.878 99.7715C601.239 100.349 600.267 101.799 600.215 103.336C600.019 104.499 600.417 105.729 601.277 106.712C602.049 107.596 603.263 107.997 604.471 107.979C605.089 109.624 606.262 110.988 607.777 111.904C607.209 112.974 606.557 114.016 605.812 115.025C603.964 117.526 602.225 117.833 600.063 115.629C597.415 112.93 595.007 110.002 592.622 107.076C591.626 105.853 591.5 104.4 591.783 102.937C591.906 102.69 592.028 102.443 592.151 102.196C596.748 101.816 598.676 100.655 599.271 97.9638C599.843 95.3761 598.663 92.867 596.356 91.7657C595.446 91.3315 594.424 91.1473 593.426 91.1987C590.681 91.0133 588.202 93.0627 587.368 95.4446C586.623 97.572 587.807 99.8708 589.696 100.987C589.398 101.587 589.101 102.188 588.803 102.788C588.272 102.79 587.665 102.554 587.085 102.066C585.086 100.383 583.346 98.4082 581.312 96.7703C579.711 95.4807 578.757 94.0237 578.371 92.383C578.985 89.6087 579.599 86.8346 580.213 84.0603C580.451 83.9437 580.721 83.8426 581.041 83.7605C584.6 82.8503 586.094 78.7984 584.181 75.7527C582.981 73.843 580.776 72.8609 578.498 73.2216C575.958 73.6236 574.28 75.1721 573.75 77.6026C573.276 79.7793 574.324 81.9791 576.34 83.2924C576.661 83.5011 577.071 83.7849 577.386 84.0744C576.747 86.9618 576.108 89.849 575.469 92.7364C574.927 92.573 574.381 92.4265 573.828 92.3164C573.293 88.6149 571.942 86.9658 569.269 86.5818C566.513 86.1862 564.017 87.4372 563.007 89.7207C561.958 92.0895 562.664 94.7728 564.744 96.3178C567.089 98.0603 569.21 97.7674 573.146 94.8987C573.916 95.0417 574.673 95.251 575.417 95.5179C577.594 97.3904 579.787 99.2832 582.005 101.161C588.136 106.352 592.945 112.467 596.49 119.467C590.513 118.597 585.238 115.103 582.266 109.906C582.772 109.483 583.212 108.978 583.555 108.402C584.935 106.079 583.705 103.093 581.466 101.8C580.855 101.447 580.221 101.26 579.583 101.198C579.103 100.987 578.585 100.859 578.046 100.844C576.088 100.788 574.467 101.828 573.626 103.445C573.348 103.591 573.121 103.843 573.031 104.244C573.026 104.265 573.024 104.287 573.019 104.309C572.784 104.659 572.765 105.038 572.882 105.376C572.78 107.691 573.985 109.797 576.304 110.823C577.458 111.334 578.683 111.405 579.822 111.135C583.415 117.575 590.336 121.812 597.85 122.303C598.464 123.59 599.198 124.879 599.462 126.216C598.8 130.32 597.703 134.331 596.221 138.246C595.879 139.151 596.185 139.869 596.762 140.318C596.88 140.548 597.042 140.747 597.178 140.776C600.65 141.513 604.151 141.992 607.623 140.811C607.916 140.711 608.286 140.184 608.303 139.875C608.584 139.445 608.698 138.897 608.517 138.257C607.278 133.892 606.682 129.426 606.784 124.941C606.973 124.147 607.162 123.354 607.354 122.561C607.4 122.544 607.446 122.533 607.493 122.51C610.273 121.18 613.053 119.85 615.834 118.52C615.855 118.538 615.873 118.558 615.894 118.576C617.555 119.98 620.035 119.735 621.63 118.395C623.379 116.925 623.076 114.308 621.775 112.715C620.299 110.904 617.327 111.185 615.698 112.552C615.562 112.667 615.468 112.79 615.395 112.916C615.308 112.993 615.225 113.079 615.153 113.185C614.541 114.075 614.348 115.162 614.532 116.185C614.501 116.198 614.471 116.204 614.44 116.219C612.367 117.21 610.294 118.202 608.221 119.194C608.472 118.285 608.736 117.38 609.033 116.485C609.18 116.043 609.337 115.606 609.5 115.17C613.523 110.477 619.455 107.746 625.804 107.605C625.822 107.605 625.837 107.6 625.854 107.599C625.963 108.469 626.307 109.325 626.924 110.049C628.765 112.211 632.42 112.806 634.708 110.934C636.909 109.134 637.441 105.571 635.473 103.409C633.378 101.106 629.71 101.052 627.387 103.041C627.043 103.335 626.921 103.677 626.947 104.004C626.674 104.308 626.448 104.645 626.272 105.009C626.132 104.966 625.979 104.937 625.803 104.941C621.058 105.046 616.606 106.422 612.804 108.837C613.407 108.019 614.078 107.235 614.836 106.497C619.089 102.351 624.061 99.2311 629.425 96.6558C630.286 96.2426 631.464 96.1492 632.432 96.2951C635.11 96.6988 637.587 95.7512 638.795 93.6272C639.951 91.593 639.586 88.7945 637.948 87.1431C636.199 85.3821 633.375 84.9637 631.116 86.1334Z" fill="#1E2330"/>
</g>
<path fill-rule="evenodd" clip-rule="evenodd" d="M656.524 124.79C650.278 120.873 634.163 115.452 619.679 125.108C616.445 127.264 613.098 129.664 609.706 132.097C594.11 143.282 577.535 155.169 566.317 147.342C566.314 147.351 566.312 147.36 566.31 147.369C576.332 155.872 589.307 161 603.48 161C627.666 161 648.364 146.065 656.854 124.914C656.742 124.871 656.632 124.829 656.524 124.79Z" fill="url(#paint1_linear)"/>
<defs>
<linearGradient id="paint0_linear" x1="595.273" y1="46" x2="595.273" y2="87.3092" gradientUnits="userSpaceOnUse">
<stop stop-color="#C1F531"/>
<stop offset="0.505208" stop-color="#ACD930"/>
<stop offset="0.807292" stop-color="#97C41B"/>
<stop offset="1" stop-color="#7BA30C"/>
</linearGradient>
<linearGradient id="paint1_linear" x1="611.582" y1="161" x2="611.582" y2="119.691" gradientUnits="userSpaceOnUse">
<stop stop-color="#C1F531"/>
<stop offset="0.505208" stop-color="#ACD930"/>
<stop offset="0.807292" stop-color="#97C41B"/>
<stop offset="1" stop-color="#7BA30C"/>
</linearGradient>
<clipPath id="clip0">
<rect width="82.4534" height="79.4368" fill="white" transform="translate(559.771 62.0894)"/>
</clipPath>
</defs>
</svg>
