<svg width="546" height="88" viewBox="0 0 546 88" fill="none" xmlns="http://www.w3.org/2000/svg">
<path fill-rule="evenodd" clip-rule="evenodd" d="M81.204 27.6237C77.7783 29.9576 68.594 33.3923 57.942 29.2076C47.1279 24.9593 41.8496 20.3568 40.5623 18.5867L59.9173 4.51025C69.5756 9.29055 77.2131 17.5369 81.204 27.6237Z" fill="#9ACC10"/>
<path fill-rule="evenodd" clip-rule="evenodd" d="M9.15527e-05 59.7708C3.42583 57.4369 12.6101 54.0022 23.2621 58.1869C34.0762 62.4353 39.3545 67.0377 40.6418 68.8078L21.2868 82.8843C11.6285 78.104 3.99105 69.8576 9.15527e-05 59.7708Z" fill="#9ACC10"/>
<path fill-rule="evenodd" clip-rule="evenodd" d="M0.25084 27.518C4.99809 30.495 17.2444 34.6147 28.2516 27.2766C30.7096 25.6379 33.2524 23.8143 35.8304 21.9654C47.6828 13.4653 60.2791 4.43175 68.8043 10.3796C68.8062 10.3726 68.808 10.3656 68.8098 10.3586C61.1931 3.8973 51.3328 0 40.5622 0C22.1816 0 6.45206 11.3502 0 27.4241C0.0856794 27.4568 0.16934 27.4881 0.25084 27.518Z" fill="url(#paint0_linear)"/>
<g clip-path="url(#clip0)">
<path d="M61.6472 30.1608C59.9497 31.0435 59.2454 32.7435 59.496 34.7423C59.5714 35.3423 59.2564 36.2817 58.7842 36.6042C55.8273 38.6219 52.8095 40.5619 49.7379 42.4118C48.5774 43.1109 48.0072 42.7218 47.8294 41.3916C47.7686 40.9373 47.7986 40.4696 47.8105 40.0085C47.8766 37.5176 48.0677 35.0229 47.983 32.5372C47.9535 31.6745 48.1141 30.9418 48.4331 30.2953C50.184 29.3114 52.0289 28.568 53.985 28.0593C55.4426 29.3049 57.3815 29.5492 59.0565 28.6072C60.8939 27.5738 61.6441 25.4122 60.8454 23.4525C60.119 21.6705 58.11 20.6346 56.0903 21.0014C53.9229 21.3946 52.63 23.0259 52.6458 25.2623C52.6484 25.6376 52.5461 26.0139 52.4521 26.3896C50.6787 26.9234 48.9829 27.6494 47.3741 28.5601C46.7955 28.6661 46.3106 28.6387 45.8578 28.4624C45.1549 27.742 44.4515 27.0216 43.7486 26.3012C45.2824 23.7616 45.2303 21.9096 43.58 20.3624C42.1658 19.037 39.9841 18.8247 38.3025 19.8496C36.5934 20.8907 35.8914 22.9835 36.6284 24.839C37.4328 26.8644 38.7689 27.4447 42.2681 27.1279C43.3157 28.201 44.3632 29.2746 45.4108 30.3477C46.0705 31.5276 46.548 32.7839 46.6194 34.194C46.6591 34.9707 46.6667 35.7501 46.6552 36.5298C43.7323 34.5732 40.7952 32.634 37.8996 30.6398C34.6417 28.3958 31.4716 25.489 30.9969 21.4694C31.661 21.3164 32.2938 21.0308 32.852 20.5786C33.3295 20.1917 33.6921 19.7638 33.952 19.312C34.3148 18.9892 34.564 18.5272 34.5897 17.9216C34.6996 15.315 33.0597 13.299 30.662 12.3232C28.671 11.5131 26.4859 12.3224 24.971 13.6577C24.8906 13.7077 24.829 13.7695 24.7777 13.8375C24.517 14.0851 24.2756 14.346 24.0655 14.6181C23.7505 15.0255 23.6975 15.5366 23.818 16.0188C23.3405 18.8341 26.3297 21.3425 29.3426 21.5838C29.772 25.1341 31.906 27.9272 34.666 30.243C38.2689 33.2659 42.5065 35.6983 46.4195 38.3237C46.4777 38.363 46.5356 38.3921 46.593 38.4147C46.5426 39.4032 46.4707 40.3914 46.3923 41.3761C46.2144 43.5993 45.7577 45.7414 44.9524 47.768C44.344 47.335 43.8792 46.7384 43.6009 46.0471C44.9609 45.0803 45.2079 43.3166 44.5271 41.898C43.8461 40.479 41.8401 39.9567 40.414 40.4619C39.1819 40.8983 38.4508 41.9932 38.4116 43.154C38.2646 44.0327 38.5633 44.9619 39.2099 45.7041C39.791 46.3715 40.7036 46.6746 41.6116 46.6615C42.0762 47.9037 42.9583 48.9341 44.0976 49.6254C43.6705 50.4343 43.1807 51.2213 42.6203 51.9834C41.2308 53.8722 39.9229 54.1037 38.2977 52.4394C36.3063 50.4005 34.4954 48.1888 32.7025 45.979C31.9532 45.0553 31.8588 43.9578 32.0716 42.8526C32.1638 42.666 32.2555 42.4794 32.3478 42.2932C35.8046 42.0062 37.2541 41.1294 37.7016 39.0965C38.1318 37.142 37.2444 35.2468 35.5098 34.4149C34.8259 34.087 34.0571 33.9478 33.3065 33.9867C31.2428 33.8466 29.3789 35.3946 28.7514 37.1937C28.1909 38.8006 29.0815 40.5368 30.5018 41.3798C30.2782 41.8333 30.0544 42.2868 29.8306 42.7403C29.4313 42.7417 28.9746 42.5636 28.5386 42.195C27.0353 40.9241 25.7273 39.4321 24.1979 38.195C22.9942 37.221 22.2766 36.1204 21.9863 34.8812C22.4479 32.7857 22.9099 30.6904 23.3714 28.5949C23.5506 28.5069 23.7531 28.4305 23.9936 28.3685C26.6699 27.681 27.7938 24.6205 26.3548 22.3201C25.4524 20.8776 23.7951 20.1358 22.0816 20.4083C20.1718 20.7119 18.9102 21.8815 18.5118 23.7173C18.1553 25.3614 18.9429 27.0229 20.4591 28.0149C20.7004 28.1726 21.0085 28.3869 21.2458 28.6056C20.7653 30.7864 20.2847 32.9672 19.8042 35.1481C19.3965 35.0247 18.9861 34.9141 18.57 34.8309C18.168 32.0351 17.1522 30.7895 15.1419 30.4995C13.0701 30.2006 11.193 31.1455 10.4331 32.8703C9.64456 34.6595 10.1758 36.6863 11.7393 37.8533C13.5026 39.1694 15.0977 38.9481 18.0577 36.7814C18.6366 36.8894 19.2054 37.0474 19.7654 37.249C21.4021 38.6634 23.0511 40.0931 24.7186 41.5113C29.3288 45.4323 32.945 50.051 35.6103 55.338C31.116 54.6813 27.15 52.0422 24.9154 48.1165C25.2954 47.7975 25.6263 47.4158 25.8845 46.9803C26.9223 45.2264 25.9974 42.9708 24.3135 41.9942C23.8541 41.7277 23.3776 41.586 22.8979 41.5394C22.537 41.3801 22.1473 41.2836 21.7422 41.2721C20.2693 41.2298 19.0509 42.0151 18.4187 43.2365C18.2091 43.3472 18.0383 43.5371 17.9708 43.84C17.9672 43.8562 17.9655 43.8728 17.9619 43.8891C17.785 44.1534 17.7708 44.44 17.8591 44.6953C17.7823 46.444 18.6883 48.0347 20.4317 48.8094C21.2996 49.1951 22.221 49.2488 23.077 49.0451C25.7793 53.9094 30.9835 57.1095 36.6335 57.4803C37.0951 58.4526 37.6467 59.4262 37.8457 60.4361C37.3476 63.5359 36.5229 66.5649 35.4086 69.5224C35.1509 70.2061 35.3817 70.748 35.8155 71.087C35.9037 71.2612 36.0259 71.4116 36.1279 71.4333C38.739 71.9902 41.3711 72.3519 43.982 71.4598C44.2026 71.3843 44.4806 70.9863 44.493 70.7526C44.7048 70.4277 44.7904 70.0139 44.654 69.5309C43.7225 66.2338 43.2747 62.8607 43.3515 59.4731C43.4935 58.8735 43.6351 58.2744 43.7794 57.6753C43.8142 57.6625 43.8487 57.6539 43.884 57.6368C45.9747 56.632 48.0654 55.6273 50.1561 54.6228C50.1717 54.6365 50.1853 54.6514 50.2011 54.6651C51.4504 55.7255 53.3151 55.5404 54.5146 54.5288C55.8299 53.4186 55.6014 51.4419 54.6236 50.238C53.5133 48.8707 51.2787 49.083 50.0542 50.1155C49.9519 50.2021 49.8807 50.2949 49.8261 50.3901C49.7608 50.4482 49.6986 50.5131 49.6439 50.5933C49.184 51.2658 49.0385 52.0866 49.177 52.8595C49.1541 52.8689 49.1311 52.8736 49.1082 52.8847C47.5492 53.6337 45.9907 54.3826 44.4317 55.1321C44.6205 54.4454 44.8187 53.7618 45.0423 53.0858C45.1527 52.7523 45.271 52.4217 45.3932 52.0926C48.4185 48.5478 52.8792 46.4853 57.6527 46.3789C57.6663 46.3784 57.6778 46.3751 57.691 46.3742C57.7722 47.0309 58.0312 47.678 58.4951 48.2249C59.8794 49.8576 62.628 50.3068 64.3484 48.8933C66.0036 47.5336 66.4034 44.8421 64.9238 43.2091C63.348 41.4701 60.5901 41.4288 58.8432 42.9311C58.585 43.1531 58.4928 43.4115 58.5122 43.6588C58.3074 43.8885 58.137 44.143 58.0052 44.4176C57.8993 44.3851 57.7845 44.3634 57.6526 44.3664C54.0845 44.4458 50.7367 45.4848 47.8778 47.3094C48.3314 46.6911 48.8357 46.0993 49.4054 45.5415C52.6036 42.4105 56.3425 40.0537 60.3761 38.1085C61.023 37.7964 61.9091 37.7259 62.6371 37.8361C64.6506 38.141 66.5131 37.4253 67.4213 35.821C68.2909 34.2845 68.0166 32.1707 66.7845 30.9234C65.4694 29.5933 63.3461 29.2773 61.6472 30.1608Z" fill="#1E2330"/>
</g>
<path fill-rule="evenodd" clip-rule="evenodd" d="M80.6688 59.8752C75.9216 56.8981 63.6753 52.7784 52.6681 60.1166C50.2101 61.7553 47.6672 63.5789 45.0892 65.4277C33.6901 73.6028 21.6027 82.2714 13.1108 77.6309C20.6247 83.7357 30.2059 87.3945 40.6418 87.3945C58.9863 87.3945 74.6902 76.0888 81.1659 60.065C80.9928 59.9963 80.8267 59.933 80.6688 59.8752Z" fill="url(#paint1_linear)"/>
<path d="M111.546 27.1703L104.677 27.4105L102.804 37.8823H98.7686L99.5852 24H130.568L131.144 37.8823H127.35L125.476 27.4105L118.703 27.1703V56.3279L125.428 56.8083V59.6904H105.397V56.8083L111.546 56.3279V27.1703Z" fill="#1E2330"/>
<path d="M133.83 52.1968C133.83 49.2827 135.287 47.0891 138.202 45.616C141.148 44.1429 144.943 43.3903 149.586 43.3583V42.2535C149.586 40.9405 149.442 39.9158 149.154 39.1792C148.897 38.4427 148.401 37.8983 147.665 37.546C146.96 37.1617 145.919 36.9696 144.542 36.9696C142.973 36.9696 141.564 37.1777 140.315 37.594C139.066 37.9783 137.769 38.4907 136.424 39.1312L134.935 36.0569C135.416 35.6406 136.216 35.1442 137.337 34.5678C138.49 33.9914 139.851 33.495 141.42 33.0787C142.989 32.6304 144.606 32.4062 146.272 32.4062C148.737 32.4062 150.659 32.7264 152.036 33.3669C153.445 34.0074 154.454 35.0322 155.062 36.4412C155.67 37.8502 155.975 39.7396 155.975 42.1094V56.8083H158.569V59.4982C157.928 59.6584 157.015 59.8185 155.831 59.9786C154.646 60.1387 153.605 60.2188 152.708 60.2188C151.619 60.2188 150.883 60.0587 150.499 59.7384C150.146 59.4182 149.97 58.7617 149.97 57.769V56.472C149.106 57.4327 147.985 58.2973 146.608 59.0659C145.231 59.8345 143.678 60.2188 141.948 60.2188C140.475 60.2188 139.114 59.9145 137.865 59.3061C136.648 58.6656 135.672 57.7529 134.935 56.5681C134.199 55.3512 133.83 53.8941 133.83 52.1968ZM145.023 56.2318C145.695 56.2318 146.464 56.0397 147.328 55.6554C148.193 55.2391 148.946 54.7427 149.586 54.1663V46.2885C146.704 46.2885 144.542 46.7848 143.101 47.7776C141.692 48.7383 140.988 49.9872 140.988 51.5243C140.988 53.0615 141.34 54.2303 142.044 55.0309C142.781 55.8315 143.774 56.2318 145.023 56.2318Z" fill="#1E2330"/>
<path d="M175.305 32.9826V35.8167L171.606 36.4412V50.9479L174.296 47.3933L183.615 37.4499V36.4412L180.396 35.8167V32.9826H193.702V35.8167L190.436 36.4412V56.3759L193.846 56.8083V59.6904H180.012V56.8083L183.615 56.3759V41.629L180.829 45.616L171.606 55.3672V56.472L174.776 56.8083V59.6904H161.47V56.8083L164.833 56.3759V36.4412L161.566 35.8167V32.9826H175.305Z" fill="#1E2330"/>
<path d="M224.532 45.4719C224.532 48.1619 223.971 50.6277 222.851 52.8693C221.762 55.111 220.145 56.9043 217.999 58.2493C215.885 59.5623 213.356 60.2188 210.409 60.2188C209.769 60.2188 209.096 60.1547 208.392 60.0266C207.719 59.9306 207.175 59.8025 206.759 59.6423L206.903 63.6293V68.0005L211.37 68.577V71.315H197.104V68.577L200.226 68.0005V37.546L197.104 36.6814V33.3669L205.029 32.3582H205.126L206.326 33.3189V36.0089C207.127 35.0161 208.216 34.1515 209.593 33.415C210.97 32.6784 212.475 32.3101 214.108 32.3101C217.15 32.3101 219.648 33.3989 221.602 35.5766C223.555 37.7221 224.532 41.0206 224.532 45.4719ZM211.61 36.2971C210.65 36.2971 209.737 36.5052 208.872 36.9215C208.008 37.3379 207.351 37.8022 206.903 38.3146V56.1358C207.127 56.456 207.575 56.7282 208.248 56.9524C208.952 57.1765 209.721 57.2886 210.554 57.2886C212.635 57.2886 214.284 56.3919 215.501 54.5986C216.75 52.7733 217.375 49.9232 217.375 46.0483C217.375 42.7819 216.846 40.3481 215.789 38.7469C214.733 37.1137 213.34 36.2971 211.61 36.2971Z" fill="#1E2330"/>
<path d="M228.46 46.3845C228.46 43.3743 229.052 40.8124 230.237 38.6989C231.454 36.5853 233.071 35.0001 235.088 33.9433C237.106 32.8545 239.3 32.3101 241.669 32.3101C245.704 32.3101 248.811 33.5591 250.988 36.0569C253.198 38.5227 254.303 41.8852 254.303 46.1444C254.303 49.1866 253.694 51.7805 252.477 53.9261C251.292 56.0397 249.691 57.6249 247.674 58.6816C245.688 59.7064 243.495 60.2188 241.093 60.2188C237.09 60.2188 233.984 58.9859 231.774 56.52C229.564 54.0222 228.46 50.6437 228.46 46.3845ZM241.477 57.0965C245.096 57.0965 246.905 53.6059 246.905 46.6247C246.905 42.974 246.473 40.204 245.608 38.3146C244.744 36.3932 243.335 35.4325 241.381 35.4325C237.666 35.4325 235.809 38.923 235.809 45.9042C235.809 49.5549 236.257 52.3409 237.154 54.2624C238.083 56.1518 239.524 57.0965 241.477 57.0965Z" fill="#1E2330"/>
<path d="M267.844 32.8866C270.15 32.7585 271.943 32.6944 273.224 32.6944C277.515 32.6944 280.477 33.2228 282.111 34.2796C283.744 35.3364 284.561 36.8575 284.561 38.843C284.561 40.3801 284.128 41.6771 283.264 42.7338C282.399 43.7906 281.118 44.5752 279.421 45.0876C281.854 45.3118 283.696 46.0163 284.945 47.2011C286.194 48.354 286.818 49.763 286.818 51.4283C286.818 54.1823 285.761 56.2959 283.648 57.769C281.566 59.242 277.964 59.9786 272.84 59.9786C271.783 59.9786 270.838 59.9626 270.006 59.9306C269.173 59.8985 268.485 59.8665 267.94 59.8345C266.563 59.7384 265.346 59.6904 264.29 59.6904H258.765V56.8083L261.984 56.2799V36.4412L258.765 35.8167V32.9826H264.626L267.844 32.8866ZM272.408 44.1269C274.297 44.1269 275.658 43.6785 276.491 42.7819C277.355 41.8852 277.787 40.7484 277.787 39.3714C277.787 38.1545 277.387 37.2418 276.587 36.6333C275.818 36.0249 274.441 35.7207 272.456 35.7207C270.694 35.7207 269.429 35.7367 268.661 35.7687V44.1269H272.408ZM268.661 56.5681C268.917 56.6641 269.429 56.7442 270.198 56.8083C270.998 56.8723 271.719 56.9043 272.359 56.9043C274.825 56.9043 276.571 56.504 277.595 55.7034C278.62 54.8708 279.132 53.6219 279.132 51.9567C279.132 50.2914 278.636 49.0585 277.643 48.2579C276.651 47.4253 275.065 47.009 272.888 47.009H268.661V56.5681Z" fill="#1E2330"/>
<path d="M289.897 46.4806C289.897 43.7266 290.441 41.2768 291.53 39.1312C292.651 36.9856 294.236 35.3204 296.285 34.1355C298.367 32.9186 300.785 32.3101 303.539 32.3101C304.82 32.3101 305.924 32.4062 306.853 32.5984C307.782 32.7905 308.823 33.0467 309.975 33.3669L311.368 33.7512L311.08 41.9653H306.901L305.7 36.6814C305.508 35.8488 304.563 35.4325 302.866 35.4325C301.073 35.4325 299.664 36.217 298.639 37.7862C297.646 39.3553 297.134 41.8052 297.102 45.1356C297.102 48.6582 297.71 51.3642 298.927 53.2536C300.144 55.111 301.761 56.0397 303.779 56.0397C306.213 56.0397 308.454 55.3832 310.504 54.0702L311.609 56.5681C310.776 57.4647 309.495 58.2973 307.766 59.0659C306.069 59.8345 304.227 60.2188 302.242 60.2188C298.143 60.2188 295.052 58.9538 292.971 56.424C290.921 53.8941 289.897 50.5796 289.897 46.4806Z" fill="#1E2330"/>
<path d="M334.164 44.7994C335.445 45.3438 336.566 46.2565 337.526 47.5374C338.487 48.7863 339.528 50.4035 340.649 52.389C341.321 53.6059 341.882 54.5346 342.33 55.175C342.778 55.7835 343.211 56.1678 343.627 56.3279L345.692 56.7602V59.6904H338.727C337.831 59.6904 337.03 59.194 336.326 58.2013C335.621 57.1765 334.772 55.6394 333.78 53.5899C332.787 51.4763 331.906 49.8751 331.138 48.7863C330.369 47.6975 329.488 47.1531 328.496 47.1531H325.469V56.3759L329.408 56.8083V59.6904H315.334V56.8083L318.696 56.3759V36.4412L315.43 35.8167V32.9826H328.736V35.8167L325.469 36.4412V44.319H330.177L335.509 36.4412L331.954 35.8167V32.9826H344.347V35.8167L340.649 36.4412L334.164 44.7994Z" fill="#1E2330"/>
<path d="M361.489 32.9826V35.8167L357.79 36.4412V50.9479L360.48 47.3933L369.799 37.4499V36.4412L366.581 35.8167V32.9826H379.887V35.8167L376.62 36.4412V56.3759L380.031 56.8083V59.6904H366.196V56.8083L369.799 56.3759V41.629L367.013 45.616L357.79 55.3672V56.472L360.961 56.8083V59.6904H347.655V56.8083L351.017 56.3759V36.4412L347.751 35.8167V32.9826H361.489Z" fill="#1E2330"/>
<path d="M396.258 60.2188C392.031 60.2188 388.876 58.9859 386.795 56.52C384.745 54.0222 383.72 50.6277 383.72 46.3365C383.72 43.4544 384.249 40.9565 385.306 38.843C386.394 36.7294 387.916 35.1122 389.869 33.9914C391.822 32.8706 394.08 32.3101 396.642 32.3101C399.844 32.3101 402.31 33.1588 404.039 34.856C405.769 36.5213 406.665 38.907 406.729 42.0133C406.729 44.1269 406.601 45.696 406.345 46.7208H390.734C390.862 49.6349 391.55 51.9086 392.799 53.5418C394.048 55.143 395.825 55.9436 398.131 55.9436C399.38 55.9436 400.661 55.7355 401.974 55.3191C403.319 54.9028 404.376 54.4065 405.144 53.83L406.345 56.472C405.48 57.4007 404.071 58.2653 402.118 59.0659C400.197 59.8345 398.243 60.2188 396.258 60.2188ZM400.004 43.8387C400.069 42.942 400.101 42.2535 400.101 41.7731C400.101 37.514 398.675 35.3844 395.825 35.3844C394.256 35.3844 393.039 36.0089 392.175 37.2578C391.31 38.5067 390.83 40.7003 390.734 43.8387H400.004Z" fill="#1E2330"/>
<path d="M421.337 46.4806C421.337 43.7266 421.882 41.2768 422.971 39.1312C424.092 36.9856 425.677 35.3204 427.726 34.1355C429.808 32.9186 432.226 32.3101 434.98 32.3101C436.26 32.3101 437.365 32.4062 438.294 32.5984C439.223 32.7905 440.263 33.0467 441.416 33.3669L442.809 33.7512L442.521 41.9653H438.342L437.141 36.6814C436.949 35.8488 436.004 35.4325 434.307 35.4325C432.514 35.4325 431.105 36.217 430.08 37.7862C429.087 39.3553 428.575 41.8052 428.543 45.1356C428.543 48.6582 429.151 51.3642 430.368 53.2536C431.585 55.111 433.202 56.0397 435.22 56.0397C437.654 56.0397 439.895 55.3832 441.945 54.0702L443.05 56.5681C442.217 57.4647 440.936 58.2973 439.207 59.0659C437.509 59.8345 435.668 60.2188 433.683 60.2188C429.584 60.2188 426.493 58.9538 424.412 56.424C422.362 53.8941 421.337 50.5796 421.337 46.4806Z" fill="#1E2330"/>
<path d="M446.343 52.1968C446.343 49.2827 447.8 47.0891 450.714 45.616C453.66 44.1429 457.455 43.3903 462.098 43.3583V42.2535C462.098 40.9405 461.954 39.9158 461.666 39.1792C461.41 38.4427 460.913 37.8983 460.177 37.546C459.472 37.1617 458.432 36.9696 457.055 36.9696C455.485 36.9696 454.076 37.1777 452.827 37.594C451.578 37.9783 450.281 38.4907 448.936 39.1312L447.447 36.0569C447.928 35.6406 448.728 35.1442 449.849 34.5678C451.002 33.9914 452.363 33.495 453.932 33.0787C455.501 32.6304 457.119 32.4062 458.784 32.4062C461.25 32.4062 463.171 32.7264 464.548 33.3669C465.957 34.0074 466.966 35.0322 467.574 36.4412C468.183 37.8502 468.487 39.7396 468.487 42.1094V56.8083H471.081V59.4982C470.44 59.6584 469.528 59.8185 468.343 59.9786C467.158 60.1387 466.117 60.2188 465.221 60.2188C464.132 60.2188 463.395 60.0587 463.011 59.7384C462.659 59.4182 462.483 58.7617 462.483 57.769V56.472C461.618 57.4327 460.497 58.2973 459.12 59.0659C457.743 59.8345 456.19 60.2188 454.461 60.2188C452.987 60.2188 451.626 59.9145 450.378 59.3061C449.161 58.6656 448.184 57.7529 447.447 56.5681C446.711 55.3512 446.343 53.8941 446.343 52.1968ZM457.535 56.2318C458.207 56.2318 458.976 56.0397 459.841 55.6554C460.705 55.2391 461.458 54.7427 462.098 54.1663V46.2885C459.216 46.2885 457.054 46.7848 455.613 47.7776C454.204 48.7383 453.5 49.9872 453.5 51.5243C453.5 53.0615 453.852 54.2303 454.557 55.0309C455.293 55.8315 456.286 56.2318 457.535 56.2318Z" fill="#1E2330"/>
<path d="M502.083 58.8257C501.699 64.3658 501.395 67.8084 501.171 69.1534H497.52C497.392 68.0966 497.136 66.3513 496.751 63.9175C496.367 61.4837 496.079 60.0747 495.887 59.6904H478.45C478.258 60.1067 477.889 61.5798 477.345 64.1096C476.801 66.6395 476.464 68.3208 476.336 69.1534H472.253L472.638 56.52H475.424C476.801 55.9436 477.921 54.0542 478.786 50.8518C479.683 47.6175 480.131 42.8139 480.131 36.4412L475.616 35.8167V32.9826H502.179V35.8167L498 36.4412V56.6161H502.227L502.083 58.8257ZM483.734 38.939C483.734 42.942 483.429 46.5767 482.821 49.8431C482.213 53.0775 481.492 55.3352 480.659 56.6161H491.179V36.2971H483.734V38.939Z" fill="#1E2330"/>
<path d="M515.499 43.4063C517.613 43.3423 519.294 43.3103 520.543 43.3103C524.13 43.3103 526.804 43.9988 528.565 45.3758C530.326 46.7208 531.207 48.6902 531.207 51.2842C531.207 54.2624 530.214 56.488 528.229 57.9611C526.243 59.4022 523.393 60.1227 519.679 60.1227C519.23 60.1227 517.885 60.0587 515.644 59.9306C513.658 59.7704 512.169 59.6904 511.176 59.6904H505.028V56.9043L508.823 56.3759V36.4892L505.124 35.8167V32.9826H519.534V35.9128L515.499 36.4892V43.4063ZM545.281 32.9826V35.8648L542.255 36.4412V56.3759L545.666 56.8083V59.6904H532.504V56.8083L535.626 56.3279V36.4412L532.36 35.8648V32.9826H545.281ZM515.499 56.9524C515.628 56.9524 515.932 56.9844 516.412 57.0484C516.924 57.1125 517.517 57.1445 518.189 57.1445C522.192 57.1445 524.194 55.3672 524.194 51.8126C524.194 48.2579 522.304 46.4806 518.526 46.4806H515.499V56.9524Z" fill="#1E2330"/>
<defs>
<linearGradient id="paint0_linear" x1="34.4049" y1="0" x2="34.4049" y2="31.3932" gradientUnits="userSpaceOnUse">
<stop stop-color="#C1F531"/>
<stop offset="0.505208" stop-color="#ACD930"/>
<stop offset="0.807292" stop-color="#97C41B"/>
<stop offset="1" stop-color="#7BA30C"/>
</linearGradient>
<linearGradient id="paint1_linear" x1="47.1384" y1="87.3945" x2="47.1384" y2="56" gradientUnits="userSpaceOnUse">
<stop stop-color="#C1F531"/>
<stop offset="0.505208" stop-color="#ACD930"/>
<stop offset="0.807292" stop-color="#97C41B"/>
<stop offset="1" stop-color="#7BA30C"/>
</linearGradient>
<clipPath id="clip0">
<rect width="62" height="60" fill="white" transform="translate(8 12)"/>
</clipPath>
</defs>
</svg>
