<svg width="214" height="34" viewBox="0 0 214 34" fill="none" xmlns="http://www.w3.org/2000/svg">
<path d="M47.1894 10.7741L44.55 10.8646L43.8301 14.8132H42.2797L42.5934 9.57861H54.4986L54.7201 14.8132H53.262L52.5421 10.8646L49.9396 10.7741V21.7685L52.5237 21.9496V23.0364H44.8268V21.9496L47.1894 21.7685V10.7741Z" fill="white"/>
<path d="M55.7522 20.2108C55.7522 19.112 56.312 18.2848 57.4318 17.7294C58.5639 17.1739 60.022 16.8901 61.8063 16.8781V16.4615C61.8063 15.9664 61.7509 15.58 61.6402 15.3022C61.5417 15.0245 61.351 14.8192 61.068 14.6864C60.7973 14.5415 60.3973 14.4691 59.8682 14.4691C59.2653 14.4691 58.7238 14.5475 58.2439 14.7045C57.764 14.8494 57.2657 15.0426 56.7489 15.2841L56.1767 14.1249C56.3613 13.9679 56.6689 13.7808 57.0996 13.5634C57.5426 13.3461 58.0655 13.1589 58.6685 13.0019C59.2714 12.8329 59.8928 12.7483 60.5327 12.7483C61.4802 12.7483 62.2185 12.8691 62.7476 13.1106C63.289 13.3521 63.6766 13.7385 63.9104 14.2698C64.1442 14.8011 64.2611 15.5136 64.2611 16.4071V21.9496H65.2579V22.9639C65.0117 23.0243 64.6611 23.0847 64.2058 23.1451C63.7505 23.2054 63.3506 23.2356 63.006 23.2356C62.5876 23.2356 62.3046 23.1753 62.157 23.0545C62.0216 22.9338 61.9539 22.6862 61.9539 22.3119V21.8228C61.6217 22.1851 61.191 22.5111 60.6619 22.8009C60.1328 23.0907 59.536 23.2356 58.8715 23.2356C58.3055 23.2356 57.7825 23.1209 57.3026 22.8915C56.835 22.65 56.4597 22.3058 56.1767 21.8591C55.8937 21.4002 55.7522 20.8508 55.7522 20.2108ZM60.0528 21.7323C60.3112 21.7323 60.6065 21.6598 60.9388 21.5149C61.271 21.3579 61.5602 21.1708 61.8063 20.9534V17.9829C60.6988 17.9829 59.8682 18.1701 59.3145 18.5444C58.7731 18.9067 58.5024 19.3776 58.5024 19.9572C58.5024 20.5368 58.6377 20.9776 58.9084 21.2795C59.1914 21.5813 59.5729 21.7323 60.0528 21.7323Z" fill="white"/>
<path d="M71.6886 12.9657V14.0344L70.2674 14.2698V19.7399L71.301 18.3995L74.8818 14.6502V14.2698L73.6451 14.0344V12.9657H78.7579V14.0344L77.5028 14.2698V21.7866L78.8133 21.9496V23.0364H73.4975V21.9496L74.8818 21.7866V16.226L73.8112 17.7294L70.2674 21.4062V21.8228L71.4856 21.9496V23.0364H66.3728V21.9496L67.6648 21.7866V14.2698L66.4097 14.0344V12.9657H71.6886Z" fill="white"/>
<path d="M90.6042 17.675C90.6042 18.6893 90.3889 19.6191 89.9582 20.4644C89.5399 21.3096 88.9184 21.9859 88.094 22.493C87.2819 22.9881 86.3098 23.2356 85.1777 23.2356C84.9316 23.2356 84.6732 23.2115 84.4025 23.1632C84.1441 23.127 83.9349 23.0787 83.7749 23.0183L83.8303 24.5216V26.1699L85.5468 26.3873V27.4197H80.0649V26.3873L81.2647 26.1699V14.6864L80.0649 14.3604V13.1106L83.1104 12.7302H83.1474L83.6088 13.0925V14.1068C83.9164 13.7325 84.3348 13.4064 84.8639 13.1287C85.393 12.851 85.9714 12.7121 86.5989 12.7121C87.7679 12.7121 88.7277 13.1227 89.4783 13.9438C90.2289 14.7528 90.6042 15.9966 90.6042 17.675ZM85.6391 14.2155C85.27 14.2155 84.9193 14.294 84.587 14.4509C84.2548 14.6079 84.0026 14.783 83.8303 14.9762V21.6961C83.9164 21.8168 84.0887 21.9194 84.3471 22.004C84.6178 22.0885 84.9131 22.1308 85.2331 22.1308C86.0329 22.1308 86.6666 21.7927 87.1342 21.1164C87.6141 20.4282 87.8541 19.3535 87.8541 17.8924C87.8541 16.6607 87.651 15.743 87.2449 15.1392C86.8389 14.5234 86.3036 14.2155 85.6391 14.2155Z" fill="white"/>
<path d="M92.1134 18.0192C92.1134 16.8841 92.3411 15.9181 92.7964 15.1211C93.264 14.3242 93.8854 13.7264 94.6606 13.328C95.4358 12.9174 96.2787 12.7121 97.1893 12.7121C98.7397 12.7121 99.9333 13.1831 100.77 14.1249C101.619 15.0547 102.044 16.3226 102.044 17.9286C102.044 19.0757 101.81 20.0538 101.342 20.8629C100.887 21.6598 100.272 22.2575 99.4965 22.656C98.7336 23.0424 97.8907 23.2356 96.9678 23.2356C95.4297 23.2356 94.2361 22.7707 93.387 21.841C92.538 20.8991 92.1134 19.6252 92.1134 18.0192ZM97.1155 22.0583C98.5059 22.0583 99.2012 20.7421 99.2012 18.1097C99.2012 16.7332 99.0351 15.6887 98.7028 14.9762C98.3706 14.2517 97.8292 13.8895 97.0786 13.8895C95.6512 13.8895 94.9375 15.2056 94.9375 17.838C94.9375 19.2146 95.1097 20.2651 95.4543 20.9897C95.8111 21.7021 96.3649 22.0583 97.1155 22.0583Z" fill="white"/>
<path d="M107.247 12.9295C108.133 12.8812 108.822 12.857 109.314 12.857C110.963 12.857 112.101 13.0563 112.729 13.4547C113.356 13.8532 113.67 14.4268 113.67 15.1755C113.67 15.7551 113.504 16.2441 113.172 16.6426C112.84 17.0411 112.347 17.3369 111.695 17.5301C112.63 17.6146 113.338 17.8803 113.818 18.3271C114.298 18.7618 114.538 19.2931 114.538 19.921C114.538 20.9595 114.132 21.7564 113.32 22.3119C112.52 22.8673 111.135 23.1451 109.167 23.1451C108.761 23.1451 108.398 23.139 108.078 23.127C107.758 23.1149 107.493 23.1028 107.284 23.0907C106.755 23.0545 106.287 23.0364 105.881 23.0364H103.758V21.9496L104.995 21.7504V14.2698L103.758 14.0344V12.9657H106.01L107.247 12.9295ZM109 17.1679C109.726 17.1679 110.249 16.9988 110.569 16.6607C110.902 16.3226 111.068 15.8939 111.068 15.3747C111.068 14.9158 110.914 14.5717 110.606 14.3423C110.311 14.1128 109.782 13.9981 109.019 13.9981C108.342 13.9981 107.856 14.0042 107.561 14.0162V17.1679H109ZM107.561 21.8591C107.659 21.8953 107.856 21.9255 108.151 21.9496C108.459 21.9738 108.736 21.9859 108.982 21.9859C109.929 21.9859 110.6 21.8349 110.994 21.533C111.388 21.2191 111.585 20.7481 111.585 20.1202C111.585 19.4923 111.394 19.0274 111.012 18.7256C110.631 18.4116 110.022 18.2546 109.185 18.2546H107.561V21.8591Z" fill="white"/>
<path d="M115.721 18.0554C115.721 17.0169 115.93 16.0932 116.348 15.2841C116.779 14.4751 117.388 13.8472 118.175 13.4004C118.975 12.9415 119.904 12.7121 120.963 12.7121C121.455 12.7121 121.879 12.7483 122.236 12.8208C122.593 12.8932 122.993 12.9898 123.436 13.1106L123.971 13.2555L123.86 16.3528H122.255L121.793 14.3604C121.719 14.0464 121.356 13.8895 120.704 13.8895C120.015 13.8895 119.474 14.1853 119.08 14.777C118.698 15.3687 118.502 16.2924 118.489 17.5482C118.489 18.8765 118.723 19.8968 119.191 20.6093C119.658 21.3096 120.28 21.6598 121.055 21.6598C121.99 21.6598 122.851 21.4123 123.639 20.9172L124.063 21.8591C123.744 22.1972 123.251 22.5111 122.587 22.8009C121.935 23.0907 121.227 23.2356 120.464 23.2356C118.889 23.2356 117.702 22.7587 116.902 21.8047C116.114 20.8508 115.721 19.601 115.721 18.0554Z" fill="white"/>
<path d="M132.73 17.4214C133.223 17.6267 133.653 17.9709 134.022 18.4539C134.392 18.9248 134.791 19.5346 135.222 20.2833C135.481 20.7421 135.696 21.0923 135.868 21.3338C136.04 21.5632 136.207 21.7081 136.367 21.7685L137.16 21.9315V23.0364H134.484C134.139 23.0364 133.832 22.8492 133.561 22.4749C133.29 22.0885 132.964 21.5089 132.583 20.7361C132.201 19.9391 131.863 19.3354 131.568 18.9248C131.272 18.5142 130.934 18.309 130.552 18.309H129.39V21.7866L130.903 21.9496V23.0364H125.495V21.9496L126.787 21.7866V14.2698L125.532 14.0344V12.9657H130.645V14.0344L129.39 14.2698V17.2403H131.198L133.247 14.2698L131.881 14.0344V12.9657H136.643V14.0344L135.222 14.2698L132.73 17.4214Z" fill="white"/>
<path d="M143.23 12.9657V14.0344L141.809 14.2698V19.7399L142.842 18.3995L146.423 14.6502V14.2698L145.187 14.0344V12.9657H150.299V14.0344L149.044 14.2698V21.7866L150.355 21.9496V23.0364H145.039V21.9496L146.423 21.7866V16.226L145.353 17.7294L141.809 21.4062V21.8228L143.027 21.9496V23.0364H137.914V21.9496L139.206 21.7866V14.2698L137.951 14.0344V12.9657H143.23Z" fill="white"/>
<path d="M156.59 23.2356C154.966 23.2356 153.754 22.7707 152.954 21.841C152.166 20.8991 151.772 19.6191 151.772 18.001C151.772 16.9143 151.975 15.9724 152.382 15.1755C152.8 14.3785 153.384 13.7687 154.135 13.3461C154.886 12.9234 155.753 12.7121 156.738 12.7121C157.968 12.7121 158.916 13.0321 159.58 13.6721C160.245 14.3 160.589 15.1996 160.614 16.3709C160.614 17.1679 160.564 17.7595 160.466 18.1459H154.467C154.517 19.2448 154.781 20.1021 155.261 20.718C155.741 21.3217 156.424 21.6236 157.31 21.6236C157.79 21.6236 158.282 21.5451 158.786 21.3881C159.303 21.2312 159.709 21.044 160.005 20.8266L160.466 21.8228C160.134 22.173 159.592 22.499 158.842 22.8009C158.103 23.0907 157.353 23.2356 156.59 23.2356ZM158.03 17.0592C158.054 16.7211 158.067 16.4615 158.067 16.2803C158.067 14.6743 157.519 13.8713 156.424 13.8713C155.821 13.8713 155.353 14.1068 155.021 14.5777C154.689 15.0487 154.504 15.8758 154.467 17.0592H158.03Z" fill="white"/>
<path d="M166.227 18.0554C166.227 17.0169 166.436 16.0932 166.854 15.2841C167.285 14.4751 167.894 13.8472 168.682 13.4004C169.482 12.9415 170.411 12.7121 171.469 12.7121C171.961 12.7121 172.386 12.7483 172.742 12.8208C173.099 12.8932 173.499 12.9898 173.942 13.1106L174.477 13.2555L174.367 16.3528H172.761L172.299 14.3604C172.226 14.0464 171.863 13.8895 171.21 13.8895C170.521 13.8895 169.98 14.1853 169.586 14.777C169.205 15.3687 169.008 16.2924 168.995 17.5482C168.995 18.8765 169.229 19.8968 169.697 20.6093C170.164 21.3096 170.786 21.6598 171.561 21.6598C172.496 21.6598 173.358 21.4123 174.145 20.9172L174.57 21.8591C174.25 22.1972 173.758 22.5111 173.093 22.8009C172.441 23.0907 171.733 23.2356 170.97 23.2356C169.395 23.2356 168.208 22.7587 167.408 21.8047C166.621 20.8508 166.227 19.601 166.227 18.0554Z" fill="white"/>
<path d="M175.835 20.2108C175.835 19.112 176.395 18.2848 177.515 17.7294C178.647 17.1739 180.105 16.8901 181.889 16.8781V16.4615C181.889 15.9664 181.834 15.58 181.723 15.3022C181.625 15.0245 181.434 14.8192 181.151 14.6864C180.88 14.5415 180.48 14.4691 179.951 14.4691C179.348 14.4691 178.807 14.5475 178.327 14.7045C177.847 14.8494 177.349 15.0426 176.832 15.2841L176.26 14.1249C176.444 13.9679 176.752 13.7808 177.182 13.5634C177.625 13.3461 178.148 13.1589 178.751 13.0019C179.354 12.8329 179.976 12.7483 180.616 12.7483C181.563 12.7483 182.301 12.8691 182.83 13.1106C183.372 13.3521 183.76 13.7385 183.993 14.2698C184.227 14.8011 184.344 15.5136 184.344 16.4071V21.9496H185.341V22.9639C185.095 23.0243 184.744 23.0847 184.289 23.1451C183.833 23.2054 183.433 23.2356 183.089 23.2356C182.671 23.2356 182.387 23.1753 182.24 23.0545C182.104 22.9338 182.037 22.6862 182.037 22.3119V21.8228C181.705 22.1851 181.274 22.5111 180.745 22.8009C180.216 23.0907 179.619 23.2356 178.954 23.2356C178.388 23.2356 177.865 23.1209 177.385 22.8915C176.918 22.65 176.543 22.3058 176.26 21.8591C175.977 21.4002 175.835 20.8508 175.835 20.2108ZM180.136 21.7323C180.394 21.7323 180.689 21.6598 181.022 21.5149C181.354 21.3579 181.643 21.1708 181.889 20.9534V17.9829C180.782 17.9829 179.951 18.1701 179.397 18.5444C178.856 18.9067 178.585 19.3776 178.585 19.9572C178.585 20.5368 178.721 20.9776 178.991 21.2795C179.274 21.5813 179.656 21.7323 180.136 21.7323Z" fill="white"/>
<path d="M197.253 22.7104C197.106 24.7994 196.989 26.0975 196.903 26.6046H195.5C195.451 26.2061 195.352 25.548 195.205 24.6303C195.057 23.7126 194.946 23.1813 194.872 23.0364H188.172C188.098 23.1934 187.957 23.7488 187.748 24.7028C187.539 25.6567 187.409 26.2907 187.36 26.6046H185.791L185.939 21.841H187.009C187.539 21.6236 187.969 20.9112 188.301 19.7036C188.646 18.4841 188.818 16.6728 188.818 14.2698L187.083 14.0344V12.9657H197.29V14.0344L195.685 14.2698V21.8772H197.309L197.253 22.7104ZM190.203 15.2117C190.203 16.7211 190.086 18.0916 189.852 19.3233C189.618 20.5429 189.341 21.3942 189.021 21.8772H193.064V14.2155H190.203V15.2117Z" fill="white"/>
<path d="M202.409 16.8962C203.221 16.872 203.867 16.8599 204.347 16.8599C205.725 16.8599 206.752 17.1196 207.429 17.6388C208.106 18.1459 208.444 18.8886 208.444 19.8667C208.444 20.9897 208.063 21.8289 207.3 22.3843C206.537 22.9277 205.442 23.1994 204.014 23.1994C203.842 23.1994 203.325 23.1753 202.464 23.127C201.701 23.0666 201.129 23.0364 200.747 23.0364H198.385V21.9859L199.843 21.7866V14.2879L198.422 14.0344V12.9657H203.959V14.0706L202.409 14.2879V16.8962ZM213.852 12.9657V14.0525L212.689 14.2698V21.7866L214 21.9496V23.0364H208.943V21.9496L210.142 21.7685V14.2698L208.887 14.0525V12.9657H213.852ZM202.409 22.004C202.458 22.004 202.575 22.016 202.759 22.0402C202.956 22.0643 203.184 22.0764 203.442 22.0764C204.98 22.0764 205.749 21.4062 205.749 20.0659C205.749 18.7256 205.023 18.0554 203.571 18.0554H202.409V22.004Z" fill="white"/>
<path fill-rule="evenodd" clip-rule="evenodd" d="M31.1968 10.6127C29.8808 11.5094 26.3524 12.829 22.26 11.2213C18.1055 9.58915 16.0777 7.821 15.5831 7.14095L23.0192 1.73291C26.7296 3.56946 29.6637 6.73758 31.1968 10.6127Z" fill="#9ACC10"/>
<path fill-rule="evenodd" clip-rule="evenodd" d="M5.05447e-05 22.963C1.31609 22.0663 4.84454 20.7467 8.93686 22.3544C13.0914 23.9865 15.1192 25.7547 15.6138 26.4347L8.17772 31.8428C4.46728 30.0062 1.53321 26.8381 5.05447e-05 22.963Z" fill="#9ACC10"/>
<path fill-rule="evenodd" clip-rule="evenodd" d="M0.0962932 10.5717C1.92008 11.7155 6.62483 13.2981 10.8535 10.479C11.7979 9.84945 12.7748 9.14886 13.7652 8.43857C18.3186 5.17304 23.1578 1.70254 26.433 3.98757C26.4337 3.98487 26.4344 3.98218 26.4351 3.97948C23.5089 1.49723 19.7209 0 15.5831 0C8.52169 0 2.47874 4.36049 0 10.5357C0.0328903 10.5483 0.0650062 10.5603 0.0962932 10.5717Z" fill="url(#paint0_linear)"/>
<g clip-path="url(#clip0)">
<path d="M23.5569 11.3503C22.9056 11.6894 22.6353 12.3423 22.7315 13.11C22.7604 13.3405 22.6396 13.7013 22.4584 13.8251C21.3239 14.6001 20.166 15.3452 18.9875 16.0557C18.5423 16.3242 18.3235 16.1748 18.2553 15.6639C18.232 15.4894 18.2435 15.3098 18.248 15.1327C18.2734 14.176 18.3467 13.2178 18.3142 12.2631C18.3029 11.9318 18.3645 11.6503 18.4869 11.402C19.1587 11.0241 19.8665 10.7386 20.6171 10.5432C21.1763 11.0216 21.9202 11.1155 22.5629 10.7537C23.2679 10.3567 23.5557 9.52651 23.2492 8.77386C22.9705 8.08943 22.1997 7.69154 21.4248 7.83244C20.5932 7.98346 20.0972 8.61001 20.1032 9.46895C20.1042 9.6131 20.065 9.75762 20.0289 9.90193C19.3485 10.1069 18.6978 10.3858 18.0806 10.7356C17.8586 10.7763 17.6726 10.7658 17.4988 10.698C17.2291 10.4213 16.9592 10.1447 16.6896 9.86796C17.278 8.89257 17.258 8.18124 16.6249 7.58702C16.0823 7.07794 15.2452 6.99641 14.6 7.39004C13.9443 7.78991 13.6749 8.59373 13.9577 9.30638C14.2663 10.0843 14.779 10.3072 16.1215 10.1855C16.5234 10.5977 16.9254 11.01 17.3273 11.4221C17.5804 11.8753 17.7636 12.3578 17.791 12.8994C17.8062 13.1977 17.8092 13.4971 17.8048 13.7966C16.6833 13.0451 15.5564 12.3003 14.4454 11.5343C13.1954 10.6725 11.9791 9.55602 11.797 8.01217C12.0518 7.95344 12.2946 7.84373 12.5088 7.67003C12.692 7.52146 12.8311 7.35708 12.9308 7.18358C13.07 7.05961 13.1656 6.88213 13.1755 6.64953C13.2176 5.64841 12.5885 4.8741 11.6685 4.49932C10.9046 4.18818 10.0662 4.499 9.48499 5.01186C9.45415 5.03107 9.4305 5.05483 9.41083 5.08092C9.31079 5.17603 9.21817 5.27625 9.13758 5.38073C9.0167 5.53722 8.99637 5.73351 9.0426 5.91871C8.85939 7.00003 10.0063 7.96345 11.1623 8.0561C11.327 9.4197 12.1458 10.4925 13.2048 11.3819C14.5871 12.543 16.213 13.4772 17.7143 14.4856C17.7367 14.5006 17.7589 14.5118 17.7809 14.5205C17.7616 14.9002 17.734 15.2797 17.7039 15.6579C17.6356 16.5118 17.4604 17.3345 17.1514 18.1129C16.918 17.9466 16.7397 17.7175 16.6329 17.4519C17.1547 17.0806 17.2495 16.4032 16.9882 15.8584C16.727 15.3133 15.9573 15.1128 15.4101 15.3068C14.9374 15.4744 14.6569 15.895 14.6419 16.3408C14.5855 16.6783 14.7001 17.0352 14.9481 17.3202C15.1711 17.5766 15.5212 17.693 15.8696 17.6879C16.0479 18.165 16.3863 18.5608 16.8235 18.8263C16.6596 19.137 16.4717 19.4392 16.2567 19.732C15.7235 20.4574 15.2217 20.5463 14.5982 19.9071C13.8341 19.124 13.1393 18.2745 12.4514 17.4258C12.1639 17.071 12.1277 16.6495 12.2093 16.225C12.2447 16.1534 12.2799 16.0817 12.3153 16.0102C13.6416 15.8999 14.1978 15.5632 14.3694 14.7824C14.5345 14.0317 14.194 13.3038 13.5285 12.9843C13.2661 12.8583 12.9711 12.8049 12.6832 12.8198C11.8913 12.766 11.1762 13.3606 10.9354 14.0515C10.7204 14.6687 11.0621 15.3356 11.607 15.6593C11.5212 15.8335 11.4354 16.0077 11.3495 16.1819C11.1963 16.1824 11.0211 16.114 10.8538 15.9725C10.277 15.4843 9.77517 14.9113 9.18837 14.4361C8.72652 14.062 8.4512 13.6393 8.33982 13.1634C8.51693 12.3585 8.6942 11.5538 8.87126 10.7489C8.94002 10.7151 9.0177 10.6858 9.10999 10.662C10.1368 10.3979 10.568 9.22244 10.0159 8.33891C9.66968 7.78488 9.0338 7.49999 8.37638 7.60463C7.64364 7.72124 7.15959 8.17047 7.00672 8.87557C6.86995 9.50701 7.17213 10.1452 7.75386 10.5262C7.84644 10.5867 7.96466 10.6691 8.0557 10.753C7.87133 11.5907 7.68697 12.4283 7.5026 13.2659C7.34616 13.2185 7.18872 13.176 7.02905 13.144C6.87481 12.0702 6.48508 11.5918 5.71375 11.4804C4.91886 11.3657 4.19865 11.7286 3.9071 12.391C3.60455 13.0782 3.80838 13.8566 4.40825 14.3049C5.0848 14.8104 5.69682 14.7254 6.83248 13.8932C7.05461 13.9347 7.27284 13.9954 7.4877 14.0728C8.11566 14.616 8.74835 15.1651 9.38813 15.7098C11.157 17.2158 12.5444 18.9898 13.5671 21.0204C11.8427 20.7682 10.321 19.7546 9.46366 18.2468C9.60943 18.1242 9.73641 17.9776 9.83546 17.8104C10.2337 17.1367 9.87878 16.2704 9.23273 15.8953C9.05646 15.793 8.87363 15.7385 8.68959 15.7206C8.55112 15.6595 8.40161 15.6224 8.24617 15.618C7.68103 15.6017 7.21358 15.9034 6.971 16.3725C6.89058 16.415 6.82505 16.4879 6.79916 16.6043C6.79779 16.6105 6.79713 16.6168 6.79576 16.6231C6.72787 16.7246 6.72243 16.8347 6.7563 16.9328C6.72683 17.6044 7.07444 18.2153 7.74336 18.5129C8.07636 18.661 8.42987 18.6816 8.75831 18.6034C9.79513 20.4717 11.7919 21.7008 13.9597 21.8432C14.1368 22.2166 14.3484 22.5906 14.4247 22.9785C14.2336 24.169 13.9172 25.3324 13.4897 26.4683C13.3908 26.7309 13.4793 26.939 13.6458 27.0692C13.6796 27.1361 13.7265 27.1939 13.7657 27.2023C14.7675 27.4161 15.7773 27.5551 16.7791 27.2124C16.8638 27.1834 16.9704 27.0306 16.9752 26.9408C17.0564 26.816 17.0893 26.6571 17.037 26.4716C16.6796 25.2052 16.5077 23.9097 16.5372 22.6086C16.5917 22.3783 16.646 22.1482 16.7014 21.9181C16.7147 21.9132 16.728 21.9099 16.7415 21.9033C17.5437 21.5174 18.3458 21.1315 19.148 20.7457C19.154 20.751 19.1592 20.7567 19.1652 20.7619C19.6446 21.1692 20.36 21.0981 20.8202 20.7096C21.3249 20.2832 21.2372 19.524 20.8621 19.0616C20.4361 18.5364 19.5787 18.618 19.1089 19.0145C19.0696 19.0478 19.0423 19.0834 19.0214 19.12C18.9963 19.1423 18.9725 19.1672 18.9515 19.198C18.775 19.4564 18.7192 19.7716 18.7723 20.0684C18.7635 20.0721 18.7547 20.0739 18.7459 20.0781C18.1478 20.3658 17.5498 20.6535 16.9516 20.9413C17.0241 20.6776 17.1001 20.415 17.1859 20.1554C17.2283 20.0273 17.2736 19.9003 17.3205 19.7739C18.4813 18.4124 20.1928 17.6203 22.0243 17.5794C22.0295 17.5792 22.0339 17.5779 22.039 17.5776C22.0701 17.8298 22.1695 18.0783 22.3475 18.2884C22.8786 18.9155 23.9332 19.088 24.5933 18.5451C25.2283 18.0229 25.3817 16.9891 24.814 16.3619C24.2094 15.694 23.1513 15.6782 22.481 16.2552C22.382 16.3404 22.3466 16.4397 22.354 16.5346C22.2754 16.6229 22.2101 16.7206 22.1595 16.8261C22.1189 16.8136 22.0749 16.8053 22.0242 16.8064C20.6552 16.8369 19.3707 17.236 18.2738 17.9368C18.4479 17.6993 18.6414 17.472 18.86 17.2577C20.087 16.0552 21.5216 15.15 23.0692 14.4029C23.3174 14.283 23.6573 14.2559 23.9367 14.2983C24.7092 14.4154 25.4238 14.1405 25.7723 13.5243C26.1059 12.9342 26.0007 12.1223 25.5279 11.6433C25.0234 11.1324 24.2087 11.011 23.5569 11.3503Z" fill="white"/>
</g>
<path fill-rule="evenodd" clip-rule="evenodd" d="M31.1005 23.0035C29.2767 21.8597 24.5719 20.277 20.3432 23.0962C19.3989 23.7257 18.422 24.4263 17.4316 25.1366C12.8782 28.4022 8.03899 31.8727 4.76378 29.5876C4.76306 29.5903 4.76235 29.593 4.76165 29.5957C7.68783 32.078 11.4759 33.5752 15.6137 33.5752C22.6751 33.5752 28.718 29.2147 31.1968 23.0395C31.1639 23.0269 31.1318 23.0149 31.1005 23.0035Z" fill="url(#paint1_linear)"/>
<defs>
<linearGradient id="paint0_linear" x1="13.2176" y1="0" x2="13.2176" y2="12.0605" gradientUnits="userSpaceOnUse">
<stop stop-color="#C1F531"/>
<stop offset="0.505208" stop-color="#ACD930"/>
<stop offset="0.807292" stop-color="#97C41B"/>
<stop offset="1" stop-color="#7BA30C"/>
</linearGradient>
<linearGradient id="paint1_linear" x1="17.9792" y1="33.5752" x2="17.9792" y2="21.5147" gradientUnits="userSpaceOnUse">
<stop stop-color="#C1F531"/>
<stop offset="0.505208" stop-color="#ACD930"/>
<stop offset="0.807292" stop-color="#97C41B"/>
<stop offset="1" stop-color="#7BA30C"/>
</linearGradient>
<clipPath id="clip0">
<rect width="23.7881" height="23.0447" fill="white" transform="translate(2.97357 4.375)"/>
</clipPath>
</defs>
</svg>
