<svg width="15" height="15" viewBox="0 0 15 15" fill="none" xmlns="http://www.w3.org/2000/svg">
<g filter="url(#filter0_d)">
<g clip-path="url(#clip0)">
<path d="M10.7065 6.84907C10.4839 6.61732 10.2155 6.49341 9.93092 6.49341C9.64869 6.49341 9.37792 6.61502 9.14617 6.84678L8.42108 7.56957C8.36142 7.53745 8.30176 7.50762 8.2444 7.47779C8.16179 7.43649 8.08377 7.39748 8.01723 7.35617C7.33803 6.92479 6.72079 6.36262 6.12878 5.63523C5.84196 5.27269 5.64921 4.96751 5.50924 4.65774C5.6974 4.48564 5.87179 4.30666 6.04159 4.13457C6.10584 4.07032 6.17008 4.00378 6.23433 3.93953C6.7162 3.45766 6.7162 2.83354 6.23433 2.35167L5.60791 1.72525C5.53678 1.65412 5.46335 1.58069 5.39451 1.50726C5.25684 1.365 5.11228 1.21814 4.96313 1.08047C4.74055 0.860188 4.47438 0.743164 4.19444 0.743164C3.9145 0.743164 3.64374 0.860188 3.41428 1.08047C3.41199 1.08276 3.41199 1.08276 3.40969 1.08506L2.62953 1.8721C2.33582 2.16581 2.16832 2.52377 2.1316 2.93909C2.07653 3.60911 2.27387 4.23324 2.42531 4.64167C2.79704 5.64441 3.35233 6.57372 4.18067 7.56957C5.18571 8.76964 6.39495 9.71731 7.7763 10.385C8.30406 10.6351 9.00849 10.9311 9.79554 10.9816C9.84373 10.9839 9.89421 10.9862 9.9401 10.9862C10.4701 10.9862 10.9153 10.7958 11.2641 10.4172C11.2664 10.4126 11.271 10.4103 11.2733 10.4057C11.3926 10.2611 11.5303 10.1303 11.6748 9.99037C11.7735 9.89629 11.8744 9.79762 11.9731 9.69436C12.2003 9.45802 12.3196 9.18267 12.3196 8.90043C12.3196 8.61591 12.198 8.34285 11.9662 8.11339L10.7065 6.84907Z" fill="white"/>
<path d="M7.98972 2.70045C8.59091 2.80141 9.13702 3.08594 9.57299 3.52191C10.009 3.95788 10.2912 4.50399 10.3945 5.10518C10.4197 5.25662 10.5505 5.36217 10.6996 5.36217C10.718 5.36217 10.7341 5.35988 10.7524 5.35758C10.9222 5.33005 11.0347 5.16943 11.0071 4.99963C10.8832 4.27224 10.539 3.6091 10.0136 3.08364C9.48809 2.55818 8.82496 2.21399 8.09757 2.09008C7.92777 2.06255 7.76944 2.17498 7.73961 2.34249C7.70978 2.50999 7.81992 2.67291 7.98972 2.70045Z" fill="white"/>
<path d="M12.9735 4.91009C12.7693 3.71231 12.2049 2.62238 11.3375 1.75502C10.4701 0.887668 9.38022 0.323199 8.18244 0.11898C8.01493 0.0891507 7.85661 0.20388 7.82678 0.371385C7.79924 0.541185 7.91168 0.699512 8.08148 0.729342C9.15076 0.910614 10.126 1.41772 10.9015 2.191C11.6771 2.96657 12.1819 3.94177 12.3632 5.01105C12.3884 5.16249 12.5192 5.26804 12.6684 5.26804C12.6867 5.26804 12.7028 5.26575 12.7211 5.26345C12.8886 5.23821 13.0034 5.07759 12.9735 4.91009Z" fill="white"/>
</g>
</g>
<defs>
<filter id="filter0_d" x="0.114258" y="0.114258" width="14.8719" height="14.8719" filterUnits="userSpaceOnUse" color-interpolation-filters="sRGB">
<feFlood flood-opacity="0" result="BackgroundImageFix"/>
<feColorMatrix in="SourceAlpha" type="matrix" values="0 0 0 0 0 0 0 0 0 0 0 0 0 0 0 0 0 0 127 0"/>
<feOffset dy="2"/>
<feGaussianBlur stdDeviation="1"/>
<feColorMatrix type="matrix" values="0 0 0 0 0 0 0 0 0 0 0 0 0 0 0 0 0 0 0.19 0"/>
<feBlend mode="normal" in2="BackgroundImageFix" result="effect1_dropShadow"/>
<feBlend mode="normal" in="SourceGraphic" in2="effect1_dropShadow" result="shape"/>
</filter>
<clipPath id="clip0">
<rect width="10.8719" height="10.8719" fill="white" transform="translate(2.11426 0.114258)"/>
</clipPath>
</defs>
</svg>
