<svg width="38" height="38" viewBox="0 0 38 38" fill="none" xmlns="http://www.w3.org/2000/svg">
<g clip-path="url(#clip0)">
<path d="M37.1034 5.11522C36.907 4.87868 36.556 4.84625 36.3196 5.04263C36.0831 5.23901 36.0506 5.58999 36.247 5.82646C36.6406 6.30034 36.7453 6.9499 36.5201 7.52183L35.0173 11.3424C34.677 12.2067 33.6969 12.6334 32.8326 12.2937L22.396 8.18795C21.9774 8.0234 21.648 7.70553 21.4684 7.29294C21.2889 6.88021 21.2808 6.42228 21.4457 6.00339L22.9487 2.18254C23.1132 1.76394 23.4311 1.43456 23.8438 1.25488C24.2565 1.07519 24.7145 1.06696 25.1332 1.2315L34.5329 4.92974C34.8191 5.04233 35.1421 4.90162 35.2546 4.61558C35.3672 4.32954 35.2265 4.00639 34.9405 3.8938L25.5406 0.195479C24.8452 -0.0778691 24.0847 -0.0641386 23.3995 0.234147C22.714 0.532506 22.1859 1.07987 21.9126 1.77522L20.4098 5.59578C20.136 6.29121 20.1494 7.05173 20.4476 7.73714C20.7459 8.42263 21.2932 8.95077 21.9886 9.22404L32.4252 13.3298C32.7602 13.4615 33.1054 13.5238 33.4453 13.5238C34.5622 13.5238 35.62 12.8504 36.0532 11.7501L37.556 7.92944C37.9299 6.97989 37.7565 5.90149 37.1034 5.11522Z" fill="#9ACC10"/>
<path d="M9.1197 19.953V24.0587C9.1197 25.6015 10.3749 26.8567 11.9177 26.8567H12.841C13.1484 26.8567 13.3976 26.6075 13.3976 26.3001C13.3976 25.9927 13.1484 25.7434 12.841 25.7434H11.9177C10.9888 25.7434 10.233 24.9877 10.233 24.0587V19.953C10.233 19.024 10.9888 18.2682 11.9177 18.2682H23.132C24.061 18.2682 24.8167 19.024 24.8167 19.953V24.0587C24.8167 24.9877 24.061 25.7434 23.132 25.7434H15.0675C14.7601 25.7434 14.5109 25.9927 14.5109 26.3001C14.5109 26.6075 14.7601 26.8567 15.0675 26.8567H23.1321C24.6749 26.8567 25.9301 25.6015 25.9301 24.0587V19.953C25.9301 18.4101 24.6749 17.1549 23.1321 17.1549H11.9177C10.3749 17.155 9.1197 18.4102 9.1197 19.953Z" fill="#9ACC10"/>
<path d="M24.057 14.6501C22.4762 14.6895 21.1109 14.7235 20.3819 14.6068C19.5937 14.4805 19.1624 14.0662 18.9834 13.2632C18.8061 12.4682 18.9132 11.4688 19.0077 10.5872C19.0567 10.1303 19.1029 9.69876 19.1029 9.33888C19.1029 7.06867 17.5648 6.01135 14.2622 6.01135H3.04742C1.50471 6.01135 0.249596 7.26647 0.249596 8.80918V35.2022C0.249596 36.745 1.50471 38.0001 3.04742 38.0001H14.2622H14.2623H14.2624H20.7875H20.7877H32.0022C33.5449 38.0001 34.8001 36.745 34.8001 35.2023V17.7117C34.8001 17.0848 34.5686 16.5412 34.1123 16.096C32.4164 14.4418 27.7813 14.5573 24.057 14.6501ZM33.6869 25.7431H29.6578C28.7287 25.7431 27.9727 24.9875 27.9727 24.0588V19.9528C27.9727 19.024 28.7287 18.2684 29.6578 18.2684H33.6868V25.7431H33.6869ZM17.9897 9.33888C17.9897 9.63931 17.9465 10.0421 17.9008 10.4685C17.8023 11.3877 17.6797 12.5315 17.8968 13.5054C18.1736 14.7473 18.9722 15.5083 20.2058 15.706C21.036 15.839 22.4489 15.8038 24.0847 15.763C27.4148 15.6801 31.9749 15.5663 33.335 16.8929C33.4205 16.9764 33.4891 17.0633 33.5427 17.155H29.6578C28.1148 17.155 26.8595 18.41 26.8595 19.9527V24.0587C26.8595 25.6013 28.1148 26.8564 29.6578 26.8564H33.6868V28.864C33.2179 28.5092 32.6343 28.2984 32.0022 28.2984H20.7876C19.2448 28.2984 17.9897 29.5535 17.9897 31.0962V35.2021C17.9897 35.8342 18.2006 36.4177 18.5554 36.8867H16.4943C16.8491 36.4177 17.06 35.8342 17.06 35.2021V31.0963C17.06 29.5535 15.8049 28.2984 14.2621 28.2984H3.04742C2.41537 28.2984 1.83179 28.5094 1.36288 28.8641V26.8564H5.39192C6.93492 26.8564 8.19026 25.6014 8.19026 24.0588V19.9528C8.19026 18.4101 6.93492 17.1551 5.39192 17.1551H1.36288V15.1473C1.83187 15.5021 2.41537 15.713 3.04742 15.713H14.2622C15.805 15.713 17.0601 14.4579 17.0601 12.9152V8.80925C17.0601 8.31213 16.9291 7.84522 16.7008 7.44021C17.857 7.85391 17.9897 8.61279 17.9897 9.33888ZM1.36288 18.2684H5.39192C6.32106 18.2684 7.07698 19.024 7.07698 19.9528V24.0588C7.07698 24.9875 6.32106 25.7431 5.39192 25.7431H1.36288V18.2684ZM1.36288 8.80918C1.36288 7.88033 2.11857 7.12456 3.04742 7.12456H14.2622C15.191 7.12456 15.9468 7.88025 15.9468 8.80918V12.9151C15.9468 13.844 15.1911 14.5997 14.2622 14.5997H3.04742C2.11857 14.5997 1.36288 13.844 1.36288 12.9151V8.80918ZM1.36288 35.2023V31.0963C1.36288 30.1674 2.11857 29.4116 3.04742 29.4116H14.2622C15.191 29.4116 15.9468 30.1673 15.9468 31.0963V35.2022C15.9468 36.131 15.1911 36.8868 14.2622 36.8868H3.04742C2.11857 36.8868 1.36288 36.1311 1.36288 35.2023ZM32.0023 36.8868H20.7878H20.7876C19.8588 36.8868 19.103 36.1311 19.103 35.2022V31.0963C19.103 30.1674 19.8587 29.4116 20.7876 29.4116H32.0024C32.9312 29.4116 33.687 30.1673 33.687 31.0963V35.2022C33.6869 36.1311 32.9311 36.8868 32.0023 36.8868Z" fill="#9ACC10"/>
</g>
<defs>
<clipPath id="clip0">
<rect width="38" height="38" fill="white"/>
</clipPath>
</defs>
</svg>
