<svg width="50" height="50" viewBox="0 0 50 50" fill="none" xmlns="http://www.w3.org/2000/svg">
<path d="M41.7939 7.96509H39.3534C38.989 7.96509 38.7583 8.19585 38.7583 8.45083H38.7582V16.3433C38.7582 16.6711 39.1468 16.8411 39.5475 16.8411C39.9361 16.8411 40.3368 16.6712 40.3368 16.3433V13.5263H41.6968C43.2995 13.5263 44.5502 12.7613 44.5502 10.77V10.6972C44.5502 8.70581 43.336 7.96509 41.7939 7.96509ZM42.9716 10.8914C42.9716 11.8385 42.486 12.2878 41.6967 12.2878H40.3368V9.34936H41.6967C42.486 9.34936 42.9716 9.79868 42.9716 10.7457V10.8914Z" fill="#9ACC10"/>
<path d="M28.6199 11.0504C26.3148 8.74538 23.2502 7.47595 19.9904 7.47595C16.7305 7.47595 13.6659 8.74538 11.3608 11.0504C11.0826 11.3286 11.0826 11.7795 11.3608 12.0578C11.6389 12.3359 12.0899 12.3359 12.368 12.0578C14.404 10.0218 17.111 8.90056 19.9903 8.90056C22.8695 8.90056 25.5766 10.0218 27.6125 12.0578C27.7516 12.1968 27.934 12.2664 28.1162 12.2664C28.2984 12.2664 28.4807 12.1968 28.6199 12.0578C28.898 11.7796 28.898 11.3286 28.6199 11.0504Z" fill="#9ACC10"/>
<path d="M25.6814 13.9891C22.5433 10.851 17.4373 10.851 14.2994 13.9891C14.0211 14.2672 14.0211 14.7183 14.2994 14.9964C14.5775 15.2745 15.0286 15.2745 15.3067 14.9964C17.8893 12.4139 22.0914 12.4139 24.674 14.9964C24.8131 15.1354 24.9953 15.205 25.1776 15.205C25.3599 15.205 25.5422 15.1354 25.6814 14.9964C25.9595 14.7183 25.9595 14.2672 25.6814 13.9891Z" fill="#9ACC10"/>
<path d="M22.7893 16.8809C21.2459 15.3376 18.7347 15.3376 17.1913 16.8809C16.9131 17.159 16.9131 17.61 17.1913 17.8882C17.4695 18.1664 17.9205 18.1663 18.1987 17.8882C19.1866 16.9003 20.7941 16.9003 21.782 17.8882C21.9211 18.0274 22.1034 18.0968 22.2856 18.0968C22.4679 18.0968 22.6502 18.0273 22.7893 17.8882C23.0675 17.61 23.0675 17.1591 22.7893 16.8809Z" fill="#9ACC10"/>
<path d="M35.0508 30.7537C34.7426 30.5841 34.4385 30.3983 34.1471 30.2015L29.4357 27.0187C28.0058 26.0527 26.3379 25.5421 24.6123 25.5421H15.9648C13.6694 25.5421 11.5096 26.4344 9.88327 28.0545C9.04733 28.8874 8.09499 29.5841 7.05271 30.1253C6.43631 30.4454 6.0534 31.0754 6.0534 31.7694C6.0534 32.7915 6.88484 33.6229 7.90691 33.6229H10.8551C11.2485 33.6229 11.5674 33.304 11.5674 32.9106C11.5674 32.5173 11.2485 32.1983 10.8551 32.1983H7.90691C7.67038 32.1983 7.4779 32.0059 7.4779 31.7693C7.4779 31.6091 7.56648 31.4636 7.70915 31.3895C8.88014 30.7815 9.94996 29.9989 10.8886 29.0637C12.246 27.7113 14.0488 26.9666 15.9647 26.9666H17.9007V32.1983H15.5343C15.141 32.1983 14.822 32.5173 14.822 32.9106C14.822 33.304 15.141 33.6229 15.5343 33.6229H35.0653C35.6508 33.6229 36.1272 33.1466 36.1272 32.561C36.1272 31.8112 35.7147 31.1187 35.0508 30.7537ZM19.3255 32.1984V26.9667H24.6124C26.0527 26.9667 27.4449 27.3929 28.6384 28.1991L33.3498 31.3819C33.6769 31.6029 34.0182 31.8115 34.3645 32.0019C34.4542 32.0513 34.5293 32.119 34.5857 32.1984H19.3255Z" fill="#9ACC10"/>
<path d="M21.0903 34.7058H18.8902C18.4968 34.7058 18.1779 35.0248 18.1779 35.4181C18.1779 35.8115 18.4968 36.1304 18.8902 36.1304H21.0903C21.4837 36.1304 21.8026 35.8115 21.8026 35.4181C21.8026 35.0248 21.4837 34.7058 21.0903 34.7058Z" fill="#9ACC10"/>
<path d="M49.3854 34.1079L49.1604 33.7345C48.3125 32.3273 46.9021 31.3365 45.2908 31.016L43.4519 30.6503V21.3293H48.2108C49.1907 21.3293 49.9878 20.5322 49.9878 19.5524V5.68027C49.9878 4.70039 49.1906 3.90332 48.2108 3.90332H34.3387C33.3589 3.90332 32.5618 4.70049 32.5618 5.68027V10.9425C32.5618 11.3358 32.8806 11.6548 33.2741 11.6548C33.6675 11.6548 33.9864 11.3358 33.9864 10.9425V5.68027C33.9864 5.48593 34.1445 5.32783 34.3388 5.32783H48.211C48.4054 5.32783 48.5635 5.48593 48.5635 5.68027V19.5525C48.5635 19.7468 48.4054 19.9049 48.211 19.9049H34.3387C34.1444 19.9049 33.9863 19.7468 33.9863 19.5525V15.5731C33.9863 15.1797 33.6674 14.8608 33.274 14.8608C32.8805 14.8608 32.5617 15.1797 32.5617 15.5731V19.5525C32.5617 20.5324 33.3589 21.3294 34.3386 21.3294H39.7352V29.9113L38.7899 29.7233C37.4852 29.4639 36.2132 28.6765 35.3699 28.1066L30.6586 24.9239C28.8661 23.7131 26.7754 23.0731 24.6123 23.0731H15.9649C13.0874 23.0731 10.3801 24.1915 8.34176 26.2223C7.05193 27.5073 5.4283 28.3838 3.64637 28.757L2.62372 28.9712C1.10341 29.2895 0 30.6481 0 32.2014V39.0999C0 39.9227 0.485838 40.6705 1.23789 41.0046L4.07498 42.2656C4.24657 43.1627 4.67879 44.0195 5.37195 44.7126C6.29314 45.6338 7.50319 46.0945 8.71334 46.0945C9.9235 46.0945 11.1335 45.6338 12.0547 44.7126C12.6472 44.1202 13.048 43.4079 13.2594 42.6534H36.9152C37.1266 43.4079 37.5275 44.1202 38.12 44.7126C39.0125 45.6051 40.1991 46.0967 41.4614 46.0967C42.7236 46.0967 43.9103 45.6052 44.8028 44.7126C45.3953 44.1202 45.7961 43.4079 46.0075 42.6534H47.3588C48.8151 42.6534 50 41.4685 50 40.0122V36.3176C49.9998 35.5389 49.7873 34.7749 49.3854 34.1079ZM41.1598 21.3293H42.0274V30.367L41.1598 30.1944V21.3293ZM11.0473 43.7054C10.4239 44.3288 9.59498 44.6722 8.71325 44.6722C7.83151 44.6722 7.00261 44.3288 6.37917 43.7054C5.37908 42.7053 5.15662 41.2181 5.71072 40.0007C5.71521 39.991 5.71951 39.9811 5.724 39.9713C5.7409 39.9352 5.75877 39.8995 5.77703 39.8639C5.78562 39.8471 5.79422 39.8304 5.8032 39.8138C5.8197 39.783 5.83689 39.7523 5.85447 39.7218C5.86658 39.7008 5.87898 39.68 5.89158 39.6593C5.90789 39.6325 5.92439 39.6057 5.94158 39.5793C5.95711 39.5553 5.97312 39.5317 5.98933 39.5082C6.00535 39.4848 6.02127 39.4614 6.03787 39.4384C6.05691 39.4122 6.07673 39.3864 6.09666 39.3606C6.11218 39.3405 6.12732 39.3202 6.14333 39.3004C6.16677 39.2713 6.19128 39.243 6.2157 39.2147C6.22966 39.1986 6.24304 39.1821 6.2573 39.1662C6.29363 39.1258 6.33103 39.0863 6.36951 39.0475C6.37283 39.0442 6.37585 39.0407 6.37917 39.0374C6.3865 39.03 6.39421 39.0232 6.40163 39.016C6.43425 38.9839 6.46706 38.9523 6.50056 38.9219C6.50925 38.914 6.51843 38.9067 6.52722 38.8989C6.56062 38.8693 6.59421 38.8399 6.62859 38.8119C6.63181 38.8092 6.63523 38.8068 6.63845 38.8042C7.84577 37.8271 9.58707 37.8283 10.7929 38.8081C10.7943 38.8092 10.7958 38.8102 10.7972 38.8114C10.834 38.8414 10.8701 38.8728 10.9059 38.9046C10.9124 38.9103 10.919 38.9157 10.9253 38.9214C10.9668 38.9588 11.0074 38.9974 11.0472 39.0373C11.0902 39.0802 11.1316 39.1245 11.1718 39.1693C11.1895 39.189 11.2062 39.2092 11.2233 39.2293C11.2442 39.2537 11.2652 39.2782 11.2853 39.3031C11.3079 39.3311 11.3296 39.3596 11.3511 39.3881C11.3632 39.4041 11.3752 39.4201 11.387 39.4362C11.413 39.4721 11.4384 39.5085 11.4629 39.5453C11.4671 39.5515 11.4712 39.5579 11.4753 39.5641C12.3132 40.8439 12.1707 42.582 11.0473 43.7054ZM43.7953 43.7054C43.1718 44.3288 42.3429 44.6722 41.4612 44.6722C40.5794 44.6722 39.7506 44.3288 39.1272 43.7054C38.0037 42.582 37.8611 40.8436 38.6991 39.5639C38.7031 39.5578 38.7071 39.5516 38.7112 39.5456C38.7357 39.5086 38.7612 39.4722 38.7873 39.4361C38.799 39.4201 38.8109 39.4043 38.8229 39.3885C38.8445 39.3598 38.8664 39.3312 38.8891 39.303C38.9091 39.2783 38.9298 39.2541 38.9506 39.2298C38.9679 39.2096 38.9848 39.1891 39.0027 39.1693C39.0429 39.1245 39.0843 39.0803 39.1273 39.0374C39.7507 38.4139 40.5795 38.0706 41.4613 38.0706C42.343 38.0706 43.1719 38.4139 43.7953 39.0374C43.8383 39.0803 43.8797 39.1246 43.9199 39.1694C43.9377 39.1891 43.9544 39.2094 43.9716 39.2295C43.9925 39.2539 44.0134 39.2783 44.0334 39.3031C44.0561 39.3312 44.0779 39.3597 44.0994 39.3883C44.1114 39.4043 44.1235 39.4202 44.1352 39.4363C44.1613 39.4723 44.1867 39.5086 44.2112 39.5454C44.2154 39.5516 44.2195 39.5579 44.2236 39.5641C45.0612 40.8438 44.9187 42.5821 43.7953 43.7054ZM48.5755 40.0122H48.5753C48.5753 40.6831 48.0295 41.2289 47.3586 41.2289H46.186C46.158 40.1958 45.7934 39.2101 45.1371 38.402C45.1327 38.3965 45.1285 38.3909 45.124 38.3854C45.0834 38.3359 45.0413 38.2874 44.9986 38.2391C44.9876 38.2268 44.9773 38.2141 44.9662 38.2018C44.9209 38.1519 44.874 38.103 44.8264 38.0547C44.8183 38.0465 44.8109 38.038 44.8027 38.0298C44.189 37.4163 43.4364 36.9922 42.6157 36.7871C42.2427 36.6938 41.8557 36.6459 41.4612 36.6459C41.1456 36.6459 40.8348 36.6766 40.5321 36.7366C39.624 36.9167 38.7892 37.3605 38.1198 38.0298C38.1118 38.0379 38.1044 38.0463 38.0965 38.0544C38.0487 38.1029 38.0016 38.1519 37.9562 38.202C37.9455 38.2138 37.9355 38.2261 37.9249 38.238C37.8818 38.2867 37.8392 38.3357 37.7983 38.3857C37.7942 38.3907 37.7904 38.3959 37.7863 38.4009C37.1295 39.2091 36.7645 40.1954 36.7365 41.229H13.4379C13.4099 40.1941 13.0441 39.2067 12.3857 38.3978C12.3827 38.394 12.3797 38.3902 12.3767 38.3864C12.3337 38.3338 12.2891 38.2824 12.2437 38.2314C12.2353 38.222 12.2275 38.2124 12.219 38.203C12.1658 38.1443 12.1111 38.0865 12.0545 38.0299C11.8243 37.7997 11.5758 37.5981 11.314 37.4254C10.5283 36.9072 9.62076 36.6481 8.71325 36.6481C7.50319 36.6481 6.29304 37.1088 5.37185 38.0299C5.31922 38.0826 5.26834 38.1366 5.21853 38.1913C5.20379 38.2075 5.18963 38.224 5.17508 38.2403C5.13992 38.28 5.10535 38.3202 5.07166 38.3608C5.05672 38.3789 5.04178 38.397 5.02713 38.4154C4.99227 38.4588 4.95828 38.5028 4.92508 38.5472C4.91473 38.5611 4.90408 38.5747 4.89402 38.5886C4.80477 38.7108 4.72195 38.8368 4.64539 38.966C4.64324 38.9696 4.64119 38.9733 4.63904 38.9769C4.60164 39.0405 4.5658 39.1049 4.53153 39.1701C4.53055 39.1719 4.52957 39.1739 4.5285 39.1757C4.28016 39.6483 4.11317 40.1594 4.0366 40.6896L1.81659 39.7029C1.57851 39.597 1.4247 39.3603 1.4247 39.0999V32.2014C1.4247 31.3185 2.05194 30.5464 2.9161 30.3653L3.93875 30.1512C5.99148 29.7212 7.86179 28.7115 9.34752 27.2314C11.117 25.4684 13.4672 24.4975 15.9652 24.4975H24.6126C26.4904 24.4975 28.3054 25.0531 29.8614 26.1042L34.5727 29.2869C35.5181 29.9257 36.9551 30.8106 38.5122 31.1204L45.0132 32.4132C46.2321 32.6556 47.299 33.4052 47.9405 34.4696L48.1655 34.843C48.4338 35.2881 48.5755 35.798 48.5755 36.3176V40.0122Z" fill="#9ACC10"/>
<path d="M10.2424 39.8423C9.83384 39.4338 9.29088 39.2089 8.71324 39.2089C8.13561 39.2089 7.59254 39.4339 7.18415 39.8423C6.77575 40.2507 6.55075 40.7937 6.55075 41.3714C6.55075 41.949 6.77575 42.4921 7.18415 42.9004C7.59254 43.3088 8.13561 43.5338 8.71334 43.5338C9.29098 43.5338 9.83404 43.3089 10.2424 42.9004C11.0856 42.0573 11.0856 40.6854 10.2424 39.8423ZM9.23502 41.8931C9.09566 42.0325 8.91031 42.1092 8.71324 42.1092C8.51608 42.1092 8.33082 42.0325 8.19147 41.893C8.05211 41.7537 7.97526 41.5684 7.97526 41.3713C7.97526 41.1741 8.05201 40.9888 8.19147 40.8495C8.33082 40.7101 8.51608 40.6333 8.71324 40.6333C8.91031 40.6333 9.09566 40.71 9.23502 40.8495C9.52271 41.1373 9.52271 41.6054 9.23502 41.8931Z" fill="#9ACC10"/>
<path d="M42.9904 39.8424C42.582 39.4339 42.0389 39.2089 41.4612 39.2089C40.8835 39.2089 40.3406 39.4338 39.932 39.8423C39.0889 40.6854 39.0889 42.0573 39.932 42.9004C40.3405 43.3089 40.8835 43.5338 41.4612 43.5338C42.0389 43.5338 42.5819 43.3089 42.9903 42.9005C43.3987 42.4922 43.6237 41.9491 43.6237 41.3714C43.6237 40.7938 43.3988 40.2508 42.9904 39.8424ZM41.9829 41.8932C41.8436 42.0326 41.6583 42.1093 41.4612 42.1093C41.2641 42.1093 41.0787 42.0326 40.9394 41.8932C40.6517 41.6055 40.6517 41.1374 40.9394 40.8497C41.0787 40.7103 41.2641 40.6335 41.4612 40.6335C41.6583 40.6335 41.8436 40.7102 41.983 40.8497C42.1224 40.989 42.1991 41.1743 42.1991 41.3714C42.1991 41.5684 42.1225 41.7538 41.9829 41.8932Z" fill="#9ACC10"/>
</svg>
