<svg width="44" height="44" viewBox="0 0 44 44" fill="none" xmlns="http://www.w3.org/2000/svg">
<path d="M5.60888 16.7791C3.71181 16.7791 2.16846 18.3224 2.16846 20.2195C2.16846 22.1166 3.71181 23.6599 5.60888 23.6599C7.50595 23.6599 9.0493 22.1166 9.0493 20.2195C9.0493 18.3224 7.50586 16.7791 5.60888 16.7791ZM5.60888 22.3708C4.4226 22.3708 3.45752 21.4058 3.45752 20.2195C3.45752 19.0332 4.4226 18.0681 5.60888 18.0681C6.79516 18.0681 7.76024 19.0332 7.76024 20.2195C7.76024 21.4058 6.79507 22.3708 5.60888 22.3708Z" fill="#9ACC10"/>
<path d="M5.60888 6.85034C3.71189 6.85034 2.16846 8.39369 2.16846 10.2908C2.16846 12.1878 3.71181 13.7312 5.60888 13.7312C7.50595 13.7312 9.0493 12.1878 9.0493 10.2908C9.0493 8.39369 7.50586 6.85034 5.60888 6.85034ZM5.60888 12.4421C4.4226 12.4421 3.45752 11.477 3.45752 10.2908C3.45752 9.10448 4.4226 8.1394 5.60888 8.1394C6.79516 8.1394 7.76024 9.10448 7.76024 10.2908C7.76024 11.477 6.79516 12.4421 5.60888 12.4421Z" fill="#9ACC10"/>
<path d="M5.60888 26.7076C3.71189 26.7076 2.16846 28.251 2.16846 30.1481C2.16846 32.0451 3.71181 33.5885 5.60888 33.5885C7.50595 33.5885 9.0493 32.0451 9.0493 30.1481C9.0493 28.251 7.50586 26.7076 5.60888 26.7076ZM5.60888 32.2994C4.4226 32.2994 3.45752 31.3343 3.45752 30.1481C3.45752 28.9618 4.4226 27.9967 5.60888 27.9967C6.79516 27.9967 7.76024 28.9618 7.76024 30.1481C7.76024 31.3343 6.79516 32.2994 5.60888 32.2994Z" fill="#9ACC10"/>
<path d="M42.6598 32.3936C42.5124 32.0696 42.1302 31.9264 41.8062 32.0738C41.4821 32.2212 41.3389 32.6033 41.4863 32.9274C42.2122 34.5233 42.6186 36.2368 42.6968 38.029H22.0966C21.9154 34.2519 20.1389 30.7716 16.9311 27.9285C15.9387 27.0489 14.9506 26.3526 14.1094 25.8283H34.3051C34.6727 25.8283 35.0301 25.9278 35.3385 26.1162C36.3907 26.7585 38.4045 28.1813 40.0705 30.4942C40.2786 30.7832 40.6815 30.8486 40.9703 30.6406C41.259 30.4325 41.3246 30.0297 41.1165 29.7409C39.3182 27.2442 37.1454 25.7089 36.0103 25.016C35.768 24.8681 35.5076 24.7544 35.2367 24.6746C36.5769 23.6486 37.4434 22.0338 37.4434 20.2195C37.4434 18.0672 36.2241 16.1952 34.4407 15.2551C36.2241 14.315 37.4434 12.4431 37.4434 10.2908C37.4434 7.19805 34.9273 4.68188 31.8345 4.68188H28.9685C28.6125 4.68188 28.324 4.97046 28.324 5.32642C28.324 5.68237 28.6125 5.97095 28.9685 5.97095H31.8345C34.2164 5.97095 36.1543 7.90875 36.1543 10.2908C36.1543 12.6728 34.2164 14.6106 31.8345 14.6106H9.18225C10.4247 13.581 11.2177 12.0268 11.2177 10.2909C11.2177 8.55483 10.4247 7.00065 9.18225 5.97103H26.0314C26.3875 5.97103 26.6759 5.68245 26.6759 5.3265C26.6759 4.97055 26.3875 4.68197 26.0314 4.68197H5.60888C2.51608 4.68188 0 7.19805 0 10.2909C0 12.4432 1.2192 14.315 3.00266 15.2552C1.2192 16.1952 0 18.0672 0 20.2195C0 22.3718 1.2192 24.2437 3.00266 25.1838C1.2192 26.1239 0 27.9958 0 30.1481C0 33.2408 2.51608 35.757 5.60888 35.757H12.969C13.325 35.757 13.6135 35.4684 13.6135 35.1124C13.6135 34.7565 13.325 34.4679 12.969 34.4679H9.18234C10.4248 33.4383 11.2178 31.8841 11.2178 30.1481C11.2178 28.4121 10.4248 26.858 9.18234 25.8283H11.4049C11.9071 26.0543 14.0222 27.0645 16.1055 28.9192C17.9891 30.596 19.3132 32.4523 20.0697 34.4678H15.9062C15.5502 34.4678 15.2616 34.7564 15.2616 35.1123C15.2616 35.4683 15.5502 35.7569 15.9062 35.7569H20.4705C20.7046 36.6981 20.823 37.6707 20.823 38.6735C20.823 39.0295 21.1116 39.318 21.4675 39.318H43.3555C43.5264 39.318 43.6903 39.2502 43.8113 39.1292C43.9321 39.0084 44 38.8444 44 38.6735C44 36.4617 43.5491 34.3488 42.6598 32.3936ZM1.28906 10.2909C1.28906 7.90884 3.22687 5.97095 5.60888 5.97095C7.9909 5.97095 9.9287 7.90884 9.9287 10.2908C9.9287 12.6722 7.99176 14.6096 5.6106 14.6105H5.60897C5.6088 14.6105 5.60862 14.6105 5.60845 14.6105C3.22661 14.6102 1.28906 12.6726 1.28906 10.2909ZM1.28906 20.2195C1.28906 17.8375 3.22687 15.8997 5.60888 15.8997C7.9909 15.8997 9.9287 17.8375 9.9287 20.2195C9.9287 22.6015 7.9909 24.5393 5.60888 24.5393C3.22687 24.5393 1.28906 22.6014 1.28906 20.2195ZM9.92862 30.1481C9.92862 32.53 7.99081 34.4679 5.6088 34.4679C3.22678 34.4679 1.28906 32.53 1.28906 30.1481C1.28906 27.7662 3.22687 25.8283 5.60888 25.8283C7.9909 25.8283 9.92862 27.7662 9.92862 30.1481ZM9.18225 24.5393C10.4247 23.5097 11.2177 21.9555 11.2177 20.2195C11.2177 18.4834 10.4247 16.9294 9.18225 15.8997H31.8345C34.2164 15.8997 36.1543 17.8375 36.1543 20.2195C36.1543 22.6014 34.2164 24.5393 31.8345 24.5393H9.18225Z" fill="#9ACC10"/>
</svg>
