<svg width="42" height="42" viewBox="0 0 42 42" fill="none" xmlns="http://www.w3.org/2000/svg">
<path d="M17.0625 30.1875V24.9375C17.0625 24.4154 16.8551 23.9146 16.4859 23.5454C16.1166 23.1762 15.6159 22.9688 15.0937 22.9688C14.5716 22.9688 14.0708 23.1762 13.7016 23.5454C13.3324 23.9146 13.125 24.4154 13.125 24.9375V30.1875C12.631 30.5612 12.2528 31.067 12.0343 31.6466C11.8157 32.2262 11.7657 32.8558 11.8899 33.4626C12.0142 34.0694 12.3076 34.6287 12.7364 35.0757C13.1652 35.5228 13.7117 35.8393 14.3128 35.9888C14.5684 36.0528 14.8303 36.0881 15.0937 36.0938C15.7824 36.0938 16.4536 35.8771 17.0123 35.4744C17.571 35.0717 17.9888 34.5035 18.2066 33.8501C18.4244 33.1968 18.4311 32.4915 18.2257 31.8341C18.0204 31.1768 17.6134 30.6007 17.0625 30.1875ZM16.3144 34.3416C16.104 34.5204 15.8583 34.653 15.5933 34.7308C15.3283 34.8085 15.0499 34.8296 14.7762 34.7927C14.5025 34.7558 14.2396 34.6617 14.0047 34.5166C13.7697 34.3715 13.5679 34.1785 13.4124 33.9503C13.2568 33.7221 13.1511 33.4638 13.1019 33.192C13.0527 32.9203 13.0613 32.6412 13.127 32.373C13.1928 32.1047 13.3142 31.8533 13.4835 31.6351C13.6527 31.4169 13.8659 31.2367 14.1094 31.1063C14.2095 31.0484 14.2926 30.9652 14.3502 30.8649C14.4079 30.7647 14.438 30.6509 14.4375 30.5353V24.9375C14.4375 24.7635 14.5066 24.5965 14.6297 24.4735C14.7528 24.3504 14.9197 24.2812 15.0937 24.2812C15.2678 24.2812 15.4347 24.3504 15.5578 24.4735C15.6809 24.5965 15.75 24.7635 15.75 24.9375V30.5484C15.7495 30.6641 15.7796 30.7778 15.8373 30.878C15.8949 30.9783 15.978 31.0616 16.0781 31.1194C16.3536 31.2807 16.5857 31.5066 16.7545 31.7776C16.9233 32.0486 17.0236 32.3565 17.0468 32.6749C17.0701 32.9933 17.0156 33.3126 16.888 33.6052C16.7604 33.8979 16.5635 34.1551 16.3144 34.3547V34.3416Z" fill="#9ACC10"/>
<path d="M40.1756 24.9375L38.0034 24.4584C36.9174 24.2094 35.8928 23.744 34.9908 23.09C34.0887 22.4361 33.3278 21.6069 32.7534 20.6522C32.6953 20.5543 32.6127 20.4731 32.5138 20.4168C32.4148 20.3604 32.3029 20.3308 32.1891 20.3308C32.0752 20.3308 31.9633 20.3604 31.8643 20.4168C31.7654 20.4731 31.6828 20.5543 31.6247 20.6522C30.8108 21.9972 29.6289 23.0811 28.2188 23.7759V21C28.2184 20.3618 28.032 19.7376 27.6823 19.2038C27.3327 18.6699 26.8349 18.2496 26.25 17.9944V11.8125C26.25 8.85368 25.0746 6.01604 22.9824 3.92384C20.8902 1.83164 18.0526 0.65625 15.0938 0.65625C12.1349 0.65625 9.29729 1.83164 7.20509 3.92384C5.11289 6.01604 3.9375 8.85368 3.9375 11.8125V17.9944C3.35261 18.2496 2.85485 18.6699 2.50517 19.2038C2.1555 19.7376 1.96908 20.3618 1.96875 21V22.9688H1.3125C1.13845 22.9688 0.971532 23.0379 0.848461 23.161C0.72539 23.284 0.65625 23.451 0.65625 23.625V35.4375C0.65625 35.6115 0.72539 35.7785 0.848461 35.9015C0.971532 36.0246 1.13845 36.0938 1.3125 36.0938H1.96875V38.0625C1.96875 38.9327 2.31445 39.7673 2.92981 40.3827C3.54516 40.998 4.37976 41.3438 5.25 41.3438H24.9375C25.8077 41.3438 26.6423 40.998 27.2577 40.3827C27.8731 39.7673 28.2188 38.9327 28.2188 38.0625V37.9772C29.1188 39.0312 30.131 39.984 31.2375 40.8188L31.7625 41.2125C31.8761 41.2977 32.0143 41.3438 32.1563 41.3438C32.2982 41.3438 32.4364 41.2977 32.55 41.2125L33.075 40.8188C35.433 39.0408 37.3473 36.741 38.668 34.0996C39.9887 31.4582 40.6799 28.5469 40.6875 25.5938C40.6912 25.442 40.6422 25.2938 40.5489 25.1741C40.4556 25.0544 40.3237 24.9708 40.1756 24.9375ZM5.25 11.8125C5.25 9.20178 6.28711 6.69798 8.13317 4.85192C9.97923 3.00586 12.483 1.96875 15.0938 1.96875C17.7045 1.96875 20.2083 3.00586 22.0543 4.85192C23.9004 6.69798 24.9375 9.20178 24.9375 11.8125V17.7188H22.3125V11.8125C22.3125 9.89797 21.552 8.06185 20.1982 6.70807C18.8444 5.35429 17.0083 4.59375 15.0938 4.59375C13.1792 4.59375 11.3431 5.35429 9.98932 6.70807C8.63555 8.06185 7.875 9.89797 7.875 11.8125V17.7188H5.25V11.8125ZM21 17.7188H9.1875V11.8125C9.1875 10.2461 9.80976 8.74379 10.9174 7.63615C12.025 6.52851 13.5273 5.90625 15.0938 5.90625C16.6602 5.90625 18.1625 6.52851 19.2701 7.63615C20.3777 8.74379 21 10.2461 21 11.8125V17.7188ZM8.53125 24.2812V26.9062H1.96875V24.2812H8.53125ZM1.96875 34.7812V32.1562H8.53125V34.7812H1.96875ZM8.53125 30.8438H1.96875V28.2188H8.53125V30.8438ZM26.9063 38.0625C26.9063 38.5846 26.6988 39.0854 26.3296 39.4546C25.9604 39.8238 25.4596 40.0312 24.9375 40.0312H5.25C4.72786 40.0312 4.2271 39.8238 3.85788 39.4546C3.48867 39.0854 3.28125 38.5846 3.28125 38.0625V36.0938H9.1875C9.36155 36.0938 9.52847 36.0246 9.65154 35.9015C9.77461 35.7785 9.84375 35.6115 9.84375 35.4375V23.625C9.84375 23.451 9.77461 23.284 9.65154 23.161C9.52847 23.0379 9.36155 22.9688 9.1875 22.9688H3.28125V21C3.28125 20.4779 3.48867 19.9771 3.85788 19.6079C4.2271 19.2387 4.72786 19.0312 5.25 19.0312H24.9375C25.4596 19.0312 25.9604 19.2387 26.3296 19.6079C26.6988 19.9771 26.9063 20.4779 26.9063 21V24.2812C26.7094 24.3403 26.5125 24.3994 26.3091 24.4453L24.1369 24.9375C23.9888 24.9708 23.8569 25.0544 23.7636 25.1741C23.6703 25.2938 23.6213 25.442 23.625 25.5938C23.6357 29.3933 24.778 33.1036 26.9063 36.2513V38.0625ZM32.2875 39.7687L32.1563 39.8672L32.025 39.7687C29.8991 38.1674 28.159 36.11 26.9325 33.7479C25.706 31.3858 25.0243 28.7789 24.9375 26.1187L26.5847 25.7513C28.8072 25.2574 30.7819 23.9898 32.1563 22.1747C33.529 23.9885 35.5011 25.2559 37.7213 25.7513L39.375 26.1187C39.2882 28.7789 38.6065 31.3858 37.38 33.7479C36.1535 36.11 34.4134 38.1674 32.2875 39.7687Z" fill="#9ACC10"/>
<path d="M36.0216 26.5453L34.8534 25.9547L34.4072 26.8407C33.3942 26.2419 32.192 26.0492 31.0427 26.3013C29.8933 26.5534 28.8822 27.2317 28.2129 28.1995C27.5435 29.1672 27.2657 30.3527 27.4354 31.5171C27.6051 32.6814 28.2097 33.7383 29.1274 34.4748C30.0451 35.2113 31.2078 35.5727 32.3813 35.4863C33.5548 35.3999 34.652 34.8721 35.4519 34.0091C36.2518 33.1462 36.6951 32.0122 36.6924 30.8355C36.6898 29.6588 36.2414 28.5268 35.4375 27.6675L36.0216 26.5453ZM35.4375 30.8438C35.445 31.5765 35.2094 32.291 34.7676 32.8756C34.3258 33.4602 33.7027 33.8819 32.9957 34.0747C32.2888 34.2676 31.5379 34.2207 30.8604 33.9414C30.183 33.6621 29.6172 33.1661 29.2516 32.5311C28.8859 31.8961 28.7411 31.1578 28.8397 30.4317C28.9383 29.7056 29.2747 29.0326 29.7964 28.518C30.3181 28.0035 30.9956 27.6763 31.723 27.5877C32.4504 27.4991 33.1866 27.6541 33.8166 28.0285L32.0447 31.5722L30.7322 29.7938L29.6822 30.5813L31.6509 33.2063C31.7121 33.2878 31.7913 33.3539 31.8825 33.3995C31.9736 33.4451 32.0741 33.4688 32.1759 33.4688H32.235C32.346 33.4582 32.4524 33.4194 32.5442 33.3563C32.6361 33.2932 32.7104 33.2076 32.76 33.1078L34.8403 28.9472C35.2339 29.5008 35.4429 30.1645 35.4375 30.8438Z" fill="#9ACC10"/>
</svg>
