<svg width="41" height="41" viewBox="0 0 41 41" fill="none" xmlns="http://www.w3.org/2000/svg">
<g clip-path="url(#clip0)">
<path d="M40.3994 8.25971C40.7312 8.25971 41 7.99089 41 7.65913V4.87193C41 4.10077 39.7988 4.09965 39.7988 4.87193V5.66486H37.8786V4.87193C37.8786 4.54016 37.6098 4.27134 37.278 4.27134H35.7362V1.92585C35.7362 0.869862 34.8771 0.0108643 33.8212 0.0108643H32.6107C31.5547 0.0108643 30.6956 0.869942 30.6956 1.92585V4.27134H29.3783V1.96069C29.3783 0.904696 28.5191 0.0456182 27.4632 0.0456182H26.2527C25.1967 0.0456182 24.3377 0.904777 24.3377 1.96069V4.27134H23.0203V1.96069C23.0203 0.904696 22.1612 0.0456182 21.1053 0.0456182H19.8948C18.8388 0.0456182 17.9797 0.904777 17.9797 1.96069V4.27134H16.6623V1.96069C16.6623 0.904696 15.8032 0.0456182 14.7472 0.0456182H13.5366C12.4807 0.0456182 11.6216 0.904777 11.6216 1.96069V4.27134H10.3041V1.96069C10.3041 0.904696 9.44506 0.0456182 8.38906 0.0456182H7.17876C6.12285 0.0456182 5.26378 0.904777 5.26378 1.96069V4.27134H4.02441C3.52648 4.27134 3.12137 4.67646 3.12137 5.1743V7.35659C3.12137 7.8546 3.52648 8.25963 4.02441 8.25963H5.26378V33.003H3.36328V32.4024C3.36328 32.0706 3.09438 31.8018 2.7627 31.8018H2.28223V30.3827C2.88265 30.2086 3.32324 29.6548 3.32324 28.9991C3.32324 28.2043 2.67661 27.5577 1.88184 27.5577H1.48145C0.68667 27.5577 0.0400391 28.2043 0.0400391 28.9991C0.0400391 29.6548 0.480629 30.2086 1.08105 30.3827V31.8018H0.600586C0.268902 31.8018 0 32.0706 0 32.4024V35.9659C0 36.6533 0.415125 37.245 1.00746 37.5054V40.4102C1.00746 41.1814 2.20863 41.1825 2.20863 40.4102V37.5617C2.87833 37.34 3.36328 36.709 3.36328 35.9659V34.2042H5.26378V36.4752C5.26378 37.5312 6.12285 38.3902 7.17876 38.3902H8.38931C9.4453 38.3902 10.3044 37.5312 10.3044 36.4752V35.8304H11.6218V36.4752C11.6218 37.53 12.479 38.3882 13.5333 38.3902V40.4103C13.5333 41.1814 14.7345 41.1826 14.7345 40.4103V38.3902H14.7473C15.8033 38.3902 16.6624 37.5312 16.6624 36.4752V35.8304H17.9799V36.4752C17.9799 37.5312 18.8389 38.3902 19.8949 38.3902H21.1055C22.1615 38.3902 23.0205 37.5312 23.0205 36.4752V35.8304H24.3379V36.4752C24.3379 37.5312 25.197 38.3902 26.2529 38.3902H26.2656V40.4103C26.2656 41.1814 27.4668 41.1826 27.4668 40.4103V38.3902C28.5211 38.3882 29.3783 37.53 29.3783 36.4752V35.8304H30.6956V36.4405C30.6956 37.4965 31.5548 38.3555 32.6107 38.3555H33.8212C34.8771 38.3555 35.7362 37.4964 35.7362 36.4405V34.2041H37.6367V35.9659C37.6367 36.7089 38.1217 37.3399 38.7914 37.5617V40.4102C38.7914 41.1814 39.9925 41.1825 39.9925 40.4102V37.5054C40.5849 37.245 41 36.6533 41 35.9659V32.4024C41 32.0706 40.7312 31.8018 40.3994 31.8018H39.9189V30.3827C40.5194 30.2086 40.96 29.6548 40.96 28.9991C40.96 28.2043 40.3133 27.5577 39.5186 27.5577H39.1182C38.3234 27.5577 37.6768 28.2043 37.6768 28.9991C37.6768 29.6548 38.1173 30.2086 38.7178 30.3827V31.8018H38.2373C37.9055 31.8018 37.6367 32.0706 37.6367 32.4024V33.003H35.7363V20.6709C35.7363 19.8988 34.5351 19.8874 34.5351 20.6709V36.4405C34.5351 36.8341 34.2149 37.1543 33.8212 37.1543H32.6108C32.2171 37.1543 31.8969 36.8341 31.8969 36.4405V1.92585C31.8969 1.53227 32.2171 1.21204 32.6108 1.21204H33.8212C34.2149 1.21204 34.5351 1.53227 34.5351 1.92585V16.9874C34.5351 17.7595 35.7363 17.771 35.7363 16.9874V8.25971H37.2781C37.6099 8.25971 37.8787 7.99089 37.8787 7.65913V6.86611H39.7988V7.65913C39.7988 7.99081 40.0676 8.25971 40.3994 8.25971ZM1.48145 28.7589H1.88184C2.01429 28.7589 2.12207 28.8667 2.12207 28.9991C2.12207 29.1316 2.01429 29.2394 1.88184 29.2394H1.48145C1.349 29.2394 1.24121 29.1316 1.24121 28.9991C1.24121 28.8667 1.349 28.7589 1.48145 28.7589ZM2.16211 35.9659C2.16211 36.2309 1.94662 36.4464 1.68164 36.4464C1.41666 36.4464 1.20117 36.2309 1.20117 35.9659V33.0031H2.16211V35.9659ZM39.1182 28.7589H39.5186C39.651 28.7589 39.7588 28.8667 39.7588 28.9991C39.7588 29.1316 39.651 29.2394 39.5186 29.2394H39.1182C38.9857 29.2394 38.8779 29.1316 38.8779 28.9991C38.8779 28.8667 38.9857 28.7589 39.1182 28.7589ZM39.7988 33.0031V35.9659C39.7988 36.2309 39.5833 36.4464 39.3184 36.4464C39.0534 36.4464 38.8379 36.2309 38.8379 35.9659V33.0031H39.7988ZM30.6956 5.47251V7.05854H29.3783V5.47251H30.6956ZM27.4632 37.1891H26.2527C25.8591 37.1891 25.5389 36.8688 25.5389 36.4752V1.96069C25.5389 1.56702 25.8591 1.24679 26.2527 1.24679H27.4632C27.8569 1.24679 28.1771 1.56702 28.1771 1.96069V36.4753C28.1771 36.8688 27.8569 37.1891 27.4632 37.1891ZM21.1053 37.1891H19.8948C19.5011 37.1891 19.1809 36.8688 19.1809 36.4752V28.5988C19.1809 27.8266 17.9797 27.8152 17.9797 28.5988V31.8421H16.6623V8.25971H17.9797V25.3156C17.9797 26.0877 19.1809 26.099 19.1809 25.3156V1.96069C19.1809 1.56702 19.5011 1.24679 19.8948 1.24679H21.1053C21.4989 1.24679 21.8191 1.56702 21.8191 1.96069V36.4753C21.8191 36.8688 21.4989 37.1891 21.1053 37.1891ZM14.7473 37.1891H13.5367C13.1431 37.1891 12.8228 36.8688 12.8228 36.4752V1.96069C12.8228 1.56702 13.1431 1.24679 13.5367 1.24679H14.7473C15.1409 1.24679 15.4612 1.56702 15.4612 1.96069V36.4753C15.4612 36.8688 15.1409 37.1891 14.7473 37.1891ZM9.70371 13.2638C9.37202 13.2638 9.10312 13.5326 9.10312 13.8644V36.4752C9.10312 36.8688 8.78289 37.1891 8.38923 37.1891H7.17876C6.78518 37.1891 6.46495 36.8688 6.46495 36.4752V1.96069C6.46495 1.56702 6.78518 1.24679 7.17876 1.24679H8.38931C8.78297 1.24679 9.1032 1.56702 9.1032 1.96069V10.3409C9.1032 11.1121 10.3044 11.1132 10.3044 10.3409V8.25971H11.6218V31.8421H10.3044V13.8644C10.3043 13.5326 10.0354 13.2638 9.70371 13.2638ZM23.0203 8.25971H24.3377V31.8421H23.0203V8.25971ZM29.3783 8.25971H30.6956V31.8421H29.3783V8.25971ZM24.3377 5.47251V7.05854H23.0203V5.47251H24.3377ZM17.9797 5.47251V7.05854H16.6623V5.47251H17.9797ZM11.6217 5.47251V7.05854H10.3043V5.47251H11.6217ZM4.32254 7.05854V5.47251H5.26378V7.05854H4.32254ZM10.3043 34.6293V33.0433H11.6217V34.6293H10.3043ZM16.6623 34.6293V33.0433H17.9798V34.6293H16.6623ZM23.0203 34.6293V33.0433H24.3377V34.6293H23.0203ZM29.3783 34.6293V33.0433H30.6956V34.6293H29.3783ZM36.6775 7.05854H35.7362V5.47251H36.6775V7.05854Z" fill="#9ACC10"/>
</g>
<defs>
<clipPath id="clip0">
<rect width="41" height="41" fill="white"/>
</clipPath>
</defs>
</svg>
