<svg width="40" height="40" viewBox="0 0 40 40" fill="none" xmlns="http://www.w3.org/2000/svg">
<path d="M28.6667 37.3334H10C9.63205 37.3334 9.33337 37.632 9.33337 38V39.3334C9.33337 39.7013 9.63205 40 10 40C10.368 40 10.6667 39.7013 10.6667 39.3334V38.6667H28.6667C29.0346 38.6667 29.3333 38.3681 29.3333 38.0001C29.3333 37.6321 29.0347 37.3334 28.6667 37.3334Z" fill="#9ACC10"/>
<path d="M14.6667 16.6666C14.6667 17.0346 14.9653 17.3333 15.3333 17.3333H18C18.368 17.3333 18.6667 17.0346 18.6667 16.6666V12.6666C18.6667 12.2987 18.368 12 18 12H15.3334C14.9654 12 14.6667 12.2987 14.6667 12.6666V16.6666H14.6667ZM16 13.3334H17.3334V16H16V13.3334Z" fill="#9ACC10"/>
<path d="M8.66664 8H0.666641C0.298672 8 0 8.29867 0 8.66664V22C0 22.368 0.298672 22.6666 0.666641 22.6666C1.03461 22.6666 1.33328 22.368 1.33328 22V9.33336H8.66664C9.03461 9.33336 9.33328 9.03469 9.33328 8.66672C9.33328 8.29875 9.03469 8 8.66664 8Z" fill="#9ACC10"/>
<path d="M32 32.6666C32 33.0346 32.2987 33.3333 32.6667 33.3333H35.3333C35.7013 33.3333 36 33.0346 36 32.6666V28.6666C36 28.2987 35.7013 28 35.3333 28H32.6667C32.2987 28 32 28.2987 32 28.6666V32.6666ZM33.3334 29.3334H34.6668V32H33.3334V29.3334Z" fill="#9ACC10"/>
<path d="M3.33336 24C0.0379688 24 0 32.58 0 32.6666C0 34.2766 1.14734 35.6227 2.66664 35.9327V39.3334C2.66664 39.7013 2.96531 40 3.33328 40C3.70125 40 3.99992 39.7013 3.99992 39.3334V35.9327C5.51922 35.6227 6.66656 34.2766 6.66656 32.6666C6.66664 32.58 6.62867 24 3.33336 24ZM3.33336 34.6666C2.2307 34.6666 1.33336 33.7693 1.33336 32.6666C1.33336 29.3453 2.22539 25.3333 3.33336 25.3333C4.44133 25.3333 5.33336 29.3453 5.33336 32.6666C5.33336 33.7693 4.43602 34.6666 3.33336 34.6666Z" fill="#9ACC10"/>
<path d="M7.33336 20H4.66664C4.29867 20 4 20.2987 4 20.6666V22C4 22.368 4.29867 22.6666 4.66664 22.6666C5.03461 22.6666 5.33328 22.368 5.33328 22V21.3334H6.66664V24.6667C6.66664 25.0347 6.96531 25.3334 7.33328 25.3334C7.70125 25.3334 7.99992 25.0347 7.99992 24.6667V20.6667C8 20.2987 7.70133 20 7.33336 20Z" fill="#9ACC10"/>
<path d="M32.6667 17.3334H35.3333C35.7013 17.3334 36 17.0347 36 16.6668V12.6668C36 12.2988 35.7013 12.0001 35.3333 12.0001H32.6667C32.2987 12.0001 32 12.2988 32 12.6668V16.6668C32 17.0347 32.2987 17.3334 32.6667 17.3334ZM33.3334 13.3334H34.6668V16H33.3334V13.3334Z" fill="#9ACC10"/>
<path d="M7.33336 12H4.66664C4.29867 12 4 12.2987 4 12.6666V16.6666C4 17.0346 4.29867 17.3333 4.66664 17.3333H7.33328C7.70125 17.3333 7.99992 17.0346 7.99992 16.6666V12.6666C8 12.2987 7.70133 12 7.33336 12ZM6.66664 16H5.33336V13.3334H6.66672V16H6.66664Z" fill="#9ACC10"/>
<path d="M21.3333 16.6666C21.3333 17.0346 21.632 17.3333 22 17.3333H24.6666C25.0346 17.3333 25.3333 17.0346 25.3333 16.6666V12.6666C25.3333 12.2987 25.0346 12 24.6666 12H22C21.632 12 21.3333 12.2987 21.3333 12.6666V16.6666ZM22.6666 13.3334H24V16H22.6666V13.3334Z" fill="#9ACC10"/>
<path d="M39.3334 8H31.3334C30.9654 8 30.6667 8.29867 30.6667 8.66664C30.6667 9.03461 30.9654 9.33328 31.3334 9.33328H38.6667V36.1227C38.4574 36.048 38.2354 36 38.0001 36C37.8848 36 37.7701 36.01 37.6574 36.03C37.1974 35.2013 36.3221 34.6667 35.3334 34.6667C34.3448 34.6667 33.4695 35.2013 33.0095 36.03C32.8968 36.01 32.7821 36 32.6668 36C31.5641 36 30.6668 36.8974 30.6668 38C30.6668 39.1027 31.5641 40 32.6668 40H38C39.1027 40 40 39.1027 40 38V8.66664C40 8.29867 39.7013 8 39.3334 8ZM38 38.6667H32.6666C32.2993 38.6667 32 38.3674 32 38C32 37.6327 32.2993 37.3334 32.6666 37.3334C32.7946 37.3334 32.9159 37.37 33.028 37.442C33.2106 37.5594 33.4387 37.5807 33.64 37.4994C33.8413 37.4181 33.99 37.2434 34.0387 37.032C34.1794 36.4247 34.712 36 35.3334 36C35.9547 36 36.4873 36.4247 36.628 37.032C36.6767 37.2434 36.8254 37.4181 37.0267 37.4994C37.2274 37.5807 37.456 37.5594 37.6387 37.442C38.0727 37.162 38.6667 37.5047 38.6667 38C38.6666 38.3674 38.3673 38.6667 38 38.6667Z" fill="#9ACC10"/>
<path d="M22 9.33328H24.6666C25.0346 9.33328 25.3333 9.03461 25.3333 8.66664V4.66664C25.3333 4.29867 25.0346 4 24.6666 4H22C21.632 4 21.3333 4.29867 21.3333 4.66664V8.66664C21.3333 9.03461 21.632 9.33328 22 9.33328ZM22.6666 5.33328H24V7.99992H22.6666V5.33328Z" fill="#9ACC10"/>
<path d="M21.3333 24.6666C21.3333 25.0346 21.632 25.3333 22 25.3333H24.6666C25.0346 25.3333 25.3333 25.0346 25.3333 24.6666V20.6666C25.3333 20.2987 25.0346 20 24.6666 20H22C21.632 20 21.3333 20.2987 21.3333 20.6666V24.6666ZM22.6666 21.3334H24V24H22.6666V21.3334Z" fill="#9ACC10"/>
<path d="M15.3334 9.33328H18C18.368 9.33328 18.6666 9.03461 18.6666 8.66664V4.66664C18.6666 4.29867 18.368 4 18 4H15.3334C14.9654 4 14.6667 4.29867 14.6667 4.66664V8.66664C14.6666 9.03461 14.9653 9.33328 15.3334 9.33328ZM16 5.33328H17.3334V7.99992H16V5.33328Z" fill="#9ACC10"/>
<path d="M19.5266 32.1933C19.4066 32.32 19.3333 32.4933 19.3333 32.6667C19.3333 32.8401 19.4066 33.0133 19.5266 33.1401C19.6533 33.2601 19.8266 33.3334 20 33.3334C20.1734 33.3334 20.3466 33.2601 20.4734 33.1401C20.5934 33.0134 20.6667 32.8401 20.6667 32.6667C20.6667 32.4933 20.5934 32.3201 20.4734 32.1933C20.22 31.9466 19.78 31.9466 19.5266 32.1933Z" fill="#9ACC10"/>
<path d="M14.6667 24.6666C14.6667 25.0346 14.9653 25.3333 15.3333 25.3333H18C18.368 25.3333 18.6667 25.0346 18.6667 24.6666V20.6666C18.6667 20.2987 18.368 20 18 20H15.3334C14.9654 20 14.6667 20.2987 14.6667 20.6666V24.6666H14.6667ZM16 21.3334H17.3334V24H16V21.3334Z" fill="#9ACC10"/>
<path d="M13.3334 28.6666C13.3334 29.0346 13.632 29.3333 14 29.3333H16V35.3333C16 35.7012 16.2987 35.9999 16.6667 35.9999C17.0346 35.9999 17.3333 35.7012 17.3333 35.3333V29.3333H22.6667V35.3333C22.6667 35.7012 22.9653 35.9999 23.3333 35.9999C23.7013 35.9999 23.9999 35.7012 23.9999 35.3333V29.3333H25.9999C26.3679 29.3333 26.6666 29.0346 26.6666 28.6666C26.6666 28.2987 26.3679 28 25.9999 28H14C13.632 28 13.3334 28.2987 13.3334 28.6666Z" fill="#9ACC10"/>
<path d="M32 24.6666C32 25.0346 32.2987 25.3333 32.6667 25.3333H35.3333C35.7013 25.3333 36 25.0346 36 24.6666V20.6666C36 20.2987 35.7013 20 35.3333 20H32.6667C32.2987 20 32 20.2987 32 20.6666V24.6666ZM33.3334 21.3334H34.6668V24H33.3334V21.3334Z" fill="#9ACC10"/>
<path d="M28.6666 0H11.3334C10.9654 0 10.6667 0.298672 10.6667 0.666641V35.3333C10.6667 35.7012 10.9654 35.9999 11.3334 35.9999C11.7013 35.9999 12 35.7012 12 35.3333V1.33328H28V35.3333C28 35.7012 28.2987 35.9999 28.6666 35.9999C29.0346 35.9999 29.3333 35.7012 29.3333 35.3333V0.666641C29.3334 0.298672 29.0347 0 28.6666 0Z" fill="#9ACC10"/>
</svg>
