<svg width="0" height="0" class="hidden">
  <symbol xmlns="http://www.w3.org/2000/svg" viewBox="0 0 46 33" id="arrow-left">
    <path d="M35.197 1c-5.073 1.67-10.1 3.357-15.293 4.65C14.27 7.054 8.012 7.854 2.875 10.694c-2.645 1.462 1.42 2.674 2.805 3.34 5.392 2.592 10.964 4.668 16.278 7.45 3.646 1.909 7.473 4.574 11.486 5.698 1.302.366 2.471 1.02 3.556 1.818" stroke-width="2" stroke-linecap="round"></path>
    <path d="M42.497 5C31.523 10.706 18.819 11.46 6.7 11.568c-.204.001-5.244-.51-5.642.202-.38.678 1.216 1.596 1.61 1.764C16.783 19.574 30.724 26.335 45 32" stroke-width="2" stroke-linecap="round"></path>
  </symbol>
  <symbol xmlns="http://www.w3.org/2000/svg" viewBox="0 0 46 33" id="arrow-right">
    <path d="M10.803 1c5.073 1.67 10.1 3.357 15.293 4.65 5.635 1.404 11.891 2.204 17.029 5.044 2.645 1.462-1.42 2.674-2.805 3.34-5.392 2.592-10.964 4.668-16.278 7.45-3.646 1.909-7.473 4.574-11.486 5.698-1.302.366-2.471 1.02-3.556 1.818" stroke-width="2" stroke-linecap="round"></path>
    <path d="M3.503 5c10.973 5.706 23.678 6.46 35.797 6.568.204.001 5.244-.51 5.642.202.38.678-1.216 1.596-1.61 1.764C29.217 19.574 15.276 26.335 1 32" stroke-width="2" stroke-linecap="round"></path>
  </symbol>
  <symbol xmlns="http://www.w3.org/2000/svg" viewBox="0 0 24 34" id="arrow-top">
    <path d="M1.185 25.99c1.175-3.57 2.363-7.108 3.273-10.762.987-3.965 1.55-8.368 3.549-11.983 1.029-1.862 1.882.999 2.35 1.974 1.824 3.794 3.286 7.715 5.243 11.454 1.343 2.566 3.219 5.26 4.01 8.083.257.917.718 1.74 1.279 2.503" stroke-width="2" stroke-linecap="round"></path>
    <path d="M4 31.127c4.016-7.722 4.546-16.662 4.622-25.19 0-.144-.358-3.69.142-3.97.478-.268 1.123.855 1.241 1.132 4.251 9.934 9.009 19.744 12.995 29.79" stroke-width="2" stroke-linecap="round"></path>
  </symbol>
  <symbol xmlns="http://www.w3.org/2000/svg" viewBox="0 0 15 15" id="phone">
    <g filter="url(#filter0_d)">
      <g clip-path="url(#clip0)">
        <path d="M10.707 6.85c-.223-.233-.492-.357-.776-.357-.282 0-.553.122-.785.354l-.725.723c-.06-.033-.12-.062-.177-.092a2.911 2.911 0 01-.227-.122c-.679-.431-1.296-.993-1.888-1.72a4.65 4.65 0 01-.62-.978c.188-.172.363-.351.533-.523l.192-.195c.482-.482.482-1.106 0-1.588l-.626-.627a9.559 9.559 0 01-.213-.218 11.628 11.628 0 00-.432-.427 1.086 1.086 0 00-.769-.337c-.28 0-.55.117-.78.337l-.004.005-.78.787a1.679 1.679 0 00-.498 1.067c-.055.67.142 1.294.293 1.703.372 1.002.927 1.932 1.756 2.928a10.798 10.798 0 003.595 2.815c.528.25 1.232.546 2.02.597.048.002.098.004.144.004.53 0 .975-.19 1.324-.569.002-.004.007-.007.01-.011.119-.145.256-.276.4-.416.1-.094.2-.192.3-.296.226-.236.346-.511.346-.794 0-.284-.122-.557-.354-.787l-1.26-1.264zM7.99 2.7a2.91 2.91 0 011.583.822c.436.436.718.982.822 1.583a.308.308 0 00.305.257c.018 0 .034-.002.052-.004A.31.31 0 0011.007 5a3.54 3.54 0 00-.993-1.916 3.54 3.54 0 00-1.916-.994.311.311 0 00-.358.252c-.03.168.08.33.25.358zm4.983 2.21a5.822 5.822 0 00-1.636-3.155A5.823 5.823 0 008.183.119a.309.309 0 10-.1.61 5.213 5.213 0 012.82 1.462 5.198 5.198 0 011.461 2.82.308.308 0 00.305.257.304.304 0 00.305-.358z"></path>
      </g>
    </g>
    <defs>
      <clipPath id="clip0">
        <path transform="translate(2.114 .114)" d="M0 0h10.872v10.872H0z"></path>
      </clipPath>
      <filter id="filter0_d" x=".114" y=".114" width="14.872" height="14.872" filterUnits="userSpaceOnUse" color-interpolation-filters="sRGB">
        <feFlood flood-opacity="0" result="BackgroundImageFix"></feFlood>
        <feColorMatrix in="SourceAlpha" values="0 0 0 0 0 0 0 0 0 0 0 0 0 0 0 0 0 0 127 0"></feColorMatrix>
        <feOffset dy="2"></feOffset>
        <feGaussianBlur stdDeviation="1"></feGaussianBlur>
        <feColorMatrix values="0 0 0 0 0 0 0 0 0 0 0 0 0 0 0 0 0 0 0.19 0"></feColorMatrix>
        <feBlend in2="BackgroundImageFix" result="effect1_dropShadow"></feBlend>
        <feBlend in="SourceGraphic" in2="effect1_dropShadow" result="shape"></feBlend>
      </filter>
    </defs>
  </symbol>
  <symbol fill="none" xmlns="http://www.w3.org/2000/svg" viewBox="0 0 36 35" id="arrow-left2">
    <path d="M.5 17.5c0 9.376 7.822 17 17.5 17s17.5-7.624 17.5-17c0-9.376-7.822-17-17.5-17S.5 8.124.5 17.5z" stroke="#E6E6EC"></path>
    <path d="M20 14c-.821.868-2.615 2.46-3.487 3.209-.05.042-.594.53-.503.585.17.101.353.168.518.284.79.555 1.521 1.397 2.26 2.086.271.253.51.582.793.8.17.132.266.423.419.536" stroke="#1E2330" stroke-linecap="round"></path>
  </symbol>
  <symbol fill="none" xmlns="http://www.w3.org/2000/svg" viewBox="0 0 36 35" id="arrow-right2">
    <path d="M35.5 17.5c0 9.376-7.822 17-17.5 17S.5 26.876.5 17.5C.5 8.124 8.322.5 18 .5s17.5 7.624 17.5 17z" stroke="#E6E6EC"></path>
    <path d="M16 14c.821.868 2.615 2.46 3.487 3.209.05.042.594.53.503.585-.17.101-.353.168-.518.284-.79.555-1.521 1.397-2.26 2.086-.271.253-.51.582-.793.8-.17.132-.266.423-.419.536" stroke="#1E2330" stroke-linecap="round"></path>
  </symbol>
  <symbol xmlns="http://www.w3.org/2000/svg" viewBox="0 0 70 70" id="adv-agronomy">
    <g clip-path="url(#clip0)">
      <path d="M49.716 35.857c-.12-.413-.43-.75-.842-.9-.083-.03-.757-.269-1.804-.422 4.472-4.758 2.995-10.317 2.646-11.403-.12-.412-.43-.75-.842-.9-.192-.07-3.54-1.25-7.353.077.216-.883.342-1.855.342-2.92 0-6.818-5.163-9.814-6.2-10.346a1.366 1.366 0 00-1.231-.04c-.257.118-6.28 3-6.28 10.386 0 1.068.127 2.04.343 2.925-3.82-1.335-7.176-.152-7.369-.082-.412.15-.721.488-.842.9-.35 1.086-1.826 6.645 2.646 11.403-1.046.153-1.72.392-1.803.422-.412.15-.723.488-.843.9-.357 1.108-1.889 6.878 2.932 11.7 2.79 2.79 5.887 3.455 8.206 3.455.86 0 1.61-.092 2.201-.2v8.946a1.367 1.367 0 002.735 0v-8.95c.593.11 1.351.204 2.22.204 2.32 0 5.416-.666 8.206-3.456 4.82-4.82 3.289-10.59 2.932-11.7zM33.623 46.55a9.105 9.105 0 01-.2 1.517c-1.462.325-5.118.71-8.273-2.444-3.107-3.107-2.782-6.703-2.438-8.272.92-.2 2.712-.422 4.698.222.13.049.26.095.39.138 1.052.399 2.143 1.05 3.178 2.084 1.971 1.971 2.56 4.138 2.645 5.843v.912zm0-12.725a9.1 9.1 0 01-.2 1.517c-.906.202-2.654.425-4.603-.183a11 11 0 00-.59-.208c-1.02-.403-2.075-1.048-3.08-2.053-3.107-3.107-2.782-6.703-2.438-8.272 1.46-.317 5.127-.694 8.266 2.444l.057.06c.12.135.24.264.36.387 1.637 1.847 2.15 3.82 2.228 5.396v.912zm1.387-6.86a9.295 9.295 0 01-1.868-1.592c-1.143-1.269-2.256-3.215-2.256-5.984 0-4.457 2.852-6.77 4.114-7.574 1.352.865 4.128 3.177 4.128 7.574 0 2.613-.98 4.487-2.046 5.754-.221.222-.428.446-.624.671-.546.532-1.07.91-1.448 1.152zm1.356 6.417a8.655 8.655 0 012.113-5.724c.202-.2.404-.415.605-.647 3.137-3.085 6.75-2.709 8.203-2.387.344 1.567.672 5.165-2.437 8.274-1.003 1.003-2.057 1.648-3.075 2.05a11.96 11.96 0 00-.599.212c-1.949.608-3.696.383-4.598.183a9.177 9.177 0 01-.212-1.926v-.035zm8.484 12.24c-3.155 3.156-6.812 2.77-8.27 2.446-.317-1.454-.702-5.129 2.442-8.273 1.006-1.006 2.063-1.65 3.084-2.054.194-.062.39-.131.587-.207 1.945-.607 3.69-.386 4.594-.186.344 1.568.672 5.166-2.437 8.275z"></path>
      <path d="M42.295.762A35.237 35.237 0 0035 0c-9.349 0-18.138 3.64-24.749 10.251C3.641 16.861 0 25.651 0 35c0 7.79 2.62 15.394 7.396 21.517a5.159 5.159 0 00-.826 2.812c0 1.388.54 2.692 1.521 3.674a5.161 5.161 0 003.674 1.521c1.388 0 2.692-.54 3.674-1.521a5.161 5.161 0 001.521-3.674c0-1.388-.54-2.692-1.521-3.674a5.162 5.162 0 00-3.674-1.522c-.823 0-1.615.192-2.33.55A32.326 32.326 0 012.736 35C2.734 17.209 17.208 2.734 35 2.734c2.267 0 4.53.237 6.727.703a1.367 1.367 0 10.568-2.675zm-32.27 56.827c.48-.48 1.11-.72 1.74-.72.63 0 1.26.24 1.74.72.465.464.72 1.083.72 1.74s-.255 1.275-.72 1.74c-.96.96-2.52.96-3.48 0a2.444 2.444 0 01-.721-1.74c0-.657.256-1.276.72-1.74zm52.579-44.106a5.16 5.16 0 00.826-2.812c0-1.388-.54-2.692-1.521-3.674a5.16 5.16 0 00-3.674-1.521 5.16 5.16 0 00-3.673 1.521 5.161 5.161 0 00-1.522 3.674 5.16 5.16 0 001.522 3.674 5.16 5.16 0 003.673 1.521 5.17 5.17 0 002.33-.55A32.327 32.327 0 0167.265 35c0 17.791-14.474 32.266-32.265 32.266-1.914 0-3.831-.17-5.7-.502a1.367 1.367 0 00-.48 2.692c2.027.36 4.106.544 6.18.544 9.349 0 18.138-3.64 24.749-10.251C66.359 53.139 70 44.349 70 35c0-7.79-2.62-15.394-7.396-21.517zm-2.629-1.072a2.445 2.445 0 01-1.74.721 2.463 2.463 0 010-4.922c.658 0 1.276.256 1.74.72.465.466.721 1.084.721 1.741s-.256 1.275-.72 1.74zM22.987 64.955l-.516 1.266.512-1.267a1.367 1.367 0 00-1.025 2.535l.043.017a1.372 1.372 0 001.77-.786 1.363 1.363 0 00-.784-1.765zM48.1 2.535l-.023-.01a1.367 1.367 0 10-1.016 2.54l.016.005a1.364 1.364 0 001.78-.755 1.367 1.367 0 00-.756-1.78z"></path>
    </g>
    <defs>
      <clipPath id="clip0">
        <path fill="#fff" d="M0 0h70v70H0z"></path>
      </clipPath>
    </defs>
  </symbol>
  <symbol xmlns="http://www.w3.org/2000/svg" viewBox="0 0 68 68" id="adv-bike">
    <path d="M24.622 65.733a1.338 1.338 0 00-.939-.39c-.35 0-.692.143-.939.39a1.34 1.34 0 00-.39.939c0 .35.143.692.39.939.247.247.59.389.939.389a1.334 1.334 0 001.329-1.328c0-.35-.143-.692-.39-.94zM47.138 55.14c-.733 0-1.328.594-1.328 1.328a4.487 4.487 0 01-4.482 4.482 1.328 1.328 0 000 2.656 7.146 7.146 0 007.138-7.138c0-.734-.595-1.328-1.328-1.328z"></path>
    <path d="M56.844 0c-6.152 0-11.157 5.005-11.157 11.156v15.938c0 5.702 4.301 10.415 9.829 11.074v11.637h-4.78c-2.092-2.945-5.53-4.87-9.408-4.87-1.016 0-2 .133-2.94.38L33.958 34h5.402c.312 0 .586.2.683.496a.703.703 0 01-.102.644.703.703 0 01-.581.296h-1.358a1.328 1.328 0 000 2.656h1.358a3.34 3.34 0 002.73-1.391 3.34 3.34 0 00.479-3.026 3.366 3.366 0 00-3.21-2.331h-7.347a1.328 1.328 0 00-1.237 1.812l2.495 6.372H22.232l-1-2.287-.377-.962c-.2-.509-.69-.843-1.236-.843h-5.775a3.371 3.371 0 00-3.14 4.606 3.355 3.355 0 003.14 2.142h4.401l-2.136 3.7a11.468 11.468 0 00-4.577-.948C5.173 44.936 0 50.109 0 56.468c0 3.566 1.627 6.759 4.178 8.876h-2.85a1.328 1.328 0 000 2.656h10.204c5.91 0 10.795-4.468 11.455-10.204h5.202a1.328 1.328 0 001.216-1.86l-6.012-13.752H34.31l1.606 4.103c-3.638 1.942-6.12 5.777-6.12 10.18 0 3.567 1.627 6.76 4.177 8.877h-4.712a1.328 1.328 0 000 2.656h12.067c6.359 0 11.532-5.173 11.532-11.532a11.48 11.48 0 00-.718-4.007h9.527a1.328 1.328 0 000-2.656h-3.497V38.168C63.699 37.51 68 32.796 68 27.094V11.156C68 5.005 62.995 0 56.844 0zm-43 39.528a.714.714 0 01-.668-.456.7.7 0 01.075-.666.7.7 0 01.593-.314h4.87l.562 1.436h-5.432zm-2.312 25.816c-4.894 0-8.876-3.982-8.876-8.876 0-4.894 3.982-8.876 8.876-8.876a8.84 8.84 0 013.237.614l-4.387 7.598a1.328 1.328 0 001.15 1.992h4.281a4.49 4.49 0 01-4.28 3.154 1.328 1.328 0 000 2.656c3.481 0 6.387-2.507 7.012-5.81h1.763c-.643 4.266-4.333 7.548-8.776 7.548zm2.3-10.204l3.235-5.603a8.877 8.877 0 013.241 5.603h-6.476zm12.326 0h-3.17a11.536 11.536 0 00-4.58-7.925l2.439-4.225 5.311 12.15zm15.17 10.204c-4.894 0-8.876-3.982-8.876-8.876a8.88 8.88 0 014.442-7.684l3.197 8.168a1.328 1.328 0 102.474-.968l-3.199-8.17a8.861 8.861 0 011.962-.222c4.894 0 8.876 3.982 8.876 8.876 0 4.894-3.982 8.876-8.876 8.876zm24.016-38.25c0 4.235-3.114 7.756-7.172 8.395v-5.522l3.539-3.779a1.328 1.328 0 10-1.939-1.816l-1.6 1.709v-4.273l3.539-3.779a1.328 1.328 0 00-1.939-1.816l-1.6 1.71v-2.317a1.328 1.328 0 00-2.656 0v5.98l-1.368-1.46a1.328 1.328 0 00-1.939 1.816l3.307 3.53v10.017c-4.059-.64-7.172-4.16-7.172-8.395V11.156c0-4.687 3.813-8.5 8.5-8.5 4.687 0 8.5 3.813 8.5 8.5v15.938zm1.328 22.711h-.018a1.328 1.328 0 000 2.656h.018a1.328 1.328 0 000-2.656z"></path>
    <path d="M31.72 18.417h-2.204a7.803 7.803 0 00.805-3.445c0-4.3-3.5-7.8-7.8-7.8a7.814 7.814 0 00-7.195 4.786 5.69 5.69 0 00-2.465-.563 5.695 5.695 0 00-5.69 5.689c0 1.268.41 2.468 1.185 3.472.251.326.64.517 1.051.517H31.72a1.328 1.328 0 000-2.656zm-5.38 0H10.136a3.036 3.036 0 012.725-4.366 3.04 3.04 0 012.253 1.003 1.328 1.328 0 002.304-.725 5.146 5.146 0 015.102-4.5 5.15 5.15 0 015.144 5.143 5.159 5.159 0 01-1.325 3.445z"></path>
  </symbol>
  <symbol xmlns="http://www.w3.org/2000/svg" viewBox="0 0 58 58" id="adv-hotel">
    <path d="M17.504 16.509h-5.438c-.625 0-1.132.507-1.132 1.133v6.343c0 .626.507 1.133 1.133 1.133h5.437c.626 0 1.133-.507 1.133-1.133v-6.343c0-.626-.507-1.133-1.133-1.133zm-1.133 6.343H13.2v-4.078h3.172v4.078zm1.133 6.344h-5.438c-.625 0-1.132.507-1.132 1.133v6.344c0 .625.507 1.133 1.133 1.133h5.437c.626 0 1.133-.508 1.133-1.133v-6.344c0-.626-.507-1.133-1.133-1.133zm-1.133 6.344H13.2v-4.078h3.172v4.078zm1.133 6.344h-5.438c-.625 0-1.132.507-1.132 1.133v6.343c0 .626.507 1.133 1.133 1.133h5.437c.626 0 1.133-.507 1.133-1.133v-6.343c0-.626-.507-1.133-1.133-1.133zm-1.133 6.343H13.2V44.15h3.172v4.078zm30.697-6.343H41.63c-.625 0-1.132.507-1.132 1.133v6.343c0 .626.507 1.133 1.133 1.133h5.437c.626 0 1.133-.507 1.133-1.133v-6.343c0-.626-.507-1.133-1.133-1.133zm-1.133 6.343h-3.172V44.15h3.172v4.078zM27.359 16.509H21.92c-.625 0-1.133.507-1.133 1.133v6.343c0 .626.508 1.133 1.133 1.133h5.438c.625 0 1.132-.507 1.132-1.133v-6.343c0-.626-.507-1.133-1.132-1.133zm-1.133 6.343h-3.172v-4.078h3.172v4.078zm10.987-6.343h-5.437c-.626 0-1.133.507-1.133 1.133v6.343c0 .626.507 1.133 1.133 1.133h5.437c.626 0 1.133-.507 1.133-1.133v-6.343c0-.626-.507-1.133-1.133-1.133zm-1.133 6.343h-3.172v-4.078h3.172v4.078zm-8.721 6.344H21.92c-.625 0-1.133.507-1.133 1.133v6.344c0 .625.508 1.133 1.133 1.133h5.438c.625 0 1.132-.508 1.132-1.133v-6.344c0-.626-.507-1.133-1.132-1.133zm-1.133 6.344h-3.172v-4.078h3.172v4.078zm10.987-6.344h-5.437c-.626 0-1.133.507-1.133 1.133v6.344c0 .625.507 1.133 1.133 1.133h5.437c.626 0 1.133-.508 1.133-1.133v-6.344c0-.626-.507-1.133-1.133-1.133zM36.08 35.54h-3.172v-4.078h3.172v4.078zm10.988-19.031H41.63c-.625 0-1.132.507-1.132 1.133v6.343c0 .626.507 1.133 1.133 1.133h5.437c.626 0 1.133-.507 1.133-1.133v-6.343c0-.626-.507-1.133-1.133-1.133zm-1.133 6.343h-3.172v-4.078h3.172v4.078zm1.133 6.344H41.63c-.625 0-1.132.507-1.132 1.133v6.344c0 .625.507 1.133 1.133 1.133h5.437c.626 0 1.133-.508 1.133-1.133v-6.344c0-.626-.507-1.133-1.133-1.133zm-1.133 6.344h-3.172v-4.078h3.172v4.078z"></path>
    <path d="M56.867 55.734h-4.25V11.788c0-.625-.506-1.132-1.132-1.132h-6.287V6.57c0-.625-.507-1.133-1.133-1.133h-6.23V1.133A1.13 1.13 0 0036.704 0H21.297c-.626 0-1.133.507-1.133 1.133v4.304h-6.229c-.626 0-1.133.508-1.133 1.133v4.086H6.515c-.626 0-1.133.507-1.133 1.132v43.946h-4.25a1.133 1.133 0 100 2.266h55.735a1.133 1.133 0 000-2.266zM22.43 2.266h13.14v3.171H22.43v-3.17zm11.328 53.468H25.92l7.838-7.838v7.838zm0-11.035c-.025.022-.05.043-.074.067l-9.442 9.442v-4.801l7.266-7.266h2.25v2.558zm-9.516 1.504V42.14h4.062l-4.062 4.062zm26.11 9.531H36.023V42.141h.397a1.133 1.133 0 100-2.266H21.58a1.133 1.133 0 100 2.266h.397v13.593H7.647V12.921h12.576a1.133 1.133 0 100-2.265h-5.155V7.703h27.864v2.953h-13.76a1.133 1.133 0 100 2.265h21.18v42.813z"></path>
    <path d="M25.44 10.987a1.141 1.141 0 00-.8-.332c-.298 0-.59.121-.801.332-.21.21-.332.503-.332.801a1.137 1.137 0 001.133 1.133 1.137 1.137 0 001.133-1.133c0-.298-.122-.59-.332-.8z"></path>
  </symbol>
  <symbol xmlns="http://www.w3.org/2000/svg" viewBox="0 0 64 64" id="adv-infrastr">
    <path d="M62.75 13.648h-3.875c-.16 0-.314.031-.455.086C56.948 6.397 50.455.852 42.691.852c-7.734 0-14.207 5.501-15.712 12.796H1.25c-.69 0-1.25.56-1.25 1.25v47c0 .69.56 1.25 1.25 1.25h61.5c.69 0 1.25-.56 1.25-1.25v-47c0-.69-.56-1.25-1.25-1.25zM42.691 3.352c7.467 0 13.543 6.076 13.543 13.543 0 3.141-1.1 6.202-3.097 8.62a1.27 1.27 0 00-.096.132l-10.35 13.26L32.231 25.5a13.57 13.57 0 01-3.083-8.605c0-7.468 6.076-13.543 13.543-13.543zM61.5 60.648h-5.218L36.294 51.14a1.25 1.25 0 10-1.074 2.257l15.242 7.25H4.597L19.38 45.864l6.697 3.185a1.25 1.25 0 101.073-2.257l-7.493-3.564a1.25 1.25 0 00-1.42.245L2.5 59.21v-4.956c.02-.017.039-.033.057-.051l13.827-13.827a1.25 1.25 0 00.366-.884v-8.166a1.25 1.25 0 00-2.5 0v7.648L2.5 50.724V16.148h11.75v5.936a1.25 1.25 0 002.5 0v-5.936h3.5v22.696c0 .481.276.92.71 1.127l40.54 19.39v1.287zm0-4.06L22.75 38.057V16.148h3.916a16.076 16.076 0 003.555 10.84l.012.014 11.473 14.706a1.25 1.25 0 001.971 0L55.094 27.08c.02-.026.04-.053.058-.08a16.07 16.07 0 003.562-10.864c.053.007.106.012.16.012H61.5v40.44z"></path>
    <path d="M32.265 49.305a1.26 1.26 0 00-.884-.367 1.26 1.26 0 00-.884.367 1.26 1.26 0 00-.366.883c0 .33.134.652.366.884.233.233.555.366.884.366.329 0 .651-.133.884-.366a1.26 1.26 0 00.366-.884 1.26 1.26 0 00-.366-.883zm-15.881-24a1.259 1.259 0 00-.884-.366 1.26 1.26 0 00-.884.366 1.26 1.26 0 00-.366.884c0 .33.134.65.366.883.233.233.555.367.884.367.329 0 .651-.134.884-.367.232-.232.366-.553.366-.883 0-.33-.134-.652-.366-.884zm33.557-1.491V8.77c0-.69-.56-1.25-1.25-1.25h-12c-.69 0-1.25.56-1.25 1.25v15.043a1.25 1.25 0 00.316 2.458h13.868a1.25 1.25 0 00.316-2.458zm-6.49-.042h-1.52v-2h1.52v2zm3.99 0h-1.49v-3.25c0-.69-.56-1.25-1.25-1.25h-4.02c-.69 0-1.25.56-1.25 1.25v3.25h-1.49V10.02h9.5v13.75z"></path>
    <path d="M41.565 11.951a1.26 1.26 0 00-.885-.366 1.26 1.26 0 00-.884.366 1.26 1.26 0 00-.366.884c0 .329.134.651.366.883.233.233.555.367.884.367.33 0 .651-.134.885-.367.232-.232.365-.554.365-.883a1.26 1.26 0 00-.365-.884zm4.02 0a1.26 1.26 0 00-.884-.366 1.26 1.26 0 00-.883.366 1.26 1.26 0 00-.367.884 1.255 1.255 0 001.25 1.25c.329 0 .651-.134.884-.367a1.26 1.26 0 00.366-.883c0-.33-.133-.652-.366-.884zm-4.02 3.844a1.262 1.262 0 00-.885-.367 1.26 1.26 0 00-.884.367 1.26 1.26 0 00-.366.883c0 .33.134.652.366.884.233.233.555.366.884.366.33 0 .651-.133.885-.366a1.26 1.26 0 00.365-.884c0-.328-.133-.65-.365-.883zm4.02 0a1.258 1.258 0 00-.884-.367c-.329 0-.651.134-.883.367a1.26 1.26 0 00-.367.883 1.256 1.256 0 001.25 1.25c.329 0 .651-.133.884-.366a1.26 1.26 0 00.366-.884c0-.33-.133-.65-.366-.883z"></path>
  </symbol>
  <symbol xmlns="http://www.w3.org/2000/svg" viewBox="0 0 68 68" id="adv-parking">
    <path d="M56.451 11.877a14.52 14.52 0 00-7.796-4.06 14.583 14.583 0 00-8.515 1.057 1.328 1.328 0 101.087 2.424c4.497-2.017 9.86-1.03 13.346 2.457a11.874 11.874 0 013.501 8.452c0 3.193-1.243 6.194-3.501 8.452-4.66 4.66-12.244 4.66-16.904 0a11.899 11.899 0 01-2.531-13.177 1.328 1.328 0 10-2.44-1.05 14.593 14.593 0 00-.947 8.418 14.528 14.528 0 004.04 7.688 14.564 14.564 0 0010.33 4.272 14.56 14.56 0 0010.33-4.273 14.514 14.514 0 004.28-10.33c0-3.902-1.52-7.57-4.28-10.33z"></path>
    <path d="M37.727 11.83a1.328 1.328 0 00-1.878-.01l-.057.055a1.328 1.328 0 001.875 1.882l.05-.05a1.328 1.328 0 00.01-1.877z"></path>
    <path d="M46.12 0C34.058 0 24.243 9.815 24.243 21.88c0 3.561.876 7.098 2.533 10.226a1.328 1.328 0 002.348-1.243 19.254 19.254 0 01-2.225-8.984c0-10.6 8.623-19.223 19.223-19.223S65.344 11.28 65.344 21.88a19.25 19.25 0 01-4.396 12.235c-.042.05-.079.103-.112.158L48.9 49.565a7.25 7.25 0 00-2.528-.453H43.08l-3.785-8.917a6.084 6.084 0 00-5.61-3.713H18.19a6.084 6.084 0 00-5.61 3.713l-3.786 8.917H7.286C3.268 49.112 0 52.38 0 56.398v6.791a1.328 1.328 0 001.328 1.328h.002l6.45-.01A4.829 4.829 0 0012.412 68a4.829 4.829 0 004.634-3.493H38.28A4.83 4.83 0 0042.915 68a4.829 4.829 0 004.634-3.492l4.777.01h.002a1.328 1.328 0 001.328-1.329v-6.791c0-2.17-.954-4.12-2.463-5.455l11.838-15.166c.026-.033.05-.067.072-.102A21.914 21.914 0 0068 21.88C68 9.815 58.185 0 46.12 0zm4.18 53.955h-2.72l-.69-2.157a4.635 4.635 0 013.411 2.157zM27.265 39.138h6.42c1.381 0 2.623.822 3.164 2.095l3.345 7.879h-12.93v-9.974zm-24.61 17.26c0-.45.066-.883.185-1.294h1.74a1.043 1.043 0 010 2.084H2.656v-.79zm9.757 8.946a2.168 2.168 0 01-2.165-2.165c0-1.194.97-2.165 2.165-2.165 1.194 0 2.165.971 2.165 2.165a2.167 2.167 0 01-2.165 2.165zm12.195-3.493h-7.561a4.829 4.829 0 00-4.634-3.494 4.829 4.829 0 00-4.634 3.494l-5.123.008v-2.015H4.58a3.702 3.702 0 003.698-3.698 3.702 3.702 0 00-3.423-3.687 4.6 4.6 0 012.43-.69h17.322V61.85zm0-12.74H11.68l3.345-7.878a3.432 3.432 0 013.165-2.095h6.42v9.974zm18.307 16.233a2.167 2.167 0 01-2.165-2.165c0-1.194.971-2.165 2.165-2.165s2.165.971 2.165 2.165a2.168 2.168 0 01-2.165 2.165zM51 61.858l-3.45-.006a4.829 4.829 0 00-4.635-3.495 4.829 4.829 0 00-4.633 3.493H27.265V51.768H44.09l1.253 3.92c.176.55.687.923 1.265.923H51v5.247z"></path>
    <path d="M47.217 14.519h-3.832c-.734 0-1.329.594-1.329 1.328v13.159a1.328 1.328 0 102.657 0v-4.165h2.504a5.167 5.167 0 005.161-5.162 5.167 5.167 0 00-5.16-5.16zm0 7.665h-2.504v-5.009h2.504a2.508 2.508 0 012.505 2.505 2.508 2.508 0 01-2.505 2.504zM20.693 54.81c-.734 0-1.328.595-1.328 1.328v.016a1.328 1.328 0 002.656 0v-.016c0-.733-.595-1.328-1.328-1.328z"></path>
  </symbol>
  <symbol xmlns="http://www.w3.org/2000/svg" viewBox="0 0 63 62" id="adv-placeholder">
    <g clip-path="url(#clip0)">
      <path d="M48.882 21.95c0-9.433-7.798-17.107-17.382-17.107-9.585 0-17.382 7.674-17.382 17.106 0 9.433 7.797 17.106 17.382 17.106 9.584 0 17.382-7.674 17.382-17.106zm-2.461 0c0 5.76-3.389 10.756-8.307 13.16V8.79c4.918 2.403 8.307 7.399 8.307 13.16zm-29.842 0c0-5.761 3.389-10.757 8.307-13.16v7.71c0 .67.55 1.211 1.23 1.211.68 0 1.23-.542 1.23-1.21V7.843a15.14 15.14 0 018.307 0v28.21a15.09 15.09 0 01-4.153.58c-1.441 0-2.834-.203-4.154-.58v-8.655a1.22 1.22 0 00-1.23-1.211c-.68 0-1.23.542-1.23 1.21v7.711c-4.918-2.404-8.307-7.4-8.307-13.16z"></path>
      <path d="M41.257 49.072a57.864 57.864 0 003.878-4.593c5.785-7.63 9.102-15.624 9.102-21.934 0-5.91-2.494-11.744-6.843-16.007C43.092 2.32 37.48 0 31.59 0h-.169c-5.899 0-11.512 2.32-15.815 6.538-4.348 4.263-6.842 10.098-6.842 16.007 0 6.31 3.317 14.305 9.102 21.934a57.87 57.87 0 003.878 4.593c-2.794 1.382-4.366 3.324-4.366 5.461 0 2.157 1.585 4.114 4.462 5.51C24.44 61.305 27.871 62 31.5 62c3.63 0 7.06-.695 9.662-1.957 2.877-1.396 4.462-3.353 4.462-5.51 0-2.136-1.572-4.079-4.366-5.46zM11.224 22.545c0-5.27 2.23-10.479 6.118-14.291C21.18 4.49 26.177 2.422 31.43 2.422h.15c5.242 0 10.24 2.07 14.078 5.832 3.888 3.812 6.118 9.021 6.118 14.29 0 5.8-3.14 13.267-8.613 20.487-5.323 7.02-10.106 10.291-11.663 10.291-1.557 0-6.34-3.27-11.663-10.291-5.474-7.22-8.613-14.687-8.613-20.486zM31.5 59.578c-6.873 0-11.662-2.659-11.662-5.045 0-1.289 1.413-2.652 3.723-3.622 2.917 2.79 5.869 4.833 7.939 4.833 2.07 0 5.022-2.042 7.939-4.833 2.34.978 3.723 2.314 3.723 3.622 0 2.386-4.79 5.045-11.662 5.045z"></path>
      <path d="M26.116 23.161c.68 0 1.23-.542 1.23-1.21v-.002c0-.669-.55-1.21-1.23-1.21-.68 0-1.23.542-1.23 1.211s.55 1.211 1.23 1.211z"></path>
    </g>
    <defs>
      <clipPath id="clip0">
        <path fill="#fff" d="M0 0h63v62H0z"></path>
      </clipPath>
    </defs>
  </symbol>
  <symbol xmlns="http://www.w3.org/2000/svg" viewBox="0 0 68 74" id="adv-quality">
    <path d="M66.642 16.247c-4.186-.889-8.156-2.057-11.8-3.473a1.445 1.445 0 00-1.047 2.694c3.453 1.342 7.183 2.47 11.102 3.355v17.654c0 3.471-1.815 8.091-4.996 13.038v-2.742c0-5.448-2.952-8.139-5.78-9.675a9.175 9.175 0 001.343-4.791c0-5.091-4.144-9.234-9.237-9.234-5.091 0-9.233 4.143-9.233 9.234 0 1.751.49 3.39 1.34 4.786-1.607.864-3.218 2.074-4.333 3.949-1.114-1.873-2.725-3.083-4.332-3.947a9.175 9.175 0 001.341-4.788c0-5.091-4.143-9.234-9.237-9.234-5.091 0-9.233 4.143-9.233 9.234a9.18 9.18 0 001.342 4.79c-2.828 1.535-5.779 4.226-5.779 9.676v2.748c-3.183-4.949-5-9.571-5-13.044V18.823c16.551-3.75 24.905-10.638 29.44-14.377.53-.437 1.016-.838 1.459-1.188.443.35.93.752 1.46 1.19 1.692 1.396 3.797 3.133 6.607 4.995a1.446 1.446 0 001.597-2.41c-2.684-1.778-4.724-3.462-6.364-4.814-.931-.77-1.736-1.434-2.46-1.95a1.445 1.445 0 00-1.68 0c-.723.516-1.527 1.18-2.458 1.947-4.76 3.924-12.726 10.493-29.347 14.031a1.445 1.445 0 00-1.144 1.414v18.817c0 3.325 1.271 7.292 3.78 11.792 2.211 3.968 5.284 8.141 8.886 12.069C18.938 66.943 27.668 74 34.002 74c6.333 0 15.062-7.057 21.119-13.661a73.475 73.475 0 004.444-5.324c.034-.04 3.233-4.575 4.443-6.745 2.508-4.5 3.78-8.468 3.78-11.793V17.662c0-.683-.478-1.272-1.146-1.414zm-20.415 9.717c3.5 0 6.347 2.846 6.347 6.343s-2.848 6.343-6.347 6.343a6.35 6.35 0 01-6.343-6.343 6.35 6.35 0 016.343-6.343zm-12.225 19.39a4.377 4.377 0 014.372 4.373 4.38 4.38 0 01-4.372 4.376 4.38 4.38 0 01-4.372-4.376 4.377 4.377 0 014.372-4.372zm-12.229-19.39c3.5 0 6.347 2.846 6.347 6.343s-2.847 6.343-6.347 6.343a6.35 6.35 0 01-6.342-6.343 6.35 6.35 0 016.342-6.343zm1.652 34.566v5.602c-2.744-2.075-5.63-4.712-8.415-7.747a71.94 71.94 0 01-4.016-4.772v-6.84c0-4.267 2.22-6.165 4.819-7.422a9.19 9.19 0 005.96 2.19 9.19 9.19 0 005.962-2.19c1.54.749 3.05 1.778 3.954 3.493-2.873.968-4.95 3.687-4.95 6.883 0 1.243.314 2.415.867 3.44-2.098 1.218-4.18 3.31-4.18 7.363zm18.263 7.611c-2.994 1.893-5.681 2.968-7.686 2.968s-4.692-1.074-7.686-2.967V60.53c0-2.872 1.444-4.219 3.184-5.107a7.222 7.222 0 004.502 1.57c1.7 0 3.263-.588 4.502-1.57 1.74.89 3.184 2.237 3.184 5.107v7.611zM57.01 53.608a71.926 71.926 0 01-4.02 4.777c-2.782 3.034-5.668 5.67-8.41 7.745v-5.6c0-4.05-2.084-6.142-4.182-7.363a7.225 7.225 0 00.867-3.44c0-3.197-2.078-5.916-4.953-6.884.906-1.716 2.415-2.745 3.955-3.492a9.19 9.19 0 005.96 2.19 9.197 9.197 0 005.962-2.19c2.6 1.26 4.821 3.157 4.821 7.422v6.835z"></path>
  </symbol>
  <symbol xmlns="http://www.w3.org/2000/svg" viewBox="0 0 71 71" id="adv-safety">
    <g clip-path="url(#clip0)">
      <path d="M35.5 57.429a1.4 1.4 0 01-1.313-.942 1.398 1.398 0 01.469-1.545 1.402 1.402 0 011.556-.088c.497.294.762.894.647 1.46a1.401 1.401 0 01-1.359 1.115zm-8.524-9.706a3.08 3.08 0 01-1.816-.595 3.075 3.075 0 01-1.265-2.775l.686-7.909-5.204-5.995a3.074 3.074 0 01-.607-2.988 3.074 3.074 0 012.247-2.061l7.735-1.792 4.093-6.802a3.075 3.075 0 012.655-1.5c1.097 0 2.09.56 2.655 1.5l4.094 6.802 7.734 1.791a3.074 3.074 0 012.248 2.062 3.074 3.074 0 01-.608 2.988l-5.204 5.995.687 7.91a3.074 3.074 0 01-1.266 2.774 3.074 3.074 0 01-3.03.346l-7.31-3.096-7.31 3.096a3.11 3.11 0 01-1.214.25zM35.5 18.08c-.084 0-.2.027-.279.157l-4.396 7.306c-.194.321-.51.551-.875.636l-8.307 1.924a.31.31 0 00-.236.216.31.31 0 00.064.313l5.59 6.44c.246.283.366.654.334 1.028l-.737 8.495a.311.311 0 00.132.29.31.31 0 00.318.037l7.851-3.326a1.386 1.386 0 011.082 0l7.85 3.326c.14.059.25.013.319-.037a.31.31 0 00.132-.29l-.737-8.495a1.388 1.388 0 01.335-1.03l5.589-6.438a.31.31 0 00.064-.314.31.31 0 00-.236-.216l-8.306-1.924a1.387 1.387 0 01-.876-.636l-4.396-7.305a.311.311 0 00-.279-.157z"></path>
      <path d="M70.334 34.96c-.206-.125-5.083-3.043-8.961-1.274-.336.153-.65.335-.944.54a24.31 24.31 0 00.029-1.792c.239.012.505.02.79.02 1.963 0 4.885-.374 6.735-2.33 2.928-3.098 1.744-8.657 1.692-8.892a1.387 1.387 0 00-1.132-1.07c-.238-.039-5.854-.909-8.782 2.189a6.306 6.306 0 00-1.108 1.637 1.387 1.387 0 00-2.337 1.406c4.166 11.12-1.466 23.551-12.557 27.737-1.43.358-2.455.843-2.55.888-.511.247-.821.78-.781 1.348.017.24.46 5.906 4.148 8.045 1.12.65 2.373.877 3.582.877 2.771 0 5.309-1.2 5.46-1.272.512-.247.822-.781.782-1.348-.017-.24-.46-5.906-4.148-8.045a5.936 5.936 0 00-.708-.35 24.048 24.048 0 001.646-1.188c1.005 1.665 2.972 4.222 5.807 4.761.38.073.757.105 1.13.105 3.758 0 7.117-3.317 7.271-3.472a1.387 1.387 0 00.292-1.53c-.096-.221-2.39-5.42-6.578-6.218a6.416 6.416 0 00-2.27-.007c.488-.795.93-1.618 1.325-2.462 1.151.543 3.096 1.285 5.119 1.285.934 0 1.885-.158 2.783-.568 3.878-1.769 4.871-7.365 4.912-7.602a1.387 1.387 0 00-.647-1.418zm-8.558-10.704c1.268-1.34 3.758-1.529 5.334-1.452.149 1.407.201 3.993-1.142 5.414-1.27 1.343-3.766 1.53-5.34 1.452-.167-1.57-.121-4.071 1.148-5.414zM51.5 60.888c-1.49.522-3.935 1.051-5.533.125-1.596-.926-2.351-3.307-2.638-4.858 1.335-.468 3.84-1.113 5.532-.132 1.598.927 2.353 3.314 2.639 4.864zm7.093-12.431c1.816.345 3.318 2.347 4.101 3.715-1.094.876-2.898 2.007-4.56 2.007a3.3 3.3 0 01-.619-.056c-1.813-.345-3.313-2.342-4.098-3.71 1.105-.884 3.254-2.322 5.176-1.956zm6.325-7c-1.68.765-4.058.003-5.488-.66.39-1.36 1.314-3.776 3.094-4.587 1.679-.767 4.057-.004 5.488.66-.391 1.36-1.315 3.775-3.094 4.587zM29.79 54.02a14.435 14.435 0 00-2.55-.889c-11.09-4.186-16.722-16.616-12.556-27.737a1.387 1.387 0 00-2.336-1.406 6.302 6.302 0 00-1.108-1.637c-2.929-3.097-8.545-2.228-8.783-2.19a1.39 1.39 0 00-1.132 1.071c-.052.235-1.236 5.794 1.692 8.892 1.85 1.957 4.773 2.33 6.734 2.33.287 0 .552-.008.792-.02-.013.6-.003 1.197.028 1.792a6.011 6.011 0 00-.944-.54C5.75 31.917.872 34.836.667 34.96a1.387 1.387 0 00-.647 1.418c.04.237 1.033 5.833 4.911 7.602.898.41 1.85.568 2.784.568 2.023 0 3.967-.742 5.119-1.285a24.4 24.4 0 001.325 2.462 6.42 6.42 0 00-2.27.008c-4.188.796-6.482 5.996-6.578 6.217a1.387 1.387 0 00.291 1.53c.155.155 3.513 3.473 7.27 3.473.374 0 .752-.033 1.132-.106 2.834-.539 4.802-3.096 5.807-4.76.528.416 1.077.813 1.645 1.188-.24.1-.477.215-.708.35-3.687 2.138-4.13 7.804-4.147 8.044a1.39 1.39 0 00.781 1.348c.151.072 2.688 1.272 5.46 1.272 1.21 0 2.463-.228 3.583-.877 3.687-2.139 4.13-7.805 4.147-8.045a1.387 1.387 0 00-.781-1.348zM6.083 41.456c-1.68-.767-2.664-3.069-3.1-4.584 1.431-.665 3.813-1.43 5.494-.663 1.682.767 2.665 3.068 3.1 4.584-1.43.664-3.812 1.43-5.494.663zm4.291-11.787c-1.575.077-4.071-.109-5.34-1.452-1.27-1.343-1.315-3.845-1.15-5.413 1.577-.077 4.072.109 5.341 1.451 1.27 1.343 1.315 3.846 1.15 5.414zm3.112 24.453a3.3 3.3 0 01-.619.056c-1.662 0-3.467-1.131-4.56-2.006.784-1.37 2.286-3.37 4.101-3.716 1.816-.345 3.948.965 5.18 1.95-.785 1.37-2.287 3.37-4.102 3.716zm11.548 6.89c-1.596.925-4.037.398-5.526-.123.257-1.391.94-3.886 2.633-4.867 1.206-.7 2.896-.569 4.293-.238a12.499 12.499 0 011.233.36c-.257 1.392-.94 3.886-2.633 4.867zm25.886-42.58a1.387 1.387 0 01-.98-2.368l1.823-1.819a1.387 1.387 0 111.96 1.963L51.9 18.027c-.27.27-.625.405-.98.405zm-30.84 0c-.355 0-.709-.135-.98-.405l-1.822-1.819a1.387 1.387 0 111.96-1.963l1.822 1.82a1.387 1.387 0 01-.98 2.367zm15.42-6.375a1.387 1.387 0 01-1.387-1.387V8.098a1.387 1.387 0 012.774 0v2.572c0 .766-.621 1.387-1.387 1.387z"></path>
    </g>
    <defs>
      <clipPath id="clip0">
        <path fill="#fff" d="M0 0h71v71H0z"></path>
      </clipPath>
    </defs>
  </symbol>
  <symbol xmlns="http://www.w3.org/2000/svg" viewBox="0 0 342 141" id="characters-border">
    <path d="M23 1H7a6 6 0 00-6 6v110a6 6 0 006 6h32.376c1.374 0 2.707.472 3.775 1.336L62.5 140l16.778-15.418a6.002 6.002 0 014.06-1.582H335a6 6 0 006-6V7a6 6 0 00-6-6H94"></path>
  </symbol>
  <symbol xmlns="http://www.w3.org/2000/svg" viewBox="0 0 40 40" id="tech-building">
    <path d="M28.667 37.333H10a.667.667 0 00-.667.667v1.333a.667.667 0 001.334 0v-.666h18a.667.667 0 000-1.334zm-14-20.666c0 .368.298.666.666.666H18a.667.667 0 00.667-.666v-4A.667.667 0 0018 12h-2.667a.667.667 0 00-.666.667v4zM16 13.333h1.333V16H16v-2.667zM8.667 8h-8A.667.667 0 000 8.667V22a.667.667 0 001.333 0V9.333h7.334a.667.667 0 000-1.333zM32 32.667c0 .368.299.666.667.666h2.666a.667.667 0 00.667-.666v-4a.667.667 0 00-.667-.667h-2.666a.667.667 0 00-.667.667v4zm1.333-3.334h1.334V32h-1.334v-2.667zM3.333 24C.038 24 0 32.58 0 32.667a3.34 3.34 0 002.667 3.266v3.4a.667.667 0 001.333 0v-3.4a3.34 3.34 0 002.667-3.266c0-.087-.038-8.667-3.334-8.667zm0 10.667c-1.102 0-2-.898-2-2 0-3.322.892-7.334 2-7.334s2 4.012 2 7.334c0 1.102-.897 2-2 2zm4-14.667H4.667a.667.667 0 00-.667.667V22a.667.667 0 001.333 0v-.667h1.334v3.334a.667.667 0 001.333 0v-4A.667.667 0 007.333 20zm25.334-2.667h2.666a.667.667 0 00.667-.666v-4a.667.667 0 00-.667-.667h-2.666a.667.667 0 00-.667.667v4c0 .368.299.666.667.666zm.666-4h1.334V16h-1.334v-2.667z"></path>
    <path d="M7.333 12H4.667a.667.667 0 00-.667.667v4c0 .368.299.666.667.666h2.666A.667.667 0 008 16.667v-4A.667.667 0 007.333 12zm-.666 4H5.333v-2.667h1.334V16zm14.666.667c0 .368.299.666.667.666h2.667a.667.667 0 00.666-.666v-4a.667.667 0 00-.666-.667H22a.667.667 0 00-.667.667v4zm1.334-3.334H24V16h-1.333v-2.667zM39.333 8h-8a.667.667 0 000 1.333h7.334v26.79A1.973 1.973 0 0038 36c-.115 0-.23.01-.343.03a2.647 2.647 0 00-2.324-1.363c-.988 0-1.864.534-2.323 1.363A2.002 2.002 0 0030.667 38c0 1.103.897 2 2 2H38c1.103 0 2-.897 2-2V8.667A.667.667 0 0039.333 8zM38 38.667h-5.333a.668.668 0 010-1.334.66.66 0 01.361.109.668.668 0 001.01-.41A1.325 1.325 0 0135.334 36c.622 0 1.154.425 1.295 1.032a.665.665 0 001.01.41c.435-.28 1.029.063 1.029.558 0 .367-.3.667-.667.667zM22 9.333h2.667a.667.667 0 00.666-.666v-4A.667.667 0 0024.667 4H22a.667.667 0 00-.667.667v4c0 .368.299.666.667.666zm.667-4H24V8h-1.333V5.333zm-1.334 19.334c0 .368.299.666.667.666h2.667a.667.667 0 00.666-.666v-4a.667.667 0 00-.666-.667H22a.667.667 0 00-.667.667v4zm1.334-3.334H24V24h-1.333v-2.667zm-7.334-12H18a.667.667 0 00.667-.666v-4A.667.667 0 0018 4h-2.667a.667.667 0 00-.666.667v4c0 .368.298.666.666.666zm.667-4h1.333V8H16V5.333zm3.527 26.86a.701.701 0 00-.194.474c0 .173.074.346.194.473a.7.7 0 00.473.193.701.701 0 00.473-.193c.12-.127.194-.3.194-.473a.701.701 0 00-.194-.474.698.698 0 00-.946 0zm-4.86-7.526c0 .368.298.666.666.666H18a.667.667 0 00.667-.666v-4A.667.667 0 0018 20h-2.667a.667.667 0 00-.666.667v4zM16 21.333h1.333V24H16v-2.667z"></path>
    <path d="M13.333 28.667c0 .368.299.666.667.666h2v6a.667.667 0 001.333 0v-6h5.334v6a.667.667 0 001.333 0v-6h2A.667.667 0 0026 28H14a.667.667 0 00-.667.667zm18.667-4c0 .368.299.666.667.666h2.666a.667.667 0 00.667-.666v-4a.667.667 0 00-.667-.667h-2.666a.667.667 0 00-.667.667v4zm1.333-3.334h1.334V24h-1.334v-2.667z"></path>
    <path d="M28.667 0H11.333a.667.667 0 00-.666.667v34.666a.667.667 0 001.333 0v-34h16v34a.667.667 0 001.333 0V.667A.667.667 0 0028.667 0z" fill="#9ACC10"></path>
  </symbol>
  <symbol xmlns="http://www.w3.org/2000/svg" viewBox="0 0 42 42" id="tech-padlock">
    <path d="M17.063 30.188v-5.25a1.969 1.969 0 10-3.938 0v5.25a3.28 3.28 0 001.188 5.8c.255.065.517.1.78.106a3.281 3.281 0 001.97-5.907zm-.749 4.154a1.971 1.971 0 01-2.902-.392 1.968 1.968 0 01.697-2.844.657.657 0 00.329-.57v-5.599a.656.656 0 111.312 0v5.611a.655.655 0 00.328.571 1.969 1.969 0 01.236 3.236v-.013z"></path>
    <path d="M40.176 24.938l-2.173-.48a8.287 8.287 0 01-5.25-3.806.656.656 0 00-1.128 0 8.236 8.236 0 01-3.406 3.124V21a3.281 3.281 0 00-1.969-3.006v-6.181a11.156 11.156 0 00-22.313 0v6.181A3.28 3.28 0 001.97 21v1.969h-.657a.656.656 0 00-.656.656v11.813a.656.656 0 00.656.656h.657v1.968a3.281 3.281 0 003.281 3.282h19.688a3.282 3.282 0 003.28-3.282v-.085a19.08 19.08 0 003.02 2.842l.524.393a.656.656 0 00.788 0l.525-.393a19.13 19.13 0 007.612-15.225.656.656 0 00-.511-.657zM5.25 11.813a9.844 9.844 0 0119.688 0v5.906h-2.625v-5.907a7.219 7.219 0 10-14.438 0v5.907H5.25v-5.907zM21 17.718H9.187v-5.907a5.906 5.906 0 0111.813 0v5.907zM8.531 24.28v2.625H1.97V24.28h6.56zm-6.562 10.5v-2.625H8.53v2.625H1.97zm6.562-3.937H1.97v-2.625h6.56v2.625zm18.375 7.218a1.969 1.969 0 01-1.968 1.97H5.25a1.969 1.969 0 01-1.969-1.97v-1.968h5.906a.656.656 0 00.657-.657v-11.81a.656.656 0 00-.656-.656H3.28V21a1.969 1.969 0 011.969-1.969h19.688A1.969 1.969 0 0126.905 21v3.281c-.197.06-.393.118-.597.164l-2.172.492a.656.656 0 00-.512.657c.01 3.8 1.153 7.51 3.281 10.657v1.812zm5.382 1.707l-.132.098-.131-.098a17.816 17.816 0 01-7.087-13.65l1.647-.368a9.601 9.601 0 005.571-3.576 9.601 9.601 0 005.565 3.576l1.654.368a17.816 17.816 0 01-7.087 13.65z"></path>
    <path d="M36.022 26.545l-1.169-.59-.446.886a4.653 4.653 0 101.03.826l.585-1.122zm-.584 4.299a3.314 3.314 0 11-1.621-2.816l-1.772 3.544-1.313-1.778-1.05.787 1.969 2.625a.657.657 0 00.525.263h.059a.656.656 0 00.525-.361l2.08-4.16c.394.553.603 1.216.597 1.896z"></path>
  </symbol>
  <symbol xmlns="http://www.w3.org/2000/svg" viewBox="0 0 44 44" id="tech-paper-roll">
    <path d="M5.609 16.78a3.444 3.444 0 00-3.44 3.44 3.444 3.444 0 003.44 3.44 3.444 3.444 0 003.44-3.44 3.444 3.444 0 00-3.44-3.44zm0 5.59a2.154 2.154 0 01-2.151-2.15c0-1.187.965-2.152 2.15-2.152 1.187 0 2.152.965 2.152 2.151a2.154 2.154 0 01-2.151 2.152zm0-15.52a3.444 3.444 0 00-3.44 3.44 3.444 3.444 0 003.44 3.441 3.444 3.444 0 003.44-3.44 3.444 3.444 0 00-3.44-3.44zm0 5.592a2.154 2.154 0 01-2.151-2.151c0-1.187.965-2.152 2.15-2.152 1.187 0 2.152.965 2.152 2.152a2.154 2.154 0 01-2.151 2.151zm0 14.266a3.444 3.444 0 00-3.44 3.44 3.444 3.444 0 003.44 3.44 3.444 3.444 0 003.44-3.44 3.444 3.444 0 00-3.44-3.44zm0 5.591a2.154 2.154 0 01-2.151-2.15c0-1.187.965-2.152 2.15-2.152 1.187 0 2.152.965 2.152 2.151A2.154 2.154 0 015.61 32.3z"></path>
    <path d="M42.66 32.394a.645.645 0 00-1.174.533 13.692 13.692 0 011.21 5.102h-20.6c-.18-3.777-1.957-7.257-5.165-10.1a21.108 21.108 0 00-2.822-2.1h20.196c.368 0 .725.099 1.034.287 1.052.643 3.066 2.065 4.732 4.378a.645.645 0 101.046-.753c-1.799-2.497-3.972-4.032-5.107-4.725a3.241 3.241 0 00-.773-.341 5.602 5.602 0 00-.796-9.42 5.613 5.613 0 003.002-4.964 5.615 5.615 0 00-5.608-5.61h-2.867a.644.644 0 100 1.29h2.866a4.325 4.325 0 014.32 4.32 4.325 4.325 0 01-4.32 4.32H9.182a5.6 5.6 0 000-8.64h16.85a.644.644 0 100-1.289H5.608A5.615 5.615 0 000 10.291a5.613 5.613 0 003.003 4.964A5.613 5.613 0 000 20.22a5.613 5.613 0 003.003 4.965A5.613 5.613 0 000 30.148a5.615 5.615 0 005.609 5.609h7.36a.645.645 0 000-1.29H9.182a5.6 5.6 0 000-8.639h2.223c.502.226 2.617 1.236 4.7 3.091 1.884 1.677 3.208 3.533 3.965 5.549h-4.164a.645.645 0 100 1.289h4.565c.234.941.352 1.914.352 2.916 0 .356.289.645.645.645h21.887a.644.644 0 00.645-.645c0-2.211-.45-4.324-1.34-6.28zM1.29 10.29a4.325 4.325 0 014.319-4.32 4.325 4.325 0 014.32 4.32 4.325 4.325 0 01-4.318 4.32h-.002a4.325 4.325 0 01-4.32-4.32zm0 9.928a4.325 4.325 0 014.319-4.32 4.325 4.325 0 014.32 4.32 4.325 4.325 0 01-4.32 4.32 4.325 4.325 0 01-4.32-4.32zm8.639 9.93a4.325 4.325 0 01-4.32 4.319 4.325 4.325 0 01-4.32-4.32 4.325 4.325 0 014.32-4.32 4.325 4.325 0 014.32 4.32zm-.747-5.61a5.6 5.6 0 000-8.64h22.652a4.325 4.325 0 014.32 4.32 4.325 4.325 0 01-4.32 4.32H9.182z"></path>
  </symbol>
  <symbol xmlns="http://www.w3.org/2000/svg" viewBox="0 0 50 50" id="tech-parking">
    <path d="M41.794 7.965h-2.44c-.365 0-.596.23-.596.486v7.892c0 .328.389.498.79.498.388 0 .789-.17.789-.498v-2.817h1.36c1.602 0 2.853-.765 2.853-2.756v-.073c0-1.991-1.214-2.732-2.756-2.732zm1.178 2.926c0 .947-.486 1.397-1.275 1.397h-1.36V9.349h1.36c.789 0 1.275.45 1.275 1.397v.145zm-14.352.159a12.124 12.124 0 00-8.63-3.574 12.13 12.13 0 00-8.63 3.574.712.712 0 001.008 1.008A10.709 10.709 0 0119.99 8.9c2.88 0 5.587 1.12 7.623 3.157a.71.71 0 001.007 0 .712.712 0 000-1.008z"></path>
    <path d="M25.681 13.99c-3.138-3.139-8.244-3.139-11.382 0a.712.712 0 101.008 1.006 6.631 6.631 0 019.367 0 .71.71 0 001.007 0 .712.712 0 000-1.007zm-2.891 2.89a3.963 3.963 0 00-5.599 0 .712.712 0 101.008 1.008 2.537 2.537 0 013.583 0 .71.71 0 001.007 0 .712.712 0 000-1.007zm12.26 13.874a11.7 11.7 0 01-.903-.553l-4.711-3.182a8.585 8.585 0 00-4.824-1.477h-8.647a8.562 8.562 0 00-6.082 2.512 11.544 11.544 0 01-2.83 2.071c-.617.32-1 .95-1 1.644 0 1.023.832 1.854 1.854 1.854h2.948a.712.712 0 100-1.425H7.907a.43.43 0 01-.198-.808 12.966 12.966 0 003.18-2.326 7.146 7.146 0 015.076-2.097H17.9v5.231h-2.367a.712.712 0 000 1.425h19.531c.586 0 1.062-.476 1.062-1.062 0-.75-.412-1.442-1.076-1.807zm-15.724 1.444v-5.231h5.286c1.44 0 2.833.426 4.026 1.232l4.712 3.183c.327.22.668.43 1.014.62.09.05.165.117.222.196h-15.26zm1.764 2.508h-2.2a.712.712 0 000 1.424h2.2a.712.712 0 100-1.424z"></path>
    <path d="M49.385 34.108l-.225-.373a5.862 5.862 0 00-3.87-2.719l-1.838-.366v-9.32h4.759a1.78 1.78 0 001.777-1.778V5.68c0-.98-.797-1.777-1.777-1.777H34.339c-.98 0-1.777.797-1.777 1.777v5.263a.712.712 0 101.424 0V5.68c0-.194.159-.352.353-.352H48.21c.194 0 .352.158.352.352v13.872a.353.353 0 01-.352.353H34.339a.353.353 0 01-.353-.353v-3.979a.712.712 0 10-1.424 0v3.98c0 .98.797 1.776 1.777 1.776h5.396v8.582l-.945-.188c-1.305-.26-2.577-1.046-3.42-1.616l-4.711-3.183a10.763 10.763 0 00-6.047-1.85h-8.647a10.732 10.732 0 00-7.623 3.148 9.354 9.354 0 01-4.696 2.535l-1.022.214A3.314 3.314 0 000 32.201V39.1c0 .823.486 1.57 1.238 1.905l2.837 1.26a4.698 4.698 0 001.297 2.448 4.71 4.71 0 003.341 1.381 4.71 4.71 0 004.546-3.44h23.656a4.694 4.694 0 001.205 2.059 4.694 4.694 0 003.341 1.384 4.694 4.694 0 003.342-1.384 4.694 4.694 0 001.205-2.06h1.35A2.644 2.644 0 0050 40.013v-3.695c0-.78-.213-1.543-.615-2.21zM41.16 21.329h.867v9.038l-.867-.173V21.33zM11.047 43.705a3.28 3.28 0 01-2.334.967 3.28 3.28 0 01-2.334-.967c-1-1-1.222-2.487-.668-3.704l.013-.03a3.32 3.32 0 01.265-.463l.049-.07.059-.077.046-.06c.024-.03.048-.058.073-.086l.041-.049c.037-.04.074-.08.113-.118l.01-.01c.006-.008.014-.015.022-.022a3.38 3.38 0 01.099-.094l.026-.023c.034-.03.067-.06.102-.087l.01-.008a3.307 3.307 0 014.154.004l.004.003c.037.03.073.062.109.094l.02.016a3.162 3.162 0 01.246.248l.051.06.062.074a3.276 3.276 0 01.178.242l.012.02a3.306 3.306 0 01-.428 4.14zm32.748 0a3.28 3.28 0 01-2.334.967c-.882 0-1.71-.343-2.334-.967a3.306 3.306 0 01-.428-4.141l.012-.018a3.244 3.244 0 01.24-.316l.052-.06a3.286 3.286 0 012.458-1.1 3.279 3.279 0 012.459 1.1l.052.06a3.253 3.253 0 01.127.158l.036.048c.026.036.052.073.076.11l.013.018a3.307 3.307 0 01-.429 4.141zm4.78-3.693c0 .671-.546 1.217-1.216 1.217h-1.173a4.666 4.666 0 00-1.049-2.827l-.013-.017a5.21 5.21 0 00-.125-.146l-.033-.037a4.957 4.957 0 00-.14-.147l-.023-.025a4.697 4.697 0 00-3.342-1.384 4.693 4.693 0 00-3.341 1.384l-.023.024a4.865 4.865 0 00-.14.148l-.032.036a5.013 5.013 0 00-.127.148l-.012.015a4.667 4.667 0 00-1.05 2.828H13.439a4.667 4.667 0 00-1.052-2.831l-.01-.012a4.857 4.857 0 00-.132-.155l-.025-.028a4.732 4.732 0 00-.905-.778 4.721 4.721 0 00-2.6-.777 4.711 4.711 0 00-3.495 1.543l-.044.05c-.035.039-.07.08-.103.12l-.045.054a4.812 4.812 0 00-.102.132l-.031.042a4.63 4.63 0 00-.249.377l-.006.01a4.639 4.639 0 00-.107.194l-.003.006a4.696 4.696 0 00-.492 1.514l-2.22-.987a.66.66 0 01-.392-.603v-6.9c0-.883.627-1.655 1.491-1.836l1.023-.214a10.776 10.776 0 005.409-2.92 9.316 9.316 0 016.617-2.734h8.648c1.877 0 3.692.556 5.248 1.607l4.712 3.183c.945.639 2.382 1.524 3.94 1.833l6.5 1.293a4.435 4.435 0 012.928 2.057l.224.373c.269.445.41.955.41 1.475v3.694z"></path>
    <path d="M10.242 39.842a2.148 2.148 0 00-1.529-.633c-.577 0-1.12.225-1.529.633a2.148 2.148 0 00-.633 1.53c0 .577.225 1.12.633 1.528.409.409.952.634 1.53.634a2.165 2.165 0 001.53-3.691zm-1.007 2.051a.733.733 0 01-.522.216.732.732 0 01-.522-.216.733.733 0 01-.216-.522c0-.197.077-.382.216-.522a.733.733 0 01.522-.216.739.739 0 01.522 1.26zm33.755-2.051a2.148 2.148 0 00-1.529-.633 2.15 2.15 0 00-1.529.633 2.165 2.165 0 001.53 3.692c.577 0 1.12-.225 1.528-.633.409-.409.634-.952.634-1.53 0-.577-.225-1.12-.634-1.529zm-1.007 2.051a.733.733 0 01-.522.216.739.739 0 11.522-.216z"></path>
  </symbol>
  <symbol xmlns="http://www.w3.org/2000/svg" viewBox="0 0 41 41" id="tech-radiator">
    <g clip-path="url(#clip0)">
      <path d="M40.4 8.26a.6.6 0 00.6-.6V4.871c0-.771-1.201-.772-1.201 0v.793h-1.92v-.793a.6.6 0 00-.601-.6h-1.542V1.925A1.918 1.918 0 0033.821.01h-1.21a1.917 1.917 0 00-1.915 1.915V4.27h-1.318V1.96A1.917 1.917 0 0027.463.045h-1.21a1.917 1.917 0 00-1.915 1.915v2.31H23.02V1.96A1.917 1.917 0 0021.105.045h-1.21A1.917 1.917 0 0017.98 1.96v2.31h-1.318V1.96A1.917 1.917 0 0014.747.045h-1.21a1.917 1.917 0 00-1.915 1.915v2.31h-1.318V1.96A1.917 1.917 0 008.39.046H7.18a1.917 1.917 0 00-1.915 1.915v2.31h-1.24a.904.904 0 00-.903.903v2.183c0 .498.405.903.903.903h1.24v24.743h-1.9v-.6a.6.6 0 00-.601-.601h-.48v-1.42A1.443 1.443 0 003.322 29c0-.795-.646-1.441-1.441-1.441h-.4c-.795 0-1.442.646-1.442 1.441 0 .656.44 1.21 1.041 1.384v1.419H.6a.6.6 0 00-.601.6v3.564c0 .687.415 1.279 1.007 1.54v2.904c0 .771 1.202.773 1.202 0v-2.848a1.684 1.684 0 001.154-1.596v-1.762h1.9v2.271c0 1.056.86 1.915 1.916 1.915h1.21a1.917 1.917 0 001.915-1.915v-.645h1.318v.645c0 1.055.857 1.913 1.911 1.915v2.02c0 .771 1.202.773 1.202 0v-2.02h.012a1.917 1.917 0 001.915-1.915v-.645h1.318v.645c0 1.056.859 1.915 1.915 1.915h1.21a1.917 1.917 0 001.915-1.915v-.645h1.318v.645c0 1.056.859 1.915 1.915 1.915h.013v2.02c0 .771 1.2.773 1.2 0v-2.02a1.917 1.917 0 001.912-1.915v-.645h1.318v.61c0 1.056.859 1.916 1.915 1.916h1.21c1.056 0 1.915-.86 1.915-1.916v-2.236h1.9v1.762c0 .743.486 1.374 1.155 1.596v2.848c0 .771 1.202.773 1.202 0v-2.905A1.683 1.683 0 0041 35.965v-3.563a.6.6 0 00-.6-.6h-.481v-1.42A1.443 1.443 0 0040.96 29c0-.795-.647-1.441-1.441-1.441h-.4a1.442 1.442 0 00-.402 2.825v1.419h-.48a.6.6 0 00-.6.6v.601h-1.9V20.671c0-.772-1.202-.784-1.202 0v15.77c0 .393-.32.713-.714.713h-1.21a.715.715 0 01-.714-.714V1.926c0-.394.32-.714.714-.714h1.21c.394 0 .714.32.714.714v15.061c0 .773 1.201.784 1.201 0V8.26h1.542a.6.6 0 00.6-.6v-.794h1.92v.793a.6.6 0 00.601.6zM1.48 28.759h.4a.24.24 0 010 .48h-.4a.24.24 0 010-.48zm.681 7.207a.481.481 0 01-.96 0v-2.963h.96v2.963zm36.956-7.207h.4a.24.24 0 010 .48h-.4a.24.24 0 010-.48zm.68 4.244v2.963a.481.481 0 01-.96 0v-2.963h.96zm-9.102-27.53v1.586h-1.318V5.473h1.318zm-3.233 31.716h-1.21a.715.715 0 01-.714-.714V1.961c0-.394.32-.714.714-.714h1.21c.394 0 .714.32.714.714v34.514c0 .394-.32.714-.714.714zm-6.358 0h-1.21a.715.715 0 01-.714-.714V28.6c0-.772-1.201-.784-1.201 0v3.243h-1.318V8.26h1.318v17.056c0 .772 1.2.783 1.2 0V1.96c0-.394.321-.714.715-.714h1.21c.394 0 .714.32.714.714v34.514c0 .394-.32.714-.714.714zm-6.358 0h-1.21a.715.715 0 01-.714-.714V1.961c0-.394.32-.714.714-.714h1.21c.394 0 .714.32.714.714v34.514c0 .394-.32.714-.714.714zM9.704 13.264a.6.6 0 00-.6.6v22.611a.715.715 0 01-.715.714H7.18a.715.715 0 01-.714-.714V1.961c0-.394.32-.714.714-.714h1.21c.394 0 .714.32.714.714v8.38c0 .771 1.201.772 1.201 0V8.26h1.318v23.582h-1.318V13.864a.6.6 0 00-.6-.6zM23.02 8.26h1.318v23.582H23.02V8.26zm6.358 0h1.318v23.582h-1.318V8.26zm-5.04-2.787v1.586H23.02V5.473h1.318zm-6.358 0v1.586h-1.318V5.473h1.318zm-6.358 0v1.586h-1.318V5.473h1.318zm-7.3 1.586V5.473h.942v1.586h-.941zm5.982 27.57v-1.586h1.318v1.586h-1.318zm6.358 0v-1.586h1.318v1.586h-1.318zm6.358 0v-1.586h1.318v1.586H23.02zm6.358 0v-1.586h1.318v1.586h-1.318zm7.3-27.57h-.942V5.473h.942v1.586z"></path>
    </g>
    <defs>
      <clipPath id="clip0">
        <path d="M0 0h41v41H0z"></path>
      </clipPath>
    </defs>
  </symbol>
  <symbol xmlns="http://www.w3.org/2000/svg" viewBox="0 0 38 38" id="tech-wall">
    <g clip-path="url(#clip0)">
      <path d="M37.103 5.115a.557.557 0 10-.856.711c.394.474.498 1.124.273 1.696l-1.503 3.82a1.688 1.688 0 01-2.184.952L22.396 8.188a1.672 1.672 0 01-.928-.895 1.674 1.674 0 01-.022-1.29l1.503-3.82c.164-.42.482-.748.895-.928.412-.18.87-.188 1.29-.023l9.399 3.698a.556.556 0 10.407-1.036L25.54.195a2.78 2.78 0 00-2.14.04 2.778 2.778 0 00-1.487 1.54l-1.503 3.82a2.78 2.78 0 00.038 2.142 2.778 2.778 0 001.54 1.487l10.437 4.106a2.804 2.804 0 003.628-1.58l1.503-3.82a2.8 2.8 0 00-.453-2.815zM9.12 19.953v4.106a2.801 2.801 0 002.798 2.798h.923a.557.557 0 000-1.114h-.923a1.687 1.687 0 01-1.685-1.684v-4.106c0-.929.756-1.685 1.685-1.685h11.214c.929 0 1.685.756 1.685 1.685v4.106c0 .929-.756 1.684-1.685 1.684h-8.065a.557.557 0 000 1.114h8.065a2.801 2.801 0 002.798-2.798v-4.106a2.801 2.801 0 00-2.798-2.798H11.918a2.801 2.801 0 00-2.798 2.798z"></path>
      <path d="M24.057 14.65c-1.58.04-2.946.073-3.675-.043-.788-.127-1.22-.54-1.399-1.344-.177-.795-.07-1.794.025-2.676.049-.457.095-.888.095-1.248 0-2.27-1.538-3.328-4.84-3.328H3.046A2.801 2.801 0 00.25 8.81v26.393A2.801 2.801 0 003.047 38h28.955a2.801 2.801 0 002.798-2.798v-17.49c0-.627-.231-1.17-.688-1.616-1.696-1.654-6.33-1.539-10.055-1.446zm9.63 11.093h-4.03a1.686 1.686 0 01-1.684-1.684v-4.106c0-.929.756-1.685 1.685-1.685h4.029v7.475zM17.99 9.34c0 .3-.043.703-.09 1.13-.098.919-.22 2.063-.003 3.036.277 1.242 1.075 2.003 2.309 2.201.83.133 2.243.098 3.879.057 3.33-.083 7.89-.197 9.25 1.13.085.083.154.17.208.262h-3.885a2.801 2.801 0 00-2.799 2.798v4.106a2.801 2.801 0 002.799 2.797h4.029v2.008a2.783 2.783 0 00-1.685-.566H20.788a2.801 2.801 0 00-2.798 2.798v4.106c0 .632.21 1.216.565 1.685h-2.06a2.783 2.783 0 00.565-1.685v-4.106a2.801 2.801 0 00-2.798-2.798H3.047a2.78 2.78 0 00-1.684.566v-2.008h4.029A2.801 2.801 0 008.19 24.06v-4.106a2.801 2.801 0 00-2.798-2.798h-4.03v-2.008a2.783 2.783 0 001.685.566h11.215a2.801 2.801 0 002.798-2.798V8.81a2.78 2.78 0 00-.36-1.369c1.157.414 1.29 1.173 1.29 1.899zM1.363 18.27h4.029c.93 0 1.685.755 1.685 1.684v4.106c0 .928-.756 1.684-1.685 1.684h-4.03v-7.475zm0-9.46c0-.929.756-1.684 1.684-1.684h11.215c.929 0 1.685.755 1.685 1.684v4.106c0 .929-.756 1.685-1.685 1.685H3.047a1.686 1.686 0 01-1.684-1.685V8.81zm0 26.393v-4.106c0-.929.756-1.684 1.684-1.684h11.215c.929 0 1.685.755 1.685 1.684v4.106c0 .929-.756 1.685-1.685 1.685H3.047a1.686 1.686 0 01-1.684-1.685zm30.64 1.685H20.787a1.687 1.687 0 01-1.685-1.685v-4.106c0-.929.756-1.684 1.685-1.684h11.214c.93 0 1.685.755 1.685 1.684v4.106c0 .93-.756 1.685-1.685 1.685z"></path>
    </g>
    <defs>
      <clipPath id="clip0">
        <path d="M0 0h38v38H0z"></path>
      </clipPath>
    </defs>
  </symbol>
  <symbol xmlns="http://www.w3.org/2000/svg" viewBox="0 0 11 13" id="location">
    <path d="M9.8 2.268C8.849.818 7.277.001 5.509.001 3.755.001 2.183.817 1.2 2.268.217 3.69-.01 5.503.595 7.091c.166.423.423.861.756 1.254l3.824 4.505c.09.09.181.151.317.151s.227-.06.318-.151l3.84-4.505c.332-.393.604-.816.755-1.254.605-1.588.378-3.402-.604-4.823zM5.509 7.62a2.387 2.387 0 01-2.374-2.374c0-1.3 1.074-2.373 2.374-2.373S7.88 3.946 7.88 5.246c0 1.3-1.058 2.374-2.373 2.374z"></path>
  </symbol>
</svg>